<?xml version="1.0" encoding="UTF-8"?>
<!DOCTYPE svg PUBLIC "-//W3C//DTD SVG 1.1//EN" "http://www.w3.org/Graphics/SVG/1.1/DTD/svg11.dtd">
<svg xmlns="http://www.w3.org/2000/svg" version="1.1" width="120px" height="57px" style="shape-rendering:geometricPrecision; text-rendering:geometricPrecision; image-rendering:optimizeQuality; fill-rule:evenodd; clip-rule:evenodd" xmlns:xlink="http://www.w3.org/1999/xlink">
<g><path style="opacity:0.946" fill="#469f42" d="M 23.5,0.5 C 46.7866,-0.632716 57.9533,10.3673 57,33.5C 50.1978,53.4827 36.6978,59.9827 16.5,53C 1.19714,42.0413 -1.96953,28.208 7,11.5C 11.6388,6.32951 17.1388,2.66285 23.5,0.5 Z"/></g>
<g><path style="opacity:1" fill="#f4f9f4" d="M 27.5,9.5 C 29.5,9.5 31.5,9.5 33.5,9.5C 33.5,10.5 33.5,11.5 33.5,12.5C 29.1559,12.3385 25.4893,13.8385 22.5,17C 43.7642,15.0371 50.2642,23.8705 42,43.5C 37.139,47.2841 31.639,48.4507 25.5,47C 19.8356,44.6676 16.3356,40.5009 15,34.5C 14.501,30.1794 14.3343,25.8461 14.5,21.5C 13.1667,21.5 11.8333,21.5 10.5,21.5C 10.5,20.1667 10.5,18.8333 10.5,17.5C 12.924,17.8076 15.2573,17.4742 17.5,16.5C 19.8049,12.6822 23.1383,10.3488 27.5,9.5 Z"/></g>
<g><path style="opacity:1" fill="#b1d4ae" d="M 27.5,9.5 C 29.6074,8.53178 31.9407,8.19845 34.5,8.5C 34.7678,10.099 34.4345,11.4324 33.5,12.5C 33.5,11.5 33.5,10.5 33.5,9.5C 31.5,9.5 29.5,9.5 27.5,9.5 Z"/></g>
<g><path style="opacity:0.691" fill="#fefffe" d="M 112.5,10.5 C 115.317,10.8005 115.984,12.1339 114.5,14.5C 118.173,17.8633 119.006,21.8633 117,26.5C 113.606,27.4558 110.106,27.7892 106.5,27.5C 106.185,31.8004 103.851,33.467 99.5,32.5C 99.5,31.5 99.5,30.5 99.5,29.5C 100.822,29.67 101.989,29.3366 103,28.5C 103.498,25.1832 103.665,21.8499 103.5,18.5C 104.5,18.5 105.5,18.5 106.5,18.5C 106.5,20.5 106.5,22.5 106.5,24.5C 109.187,24.6641 111.854,24.4974 114.5,24C 107.416,22.4163 106.75,19.4163 112.5,15C 111.272,13.5098 111.272,12.0098 112.5,10.5 Z M 111.5,18.5 C 113.359,18.4609 114.692,19.2942 115.5,21C 113.386,21.4419 112.052,20.6086 111.5,18.5 Z"/></g>
<g><path style="opacity:0.744" fill="#fefffe" d="M 76.5,12.5 C 77.5,12.5 78.5,12.5 79.5,12.5C 79.5,16.5 79.5,20.5 79.5,24.5C 81.5,24.5 83.5,24.5 85.5,24.5C 85.5,22.8333 85.5,21.1667 85.5,19.5C 86.5,19.5 87.5,19.5 88.5,19.5C 88.5,21.1667 88.5,22.8333 88.5,24.5C 89.5,24.5 90.5,24.5 91.5,24.5C 91.5,22.8333 91.5,21.1667 91.5,19.5C 92.5,19.5 93.5,19.5 94.5,19.5C 94.2148,21.288 94.5481,22.9547 95.5,24.5C 97.2825,22.9775 97.9492,20.9775 97.5,18.5C 98.5,18.5 99.5,18.5 100.5,18.5C 100.98,21.6852 100.314,24.5185 98.5,27C 91.5,27.6667 84.5,27.6667 77.5,27C 76.5308,22.2633 76.1975,17.43 76.5,12.5 Z"/></g>
<g><path style="opacity:0.701" fill="#fefffe" d="M 66.5,15.5 C 67.5,15.5 68.5,15.5 69.5,15.5C 69.5,16.5 69.5,17.5 69.5,18.5C 68.5,18.5 67.5,18.5 66.5,18.5C 66.5,17.5 66.5,16.5 66.5,15.5 Z"/></g>
<g><path style="opacity:0.733" fill="#fefffe" d="M 71.5,18.5 C 72.5,18.5 73.5,18.5 74.5,18.5C 75.8829,24.7658 73.5496,28.4325 67.5,29.5C 62.2105,28.6964 60.3771,25.6964 62,20.5C 63.0113,19.6634 64.1779,19.33 65.5,19.5C 63.5149,22.8601 64.3482,25.1935 68,26.5C 69.2613,26.2409 70.2613,25.5742 71,24.5C 71.4955,22.5273 71.6621,20.5273 71.5,18.5 Z"/></g>
<g><path style="opacity:1" fill="#4aa146" d="M 19.5,21.5 C 21.5273,21.3379 23.5273,21.5045 25.5,22C 22.3985,27.5224 23.0652,32.5224 27.5,37C 31.6129,39.9973 35.7796,40.1639 40,37.5C 39.058,41.7536 36.2247,43.7536 31.5,43.5C 24.8056,43.3039 20.6389,39.9705 19,33.5C 18.2375,29.4126 18.4042,25.4126 19.5,21.5 Z"/></g>
<g><path style="opacity:1" fill="#57a651" d="M 31.5,21.5 C 38.169,21.0049 41.3356,24.0049 41,30.5C 36.6158,37.1482 32.2825,37.1482 28,30.5C 27.3333,28.8333 27.3333,27.1667 28,25.5C 29.3756,24.2949 30.5423,22.9616 31.5,21.5 Z"/></g>
<g><path style="opacity:1" fill="#f3f8f2" d="M 33.5,25.5 C 36.0838,26.0483 37.0838,27.715 36.5,30.5C 31.5162,30.8558 30.5162,29.1891 33.5,25.5 Z"/></g>
<g><path style="opacity:0.643" fill="#fefffe" d="M 71.5,33.5 C 69.5,33.5 67.5,33.5 65.5,33.5C 65.5,34.5 65.5,35.5 65.5,36.5C 67.1667,36.5 68.8333,36.5 70.5,36.5C 70.5,37.5 70.5,38.5 70.5,39.5C 68.8333,39.5 67.1667,39.5 65.5,39.5C 65.5,41.1667 65.5,42.8333 65.5,44.5C 64.1667,44.5 62.8333,44.5 61.5,44.5C 61.5,39.8333 61.5,35.1667 61.5,30.5C 64.8333,30.5 68.1667,30.5 71.5,30.5C 71.5,31.5 71.5,32.5 71.5,33.5 Z"/></g>
<g><path style="opacity:0.729" fill="#fefffe" d="M 71.5,33.5 C 72.5,33.5 73.5,33.5 74.5,33.5C 75.5798,44.0854 76.5798,44.0854 77.5,33.5C 78.5,33.5 79.5,33.5 80.5,33.5C 80.5,37.1667 80.5,40.8333 80.5,44.5C 72.6452,45.2061 69.6452,41.5394 71.5,33.5 Z"/></g>
<g><path style="opacity:0.693" fill="#fefffe" d="M 83.5,33.5 C 88.0668,34.3648 92.7335,34.3648 97.5,33.5C 97.5,34.5 97.5,35.5 97.5,36.5C 93.1074,36.4568 92.7741,36.9568 96.5,38C 98.1921,41.4387 97.1921,43.6053 93.5,44.5C 90.4215,44.3759 89.4215,43.0426 90.5,40.5C 91.7678,41.4279 93.1011,41.5946 94.5,41C 91.6363,39.5874 88.9696,38.0874 86.5,36.5C 86.5,39.1667 86.5,41.8333 86.5,44.5C 85.5,44.5 84.5,44.5 83.5,44.5C 83.5,40.8333 83.5,37.1667 83.5,33.5 Z"/></g>
<g><path style="opacity:0.732" fill="#fefffe" d="M 98.5,33.5 C 101.119,33.2317 103.619,33.565 106,34.5C 106.498,37.8168 106.665,41.1501 106.5,44.5C 104.143,44.6633 101.81,44.4966 99.5,44C 97.3653,39.6503 98.6987,37.317 103.5,37C 101.866,36.5065 100.199,36.3398 98.5,36.5C 98.5,35.5 98.5,34.5 98.5,33.5 Z M 102.5,39.5 C 103.773,40.0768 103.773,40.7435 102.5,41.5C 101.537,41.0302 101.537,40.3635 102.5,39.5 Z"/></g>
<g><path style="opacity:0.696" fill="#fefffe" d="M 108.5,33.5 C 111.448,33.2229 114.281,33.5562 117,34.5C 117.498,37.8168 117.665,41.1501 117.5,44.5C 116.5,44.5 115.5,44.5 114.5,44.5C 114.813,41.7531 114.48,39.0865 113.5,36.5C 112.914,36.7093 112.414,37.0426 112,37.5C 111.503,39.8098 111.337,42.1432 111.5,44.5C 110.5,44.5 109.5,44.5 108.5,44.5C 108.5,40.8333 108.5,37.1667 108.5,33.5 Z"/></g>
</svg>
