<?xml version="1.0" encoding="UTF-8"?>
<!DOCTYPE svg PUBLIC "-//W3C//DTD SVG 1.1//EN" "http://www.w3.org/Graphics/SVG/1.1/DTD/svg11.dtd">
<svg xmlns="http://www.w3.org/2000/svg" version="1.1" width="200px" height="200px" style="shape-rendering:geometricPrecision; text-rendering:geometricPrecision; image-rendering:optimizeQuality; fill-rule:evenodd; clip-rule:evenodd" xmlns:xlink="http://www.w3.org/1999/xlink">
<g><path style="opacity:0.995" fill="#7a7a7a" d="M 99.5,39.5 C 100.721,40.0283 101.887,40.695 103,41.5C 103.667,49.1667 103.667,56.8333 103,64.5C 101.301,65.4061 99.4672,65.7394 97.5,65.5C 97.797,58.4419 97.4637,51.4419 96.5,44.5C 97.0654,42.4908 98.0654,40.8241 99.5,39.5 Z"/></g>
<g><path style="opacity:1" fill="#91278c" d="M 93.5,51.5 C 91.9502,54.8889 89.4502,57.5555 86,59.5C 84.9055,61.0779 84.0722,62.7446 83.5,64.5C 82.5028,64.4701 81.8361,64.9701 81.5,66C 80.9221,67.8114 80.4221,69.6447 80,71.5C 78.6026,70.7741 77.7692,69.6075 77.5,68C 78.6546,60.6868 82.3213,55.0202 88.5,51C 90.1966,50.6155 91.8632,50.7822 93.5,51.5 Z"/></g>
<g><path style="opacity:1" fill="#8d2c89" d="M 123.5,75.5 C 122.834,72.3107 122.167,68.9773 121.5,65.5C 120.914,65.2907 120.414,64.9574 120,64.5C 119.625,69.2101 118.958,73.8768 118,78.5C 115.52,83.782 113.353,89.1153 111.5,94.5C 113.592,94.4386 115.092,93.4386 116,91.5C 116.399,91.7284 116.565,92.0618 116.5,92.5C 116.204,94.403 115.537,96.0697 114.5,97.5C 114.631,96.7611 114.464,96.0944 114,95.5C 113.199,99.7109 111.366,100.378 108.5,97.5C 110.153,91.1882 112.653,85.1882 116,79.5C 119.949,68.3459 116.949,59.6792 107,53.5C 106.259,50.8882 107.259,49.2215 110,48.5C 121.39,53.9472 125.89,62.9472 123.5,75.5 Z"/></g>
<g><path style="opacity:1" fill="#91268c" d="M 123.5,75.5 C 122.523,81.7792 120.19,87.4459 116.5,92.5C 116.565,92.0618 116.399,91.7284 116,91.5C 115.092,93.4386 113.592,94.4386 111.5,94.5C 113.353,89.1153 115.52,83.782 118,78.5C 118.958,73.8768 119.625,69.2101 120,64.5C 120.414,64.9574 120.914,65.2907 121.5,65.5C 122.167,68.9773 122.834,72.3107 123.5,75.5 Z"/></g>
<g><path style="opacity:1" fill="#8e2b8a" d="M 93.5,51.5 C 91.8632,50.7822 90.1966,50.6155 88.5,51C 82.3213,55.0202 78.6546,60.6868 77.5,68C 77.7692,69.6075 78.6026,70.7741 80,71.5C 80.4221,69.6447 80.9221,67.8114 81.5,66C 81.8361,64.9701 82.5028,64.4701 83.5,64.5C 82.4042,68.4126 82.2375,72.4126 83,76.5C 86.0737,82.6411 88.5737,88.9744 90.5,95.5C 89.0099,97.4006 87.3433,98.0673 85.5,97.5C 82.4417,91.7119 79.6083,85.7119 77,79.5C 73.306,65.5579 77.806,55.2246 90.5,48.5C 91.8549,49.1882 92.8549,50.1882 93.5,51.5 Z"/></g>
<g><path style="opacity:1" fill="#693367" d="M 90.5,95.5 C 91.2485,96.531 91.9152,97.6976 92.5,99C 97.5,99.6667 102.5,99.6667 107.5,99C 108.056,98.6174 108.389,98.1174 108.5,97.5C 111.366,100.378 113.199,99.7109 114,95.5C 114.464,96.0944 114.631,96.7611 114.5,97.5C 114.425,100.206 114.092,102.873 113.5,105.5C 104.5,105.5 95.5,105.5 86.5,105.5C 85.9084,102.873 85.5751,100.206 85.5,97.5C 87.3433,98.0673 89.0099,97.4006 90.5,95.5 Z"/></g>
<g><path style="opacity:0.413" fill="#663663" d="M 112.5,116.5 C 104.167,115.833 95.8333,115.167 87.5,114.5C 87.2077,112.043 87.2077,109.376 87.5,106.5C 95.84,106.334 104.173,106.5 112.5,107C 113.166,109.997 113.166,113.164 112.5,116.5 Z"/></g>
<g><path style="opacity:0.927" fill="#523750" d="M 87.5,114.5 C 95.8333,115.167 104.167,115.833 112.5,116.5C 111.547,118.61 109.881,119.777 107.5,120C 102.167,120.667 96.8333,120.667 91.5,120C 88.7854,119.125 87.4521,117.292 87.5,114.5 Z"/></g>
<g><path style="opacity:0.722" fill="#ffff" d="M 19.5,125.5 C 21.1667,125.5 22.8333,125.5 24.5,125.5C 24.5,131.5 24.5,137.5 24.5,143.5C 22.8333,143.5 21.1667,143.5 19.5,143.5C 19.5,137.5 19.5,131.5 19.5,125.5 Z"/></g>
<g><path style="opacity:0.858" fill="#ffff" d="M 144.5,129.5 C 144.5,130.167 144.833,130.5 145.5,130.5C 145.208,131.874 144.875,133.207 144.5,134.5C 144.19,133.262 143.69,133.262 143,134.5C 142.502,137.482 142.335,140.482 142.5,143.5C 141.167,143.5 139.833,143.5 138.5,143.5C 138.152,139.742 137.485,136.076 136.5,132.5C 137.11,131.609 137.443,130.609 137.5,129.5C 137.949,127.467 138.949,125.8 140.5,124.5C 141.689,126.363 143.022,128.03 144.5,129.5 Z"/></g>
<g><path style="opacity:0.904" fill="#ffff" d="M 36.5,143.5 C 34.7091,142.772 34.0424,141.772 34.5,140.5C 36.5314,138.751 36.8647,136.751 35.5,134.5C 34.7321,133.133 34.7321,131.467 35.5,129.5C 35.6743,126.237 37.341,124.57 40.5,124.5C 40.9045,130.927 40.9045,137.26 40.5,143.5C 39.1667,143.5 37.8333,143.5 36.5,143.5 Z"/></g>
<g><path style="opacity:0.677" fill="#ffff" d="M 75.5,124.5 C 76.8221,124.33 77.9887,124.663 79,125.5C 79.4995,131.491 79.6662,137.491 79.5,143.5C 77.8333,143.5 76.1667,143.5 74.5,143.5C 74.2088,137.077 74.5422,130.744 75.5,124.5 Z"/></g>
<g><path style="opacity:0.967" fill="#ffff" d="M 91.5,124.5 C 93.8268,124.665 95.9935,125.331 98,126.5C 98.5894,129.79 97.0894,131.29 93.5,131C 96.1026,133.094 98.1026,135.594 99.5,138.5C 97.7212,144.367 94.0546,145.867 88.5,143C 85.5723,140.624 85.9056,139.124 89.5,138.5C 91.1547,139.228 92.8214,139.395 94.5,139C 91.4193,136.585 89.086,133.585 87.5,130C 88.0074,127.455 89.3407,125.621 91.5,124.5 Z"/></g>
<g><path style="opacity:0.87" fill="#ffff" d="M 116.5,142.5 C 116.5,139.5 116.5,136.5 116.5,133.5C 116.336,130.813 116.503,128.146 117,125.5C 118.011,124.663 119.178,124.33 120.5,124.5C 120.5,130.833 120.5,137.167 120.5,143.5C 118.901,143.768 117.568,143.434 116.5,142.5 Z"/></g>
<g><path style="opacity:0.896" fill="#ffff" d="M 35.5,129.5 C 34.7321,131.467 34.7321,133.133 35.5,134.5C 32.9528,133.166 31.2861,133.999 30.5,137C 31.0717,139.074 32.405,140.24 34.5,140.5C 34.0424,141.772 34.7091,142.772 36.5,143.5C 30.1883,145.504 26.5217,143.171 25.5,136.5C 26.712,131.222 30.0454,128.888 35.5,129.5 Z"/></g>
<g><path style="opacity:0.864" fill="#ffff" d="M 154.5,129.5 C 165.132,129.593 167.799,134.093 162.5,143C 153.844,145.677 150.011,142.511 151,133.5C 152.376,132.295 153.542,130.962 154.5,129.5 Z M 156.5,133.5 C 161.289,135.2 161.622,137.533 157.5,140.5C 154.131,138.507 153.798,136.174 156.5,133.5 Z"/></g>
<g><path style="opacity:0.833" fill="#ffff" d="M 167.5,129.5 C 170.684,129.833 174.018,130 177.5,130C 178,130.5 178.5,131 179,131.5C 179.499,135.486 179.666,139.486 179.5,143.5C 178.167,143.5 176.833,143.5 175.5,143.5C 175.664,140.813 175.497,138.146 175,135.5C 174.395,133.519 173.395,133.185 172,134.5C 171.502,137.482 171.335,140.482 171.5,143.5C 169.833,143.5 168.167,143.5 166.5,143.5C 166.226,138.737 166.559,134.07 167.5,129.5 Z"/></g>
<g><path style="opacity:0.861" fill="#ffff" d="M 52.5,129.5 C 54.8356,131.004 56.669,133.004 58,135.5C 58.3981,132.768 59.8981,130.935 62.5,130C 65.9226,130.089 69.2559,130.089 72.5,130C 73.4667,134.401 73.8,138.901 73.5,143.5C 69.815,143.895 66.1483,144.062 62.5,144C 60.3651,143.241 59.0318,141.741 58.5,139.5C 57.675,138.614 56.675,138.281 55.5,138.5C 54.1667,138.5 52.8333,138.5 51.5,138.5C 50.1667,138.5 48.8333,138.5 47.5,138.5C 47.3505,137.448 47.5172,136.448 48,135.5C 49.0665,137.283 50.5665,137.783 52.5,137C 51.5,136.667 50.5,136.333 49.5,136C 51.235,135.349 52.9017,135.515 54.5,136.5C 54.8333,136 55.1667,135.5 55.5,135C 54.259,133.269 53.259,131.436 52.5,129.5 Z M 64.5,133.5 C 69.289,135.2 69.6224,137.533 65.5,140.5C 62.2731,138.438 61.9398,136.105 64.5,133.5 Z"/></g>
<g><path style="opacity:0.785" fill="#ffff" d="M 52.5,129.5 C 53.259,131.436 54.259,133.269 55.5,135C 55.1667,135.5 54.8333,136 54.5,136.5C 52.9017,135.515 51.235,135.349 49.5,136C 50.5,136.333 51.5,136.667 52.5,137C 50.5665,137.783 49.0665,137.283 48,135.5C 47.5172,136.448 47.3505,137.448 47.5,138.5C 49.0018,141.022 50.3351,141.022 51.5,138.5C 52.8333,138.5 54.1667,138.5 55.5,138.5C 56.2416,142.284 54.4083,144.284 50,144.5C 42.8873,143.214 40.7207,139.214 43.5,132.5C 45.9202,129.923 48.9202,128.923 52.5,129.5 Z M 47.5,138.5 C 48.8333,138.5 50.1667,138.5 51.5,138.5C 50.3351,141.022 49.0018,141.022 47.5,138.5 Z"/></g>
<g><path style="opacity:0.772" fill="#ffff" d="M 137.5,129.5 C 137.443,130.609 137.11,131.609 136.5,132.5C 135.829,135.758 134.996,139.091 134,142.5C 129.585,145.55 125.918,144.883 123,140.5C 122.333,137.167 122.333,133.833 123,130.5C 124.333,129.167 125.667,129.167 127,130.5C 128.333,143.833 129.667,143.833 131,130.5C 133.193,130.083 135.359,129.749 137.5,129.5 Z"/></g>
<g><path style="opacity:0.766" fill="#ffff" d="M 144.5,134.5 C 144.875,133.207 145.208,131.874 145.5,130.5C 144.833,130.5 144.5,130.167 144.5,129.5C 144.586,128.504 144.252,127.671 143.5,127C 144.927,124.631 146.761,124.131 149,125.5C 149.221,131.319 149.388,137.319 149.5,143.5C 147.833,143.5 146.167,143.5 144.5,143.5C 144.5,140.5 144.5,137.5 144.5,134.5 Z"/></g>
<g><path style="opacity:0.786" fill="#ffff" d="M 116.5,133.5 C 116.5,136.5 116.5,139.5 116.5,142.5C 115.732,141.737 115.232,140.737 115,139.5C 110.829,145.729 106.163,146.062 101,140.5C 99.3352,132.501 102.502,129.001 110.5,130C 112.667,130.833 114.167,132.333 115,134.5C 115.383,133.944 115.883,133.611 116.5,133.5 Z M 106.5,133.5 C 111.453,135.092 111.786,137.425 107.5,140.5C 104.131,138.507 103.798,136.174 106.5,133.5 Z"/></g>
<g><path style="opacity:0.348" fill="#ffff" d="M 103.5,151.5 C 106.428,151.852 109.262,152.518 112,153.5C 115.841,150.733 119.341,151.066 122.5,154.5C 121.715,157.153 120.215,157.82 118,156.5C 114.667,159.167 111.333,159.167 108,156.5C 105.619,157.435 103.119,157.768 100.5,157.5C 100.028,154.642 101.028,152.642 103.5,151.5 Z"/></g>
<g><path style="opacity:0.452" fill="#ffff" d="M 95.5,150.5 C 98.9869,151.483 100.32,153.817 99.5,157.5C 97.2776,157.822 95.4443,157.155 94,155.5C 93.101,157.368 91.601,158.368 89.5,158.5C 85.8822,157.654 82.2155,157.32 78.5,157.5C 78.5,155.5 78.5,153.5 78.5,151.5C 81.1985,151.466 83.6985,152.133 86,153.5C 88.9569,151.923 91.6236,152.256 94,154.5C 94.4101,153.099 94.9101,151.766 95.5,150.5 Z"/></g>
</svg>
