<?xml version="1.0" encoding="UTF-8"?>
<!DOCTYPE svg PUBLIC "-//W3C//DTD SVG 1.1//EN" "http://www.w3.org/Graphics/SVG/1.1/DTD/svg11.dtd">
<svg xmlns="http://www.w3.org/2000/svg" version="1.1" width="150px" height="200px" style="shape-rendering:geometricPrecision; text-rendering:geometricPrecision; image-rendering:optimizeQuality; fill-rule:evenodd; clip-rule:evenodd" xmlns:xlink="http://www.w3.org/1999/xlink">
<g><path style="opacity:1" fill="#e15a2b" d="M 96.5,78.5 C 94.8333,78.5 93.1667,78.5 91.5,78.5C 90.0271,75.4302 90.8604,73.0969 94,71.5C 97.5053,72.8479 98.3386,75.1812 96.5,78.5 Z"/></g>
<g><path style="opacity:1" fill="#523a64" d="M 113.5,91.5 C 113.665,88.4816 113.498,85.4816 113,82.5C 111.571,82.4698 110.071,82.8031 108.5,83.5C 108.073,80.6239 107.406,77.7906 106.5,75C 107.644,72.34 109.477,71.5067 112,72.5C 114.353,78.8543 114.853,85.1876 113.5,91.5 Z"/></g>
<g><path style="opacity:1" fill="#13acc4" d="M 65.5,85.5 C 66.2674,86.172 66.9341,87.0053 67.5,88C 66.5494,88.7175 66.3828,89.5509 67,90.5C 67.6667,89.1667 68.3333,89.1667 69,90.5C 70.122,92.4068 70.9553,94.4068 71.5,96.5C 69.8639,95.2511 68.6972,93.5844 68,91.5C 67.6174,92.056 67.1174,92.3893 66.5,92.5C 65.391,92.5569 64.391,92.8902 63.5,93.5C 61.5349,91.0139 60.2016,88.1806 59.5,85C 59.5699,84.2352 59.9033,83.7352 60.5,83.5C 65.3352,77.8553 69.6685,78.3553 73.5,85C 72.9747,85.6924 72.3081,86.1924 71.5,86.5C 70.2092,84.9029 68.7092,83.5696 67,82.5C 66.228,82.6448 65.5613,82.9781 65,83.5C 64.2966,85.3507 64.4632,86.0174 65.5,85.5 Z"/></g>
<g><path style="opacity:1" fill="#f7b83d" d="M 136.5,85.5 C 135.686,87.631 135.186,89.9644 135,92.5C 134.439,91.9781 133.772,91.6448 133,91.5C 130.272,95.2122 126.772,96.2122 122.5,94.5C 121.702,94.0431 121.369,93.3764 121.5,92.5C 127.328,95.6709 130.494,94.0042 131,87.5C 128.761,83.3076 125.761,82.6409 122,85.5C 120.991,87.0249 120.491,88.6916 120.5,90.5C 120.725,94.0562 119.892,94.3895 118,91.5C 116.97,91.8361 116.47,92.5028 116.5,93.5C 114.32,81.5146 119.32,76.6813 131.5,79C 133.765,80.7581 135.432,82.9248 136.5,85.5 Z M 121.5,92.5 C 121.672,91.5084 121.338,90.8417 120.5,90.5C 120.491,88.6916 120.991,87.0249 122,85.5C 125.761,82.6409 128.761,83.3076 131,87.5C 130.494,94.0042 127.328,95.6709 121.5,92.5 Z"/></g>
<g><path style="opacity:1" fill="#2cb1c4" d="M 80.5,93.5 C 81.8845,94.8009 83.3845,94.8009 85,93.5C 85.1667,93.8333 85.3333,94.1667 85.5,94.5C 79.6034,96.1413 76.1034,93.8079 75,87.5C 73.6439,88.3802 72.1439,88.7135 70.5,88.5C 69.343,86.8624 68.1764,85.1957 67,83.5C 66.2828,84.0442 65.7828,84.7109 65.5,85.5C 64.4632,86.0174 64.2966,85.3507 65,83.5C 65.5613,82.9781 66.228,82.6448 67,82.5C 68.7092,83.5696 70.2092,84.9029 71.5,86.5C 72.3081,86.1924 72.9747,85.6924 73.5,85C 69.6685,78.3553 65.3352,77.8553 60.5,83.5C 63.3731,76.416 67.5398,75.7493 73,81.5C 75.2746,85.7324 77.7746,89.7324 80.5,93.5 Z"/></g>
<g><path style="opacity:1" fill="#19acc4" d="M 92.5,83.5 C 90.1925,84.7633 88.8592,86.7633 88.5,89.5C 89.9083,95.0352 93.2416,96.5352 98.5,94C 99.2106,92.7453 100.044,91.5786 101,90.5C 101.71,91.9733 102.876,92.6399 104.5,92.5C 103.386,95.4488 101.386,97.6155 98.5,99C 91.1735,100.941 83.8402,100.941 76.5,99C 74.0969,95.6894 72.0969,92.1894 70.5,88.5C 72.1439,88.7135 73.6439,88.3802 75,87.5C 76.1034,93.8079 79.6034,96.1413 85.5,94.5C 85.3333,94.1667 85.1667,93.8333 85,93.5C 83.3845,94.8009 81.8845,94.8009 80.5,93.5C 82.1788,93.7148 83.1788,93.0481 83.5,91.5C 83.946,83.3899 88.2793,79.3899 96.5,79.5C 96.5,80.5 96.5,81.5 96.5,82.5C 94.901,82.2322 93.5676,82.5655 92.5,83.5 Z"/></g>
<g><path style="opacity:1" fill="#3c2d63" d="M 113.5,91.5 C 113.345,95.6358 112.011,99.3025 109.5,102.5C 108.833,102.167 108.167,101.833 107.5,101.5C 106.645,100.469 105.978,99.3026 105.5,98C 107.921,93.4661 108.921,88.6327 108.5,83.5C 110.071,82.8031 111.571,82.4698 113,82.5C 113.498,85.4816 113.665,88.4816 113.5,91.5 Z"/></g>
<g><path style="opacity:1" fill="#ed6827" d="M 153.5,97.5 C 152.834,94.3107 152.167,90.9773 151.5,87.5C 150.117,90.0756 149.283,89.7423 149,86.5C 148.661,88.8344 148.828,91.1678 149.5,93.5C 149.564,95.5566 148.898,97.2233 147.5,98.5C 148.006,92.5447 147.006,86.8781 144.5,81.5C 145.549,79.8877 147.049,78.8877 149,78.5C 151.093,80.3475 152.426,82.6808 153,85.5C 154.189,89.5311 154.356,93.5311 153.5,97.5 Z"/></g>
<g><path style="opacity:1" fill="#32afc4" d="M 91.5,78.5 C 93.1667,78.5 94.8333,78.5 96.5,78.5C 103.802,80.4773 106.469,85.144 104.5,92.5C 102.876,92.6399 101.71,91.9733 101,90.5C 100.044,91.5786 99.2106,92.7453 98.5,94C 93.2416,96.5352 89.9083,95.0352 88.5,89.5C 90.6616,93.3969 93.8283,94.3969 98,92.5C 100.289,87.0866 98.4557,84.0866 92.5,83.5C 93.5676,82.5655 94.901,82.2322 96.5,82.5C 96.5,81.5 96.5,80.5 96.5,79.5C 88.2793,79.3899 83.946,83.3899 83.5,91.5C 82.4043,84.6682 85.071,80.3349 91.5,78.5 Z M 92.5,83.5 C 98.4557,84.0866 100.289,87.0866 98,92.5C 93.8283,94.3969 90.6616,93.3969 88.5,89.5C 88.8592,86.7633 90.1925,84.7633 92.5,83.5 Z"/></g>
<g><path style="opacity:1" fill="#2dafc5" d="M 63.5,93.5 C 64.391,92.8902 65.391,92.5569 66.5,92.5C 66.0472,93.4584 65.3805,94.2917 64.5,95C 61.1064,95.7517 57.773,95.5851 54.5,94.5C 52.5121,95.2888 52.1787,96.4555 53.5,98C 59.0158,98.1733 64.3491,98.6733 69.5,99.5C 63.0478,99.9155 56.7145,99.4155 50.5,98C 45.3851,92.6052 45.2184,87.1052 50,81.5C 52.164,81.6659 53.3306,82.8326 53.5,85C 52.4074,87.7337 52.4074,90.4004 53.5,93C 56.8168,93.4983 60.1501,93.665 63.5,93.5 Z"/></g>
<g><path style="opacity:1" fill="#f7b239" d="M 136.5,85.5 C 138.345,98.1385 133.012,105.805 120.5,108.5C 118.717,106.977 118.051,104.977 118.5,102.5C 127.239,102.108 127.572,100.608 119.5,98C 117.859,96.871 116.859,95.371 116.5,93.5C 116.47,92.5028 116.97,91.8361 118,91.5C 119.892,94.3895 120.725,94.0562 120.5,90.5C 121.338,90.8417 121.672,91.5084 121.5,92.5C 121.369,93.3764 121.702,94.0431 122.5,94.5C 126.772,96.2122 130.272,95.2122 133,91.5C 133.772,91.6448 134.439,91.9781 135,92.5C 135.186,89.9644 135.686,87.631 136.5,85.5 Z"/></g>
<g><path style="opacity:1" fill="#09acc6" d="M 71.5,96.5 C 71.9382,96.4346 72.2716,96.6012 72.5,97C 71.9221,98.417 70.9221,99.2504 69.5,99.5C 64.3491,98.6733 59.0158,98.1733 53.5,98C 52.1787,96.4555 52.5121,95.2888 54.5,94.5C 57.773,95.5851 61.1064,95.7517 64.5,95C 65.3805,94.2917 66.0472,93.4584 66.5,92.5C 67.1174,92.3893 67.6174,92.056 68,91.5C 68.6972,93.5844 69.8639,95.2511 71.5,96.5 Z"/></g>
<g><path style="opacity:1" fill="#ec571e" d="M 153.5,97.5 C 152.839,102.33 150.172,105.497 145.5,107C 142.167,107.667 138.833,107.667 135.5,107C 134.306,104.556 134.806,102.389 137,100.5C 140.907,102.043 144.407,101.376 147.5,98.5C 148.898,97.2233 149.564,95.5566 149.5,93.5C 148.828,91.1678 148.661,88.8344 149,86.5C 149.283,89.7423 150.117,90.0756 151.5,87.5C 152.167,90.9773 152.834,94.3107 153.5,97.5 Z"/></g>
<g><path style="opacity:0.722" fill="#3b3c65" d="M 107.5,101.5 C 108.167,101.833 108.833,102.167 109.5,102.5C 111.71,103.455 112.043,104.955 110.5,107C 95.7552,107.367 81.0886,107.7 66.5,108C 65.7865,106.657 66.1198,105.324 67.5,104C 69.3553,103.578 71.1886,103.078 73,102.5C 74.1685,103.009 75.0019,103.842 75.5,105C 84.5185,105.832 93.5185,105.665 102.5,104.5C 104.396,103.725 106.063,102.725 107.5,101.5 Z"/></g>
<g><path style="opacity:0.078" fill="#f0af42" d="M 54.5,102.5 C 56.451,102.227 57.951,102.893 59,104.5C 61.1277,101.826 62.961,101.993 64.5,105C 63.0316,109.475 61.1983,109.641 59,105.5C 57.0188,109.361 55.1855,109.361 53.5,105.5C 53.685,104.416 54.0183,103.416 54.5,102.5 Z"/></g>
<g><path style="opacity:1" fill="#463d6b" d="M 109.5,110.5 C 123.01,110.171 136.344,110.504 149.5,111.5C 147.735,112.461 145.735,112.795 143.5,112.5C 143.802,115.059 143.468,117.393 142.5,119.5C 142.481,112.469 141.981,112.136 141,118.5C 140.177,111.866 139.677,111.866 139.5,118.5C 137.446,118.635 135.779,117.968 134.5,116.5C 136.041,115.333 137.375,114 138.5,112.5C 128.833,111.833 119.167,111.167 109.5,110.5 Z"/></g>
<g><path style="opacity:1" fill="#4a3969" d="M 67.5,110.5 C 67.8417,111.338 68.5084,111.672 69.5,111.5C 69.8333,112.167 70.1667,112.833 70.5,113.5C 70.1667,113.5 69.8333,113.5 69.5,113.5C 68.6618,113.842 68.3284,114.508 68.5,115.5C 66.8008,115.34 65.1341,115.506 63.5,116C 65.0441,116.29 66.3774,116.956 67.5,118C 65.5273,118.495 63.5273,118.662 61.5,118.5C 61.69,116.041 60.69,114.374 58.5,113.5C 56.6136,112.451 53.2802,112.118 48.5,112.5C 48.9175,111.778 49.5842,111.278 50.5,111C 56.1569,110.501 61.8236,110.334 67.5,110.5 Z"/></g>
<g><path style="opacity:1" fill="#37376a" d="M 67.5,110.5 C 81.5,110.5 95.5,110.5 109.5,110.5C 119.167,111.167 128.833,111.833 138.5,112.5C 133.833,112.5 129.167,112.5 124.5,112.5C 114.833,112.5 105.167,112.5 95.5,112.5C 95.3505,113.552 95.5172,114.552 96,115.5C 96.9772,114.226 97.8106,114.226 98.5,115.5C 98.3491,118.718 97.5158,119.051 96,116.5C 96.284,118.679 96.1174,120.679 95.5,122.5C 91.6707,123.069 88.3373,122.402 85.5,120.5C 88.5,120.5 91.5,120.5 94.5,120.5C 94.8076,118.076 94.4742,115.743 93.5,113.5C 92.7022,115.078 92.2022,116.744 92,118.5C 91.7645,116.881 90.9311,115.881 89.5,115.5C 90.8062,114.533 91.4729,113.199 91.5,111.5C 84.1667,111.5 76.8333,111.5 69.5,111.5C 68.5084,111.672 67.8417,111.338 67.5,110.5 Z"/></g>
<g><path style="opacity:1" fill="#2a2461" d="M 124.5,112.5 C 129.167,112.5 133.833,112.5 138.5,112.5C 137.375,114 136.041,115.333 134.5,116.5C 134.631,117.239 134.464,117.906 134,118.5C 132.886,114.544 132.053,114.544 131.5,118.5C 124.978,118.823 118.645,118.49 112.5,117.5C 116.514,117.666 120.514,117.499 124.5,117C 120.736,115.579 120.736,114.079 124.5,112.5 Z"/></g>
<g><path style="opacity:1" fill="#362e65" d="M 69.5,111.5 C 76.8333,111.5 84.1667,111.5 91.5,111.5C 91.4729,113.199 90.8062,114.533 89.5,115.5C 89.5875,118.598 89.0875,118.932 88,116.5C 87.6667,117.167 87.3333,117.833 87,118.5C 85.8861,114.544 85.0527,114.544 84.5,118.5C 81.1667,118.5 77.8333,118.5 74.5,118.5C 73.9965,114.665 72.9965,114.665 71.5,118.5C 70.5481,116.955 70.2148,115.288 70.5,113.5C 70.1667,112.833 69.8333,112.167 69.5,111.5 Z"/></g>
<g><path style="opacity:1" fill="#242763" d="M 124.5,112.5 C 120.736,114.079 120.736,115.579 124.5,117C 120.514,117.499 116.514,117.666 112.5,117.5C 111.918,116.069 111.085,114.736 110,113.5C 109,115.167 108,116.833 107,118.5C 106.667,117.5 106.333,116.5 106,115.5C 105.506,117.134 105.34,118.801 105.5,120.5C 103.8,120.626 102.3,121.293 101,122.5C 100.5,122.167 100,121.833 99.5,121.5C 101.052,119.065 100.719,117.065 98.5,115.5C 97.8106,114.226 96.9772,114.226 96,115.5C 95.5172,114.552 95.3505,113.552 95.5,112.5C 105.167,112.5 114.833,112.5 124.5,112.5 Z"/></g>
<g><path style="opacity:1" fill="#372a5f" d="M 149.5,111.5 C 152.525,112.033 153.858,113.867 153.5,117C 153.876,119.655 152.876,121.488 150.5,122.5C 147.72,121.922 145.053,121.255 142.5,120.5C 142.5,120.167 142.5,119.833 142.5,119.5C 143.468,117.393 143.802,115.059 143.5,112.5C 145.735,112.795 147.735,112.461 149.5,111.5 Z"/></g>
<g><path style="opacity:1" fill="#3e2d61" d="M 48.5,112.5 C 53.2802,112.118 56.6136,112.451 58.5,113.5C 57.0762,115.515 56.4095,117.848 56.5,120.5C 58.1667,120.5 59.8333,120.5 61.5,120.5C 59.7512,121.985 57.7512,122.985 55.5,123.5C 47.3175,123.461 44.9842,119.794 48.5,112.5 Z"/></g>
<g><path style="opacity:1" fill="#94869d" d="M 58.5,113.5 C 60.69,114.374 61.69,116.041 61.5,118.5C 63.5273,118.662 65.5273,118.495 67.5,118C 66.3774,116.956 65.0441,116.29 63.5,116C 65.1341,115.506 66.8008,115.34 68.5,115.5C 68.5,117.167 68.5,118.833 68.5,120.5C 66.1667,120.5 63.8333,120.5 61.5,120.5C 59.8333,120.5 58.1667,120.5 56.5,120.5C 56.4095,117.848 57.0762,115.515 58.5,113.5 Z"/></g>
<g><path style="opacity:1" fill="#938aa1" d="M 69.5,113.5 C 69.8333,113.5 70.1667,113.5 70.5,113.5C 70.2148,115.288 70.5481,116.955 71.5,118.5C 72.9965,114.665 73.9965,114.665 74.5,118.5C 77.8333,118.5 81.1667,118.5 84.5,118.5C 85.0527,114.544 85.8861,114.544 87,118.5C 87.3333,117.833 87.6667,117.167 88,116.5C 89.0875,118.932 89.5875,118.598 89.5,115.5C 90.9311,115.881 91.7645,116.881 92,118.5C 92.2022,116.744 92.7022,115.078 93.5,113.5C 94.4742,115.743 94.8076,118.076 94.5,120.5C 91.5,120.5 88.5,120.5 85.5,120.5C 80.9014,120.2 76.4014,120.533 72,121.5C 69.8349,119.347 69.0016,116.681 69.5,113.5 Z"/></g>
<g><path style="opacity:1" fill="#8b87a2" d="M 112.5,117.5 C 118.645,118.49 124.978,118.823 131.5,118.5C 132.053,114.544 132.886,114.544 134,118.5C 134.464,117.906 134.631,117.239 134.5,116.5C 135.779,117.968 137.446,118.635 139.5,118.5C 139.677,111.866 140.177,111.866 141,118.5C 141.981,112.136 142.481,112.469 142.5,119.5C 142.5,119.833 142.5,120.167 142.5,120.5C 130.5,120.5 118.5,120.5 106.5,120.5C 106.167,120.5 105.833,120.5 105.5,120.5C 105.34,118.801 105.506,117.134 106,115.5C 106.333,116.5 106.667,117.5 107,118.5C 108,116.833 109,115.167 110,113.5C 111.085,114.736 111.918,116.069 112.5,117.5 Z"/></g>
<g><path style="opacity:1" fill="#2d265d" d="M 106.5,120.5 C 118.5,120.5 130.5,120.5 142.5,120.5C 145.053,121.255 147.72,121.922 150.5,122.5C 135.342,123.496 120.009,123.83 104.5,123.5C 105.167,122.5 105.833,121.5 106.5,120.5 Z"/></g>
<g><path style="opacity:0.776" fill="#574065" d="M 69.5,113.5 C 69.0016,116.681 69.8349,119.347 72,121.5C 76.4014,120.533 80.9014,120.2 85.5,120.5C 88.3373,122.402 91.6707,123.069 95.5,122.5C 95.5,122.833 95.5,123.167 95.5,123.5C 82.1667,123.5 68.8333,123.5 55.5,123.5C 57.7512,122.985 59.7512,121.985 61.5,120.5C 63.8333,120.5 66.1667,120.5 68.5,120.5C 68.5,118.833 68.5,117.167 68.5,115.5C 68.3284,114.508 68.6618,113.842 69.5,113.5 Z"/></g>
<g><path style="opacity:0.886" fill="#636387" d="M 98.5,115.5 C 100.719,117.065 101.052,119.065 99.5,121.5C 100,121.833 100.5,122.167 101,122.5C 102.3,121.293 103.8,120.626 105.5,120.5C 105.833,120.5 106.167,120.5 106.5,120.5C 105.833,121.5 105.167,122.5 104.5,123.5C 101.5,123.5 98.5,123.5 95.5,123.5C 95.5,123.167 95.5,122.833 95.5,122.5C 96.1174,120.679 96.284,118.679 96,116.5C 97.5158,119.051 98.3491,118.718 98.5,115.5 Z"/></g>
</svg>
