<svg width="30" height="30" viewBox="0 0 30 30" fill="none" xmlns="http://www.w3.org/2000/svg">
<path d="M15 0C23.2843 0 30 6.71573 30 15C30 23.2843 23.2843 30 15 30C6.71573 30 0 23.2843 0 15C0 6.71573 6.71573 0 15 0ZM22.9033 7.0957C21.927 6.11988 20.3443 6.11955 19.3682 7.0957L14.999 11.4639L10.6309 7.0957C9.65452 6.11975 8.0719 6.11951 7.0957 7.0957C6.11951 8.0719 6.11975 9.65452 7.0957 10.6309L11.4639 14.999L7.0957 19.3682C6.11955 20.3443 6.11988 21.927 7.0957 22.9033C8.07201 23.8796 9.65455 23.8796 10.6309 22.9033L14.999 18.5342L19.3682 22.9033C20.3445 23.8796 21.927 23.8796 22.9033 22.9033C23.8796 21.927 23.8796 20.3445 22.9033 19.3682L18.5342 14.999L22.9033 10.6309C23.8796 9.65455 23.8796 8.07201 22.9033 7.0957Z" fill="#EB5353"/>
</svg>
