<svg width="30" height="34" viewBox="0 0 30 34" fill="none" xmlns="http://www.w3.org/2000/svg">
<path fill-rule="evenodd" clip-rule="evenodd" d="M17.7202 0.0915535C17.4937 0.205634 17.3095 0.43456 17.1954 0.743734C17.031 1.18951 17.0617 9.88344 17.229 10.2752C17.4375 10.7632 17.7056 10.9125 18.451 10.9557C19.1013 10.9935 19.241 11.0481 19.511 11.3705C19.7326 11.6351 19.7673 11.8308 19.7991 12.998L19.8304 14.1438L22.1458 12.5664L24.4612 10.989L26.8984 10.9558L29.3357 10.9227L29.5558 10.7323C30.0324 10.3203 30.0001 10.7025 29.9993 5.4768L29.9985 0.827976L29.8664 0.563687C29.7923 0.415433 29.6318 0.233602 29.501 0.149699L29.2677 0L23.5819 0.00144513C18.9729 0.00272025 17.8627 0.0197218 17.7202 0.0915535ZM28.1878 2.64918C28.3707 2.85635 28.4009 3.03912 28.291 3.27297C28.1422 3.58954 28.292 3.57968 23.5646 3.58198L19.0923 3.5841L18.9485 3.42106C18.7075 3.14801 18.7653 2.71957 19.0684 2.5317C19.1502 2.48104 20.5184 2.45851 23.6011 2.45707L28.0165 2.45503L28.1878 2.64918ZM1.93447 5.01776C0.796795 5.66016 0.729193 7.48741 1.8148 8.25205L2.09871 8.45199V10.3404C2.09871 11.379 2.12092 12.2188 2.14801 12.2066C2.17517 12.1945 2.42577 11.9116 2.70488 11.5781L3.21246 10.9717V9.70331V8.4349L3.43627 8.30552C4.36364 7.76946 4.58183 6.32569 3.87055 5.43175C3.39883 4.83882 2.5666 4.6609 1.93447 5.01776ZM22.295 5.07531C22.4531 5.25451 22.4867 5.59989 22.3637 5.78138C22.2024 6.01949 22.0563 6.04134 20.6217 6.04134C19.1872 6.04134 19.0411 6.01949 18.8798 5.78138C18.7567 5.59989 18.7903 5.25451 18.9485 5.07531L19.0923 4.91235H20.6217H22.1511L22.295 5.07531ZM26.48 7.40078C26.796 7.58585 26.8267 8.04259 26.5426 8.33255C26.4155 8.46236 26.3301 8.46534 22.7599 8.46534H19.1071L18.9558 8.30433C18.7325 8.06656 18.7452 7.70367 18.985 7.47508L19.1653 7.30319H22.7394C25.7688 7.30319 26.3388 7.31799 26.48 7.40078ZM10.393 8.54065C3.85884 9.65766 -0.135301 15.1788 0.00350392 22.9021C0.137732 30.3723 4.00613 34.0026 11.8292 34C17.1268 33.9982 20.5396 32.3045 22.3101 28.7986C23.9165 25.6175 24.0381 20.6354 22.6057 16.6883C22.3671 16.0308 21.6671 14.509 21.5339 14.358C21.5172 14.3391 21.2063 14.5265 20.8428 14.7744C20.0569 15.3104 19.7924 15.3761 19.3645 15.1414C18.8699 14.8702 18.7809 14.5925 18.7548 13.2371L18.7329 12.0971L18.1972 12.0737C17.018 12.022 16.1936 11.1413 16.1208 9.85539L16.0928 9.36294L15.4623 9.13197C14.0792 8.62541 11.5934 8.33545 10.393 8.54065ZM12.6543 11.15C12.8668 11.3907 12.8728 11.6128 12.6739 11.8805L12.5222 12.0849H11.8077C10.8843 12.0849 10.6166 11.8943 10.7825 11.3553C10.9233 10.8979 12.2987 10.7471 12.6543 11.15ZM13.4834 12.8183C13.8794 12.943 14.0024 13.3783 13.7394 13.7249L13.598 13.9112L11.8489 13.9291C10.2027 13.946 10.0891 13.9394 9.91503 13.8177C9.55759 13.5678 9.62692 12.9541 10.0274 12.8231C10.2909 12.7368 13.2117 12.7328 13.4834 12.8183ZM17.5835 15.4184C24.6548 17.614 23.7292 29.0238 16.4258 29.6902C15.3891 29.7848 6.88998 29.7293 6.42261 29.6249C0.328534 28.2632 -0.852363 19.1144 4.66129 15.9787C5.99689 15.219 6.04784 15.2139 12.005 15.2293L17.0168 15.2423L17.5835 15.4184ZM6.84668 16.402C1.0549 17.205 0.413243 26.3501 6.0092 28.3388L6.52428 28.5219H11.7413C16.9297 28.5219 16.9607 28.5212 17.4271 28.3762C22.7685 26.7172 22.7587 18.2004 17.4135 16.5498L16.8409 16.3731L12.0343 16.3611C9.39065 16.3546 7.05624 16.3729 6.84668 16.402ZM6.4404 19.5607C8.78426 20.3271 8.3169 24.2051 5.88075 24.2051C3.4347 24.2051 3.00185 20.3941 5.35194 19.5498C5.67547 19.4335 6.0633 19.4374 6.4404 19.5607ZM18.2855 19.5897C19.7584 20.1161 20.2608 22.1463 19.2373 23.4362C18.4334 24.4491 17.0311 24.4904 16.18 23.5262C14.6629 21.8073 16.2401 18.8587 18.2855 19.5897ZM5.60194 20.6488C4.43275 21.0689 4.57395 22.9617 5.78426 23.0935C7.21005 23.2487 7.41466 20.8288 5.99307 20.6244C5.86612 20.6062 5.6901 20.6171 5.60194 20.6488ZM17.3179 20.6799C16.2278 21.1347 16.3975 22.9464 17.5439 23.0928C18.2914 23.1883 18.8099 22.5578 18.7326 21.6473C18.6702 20.9111 17.9479 20.4171 17.3179 20.6799ZM13.7938 25.1897C14.2276 25.8915 12.8304 26.7998 11.5114 26.6733C10.2137 26.5489 9.25199 25.5927 9.90415 25.0752C10.1046 24.9161 10.2393 24.9424 10.747 25.24L11.2094 25.5111L11.827 25.4869C12.4585 25.4621 12.5449 25.4342 13.1061 25.0727C13.3912 24.8891 13.6334 24.9303 13.7938 25.1897Z" fill="black"/>
</svg>
