<svg width="313" height="295" viewBox="0 0 313 295" fill="none" xmlns="http://www.w3.org/2000/svg">
<path d="M234.813 239.619C234.712 240.162 234.674 240.722 234.683 241.273C234.705 242.559 234.939 243.835 234.973 245.121C235.047 247.975 233.288 250.149 234.14 253.113C234.53 254.467 235.99 257.016 237.621 256.979C239.245 256.943 240.246 255.182 240.714 253.875C241.424 251.891 242.104 250.077 243.11 248.202C243.595 247.296 244.069 246.365 244.452 245.408C240.938 243.85 237.799 242.007 235.56 240.263C235.295 240.055 235.048 239.84 234.813 239.619Z" fill="#272727"/>
<path d="M271.097 243.162C271.491 243.585 271.875 244.018 272.277 244.433C273.424 245.617 274.898 246.865 276.512 246.535C277.849 246.261 278.762 244.909 278.907 243.553C279.052 242.197 278.579 240.851 277.993 239.618C276.573 236.62 274.472 234.014 272.15 231.666C272.216 232.321 272.281 232.978 272.329 233.637C272.562 236.796 272.323 240.313 271.097 243.162Z" fill="#272727"/>
<path d="M272.809 252.229C272.348 249.629 271.404 247.155 270.222 244.802C269.45 245.986 268.445 246.983 267.137 247.676C265.855 248.354 264.407 248.782 262.852 249.01C263.833 251.165 264.883 253.29 266.024 255.366C266.817 256.81 267.908 258.402 269.552 258.509C270.915 258.597 272.153 257.534 272.651 256.265C273.149 254.995 273.047 253.572 272.809 252.229Z" fill="#272727"/>
<path d="M252.725 248.252C252.77 248.466 252.816 248.679 252.865 248.892C253.44 251.464 254.123 254.012 254.912 256.528C255.404 258.099 256.16 259.875 257.751 260.304C259.068 260.659 260.493 259.861 261.231 258.713C261.969 257.567 262.151 256.152 262.183 254.788C262.227 252.888 262.008 251.004 261.627 249.149C258.852 249.364 255.793 248.995 252.725 248.252Z" fill="#272727"/>
<path d="M230.277 171.476C230.666 174.599 230.582 177.782 230.001 180.876C229.442 183.849 228.734 186.851 228.827 189.897C228.99 195.238 231.951 201.166 234.114 205.977C234.683 207.244 235.279 208.51 235.905 209.77C240.46 218.939 246.574 227.73 255.191 233.371C257.363 234.789 259.769 236.024 262.361 236.148C265.099 236.28 267.777 235.138 269.976 233.502C270.52 233.097 271.267 232.239 272.113 231.277C269.35 205.452 252.687 182.169 232.152 166.884C231.611 166.481 230.998 166.032 230.34 165.579C230.744 167.455 230.641 169.492 230.277 171.476Z" fill="#EBF2E5"/>
<path d="M270.222 244.802C270.557 244.288 270.848 243.741 271.097 243.162C272.323 240.313 272.562 236.796 272.329 233.637C272.281 232.978 272.216 232.321 272.15 231.666C272.137 231.536 272.128 231.406 272.113 231.277C271.267 232.239 270.52 233.097 269.976 233.502C267.777 235.139 265.099 236.28 262.361 236.148C259.769 236.024 257.363 234.789 255.191 233.371C246.574 227.73 240.46 218.939 235.905 209.77C235.279 208.51 234.683 207.244 234.114 205.977C231.951 201.166 228.99 195.238 228.827 189.897C228.734 186.851 229.442 183.849 230.001 180.876C230.582 177.782 230.666 174.599 230.277 171.476C230.262 171.56 230.248 171.645 230.231 171.729C230.067 172.574 229.858 173.408 229.619 174.214C229.509 174.589 229.388 174.961 229.267 175.334C229.338 175.892 229.35 176.456 229.299 177.001C229.084 179.327 228.025 181.475 227.241 183.675C225.936 187.34 225.55 191.067 225.674 194.807C225.847 200.002 227.006 205.224 228.052 210.341C231.126 225.373 239.471 239.469 252.251 248.133C252.409 248.174 252.567 248.214 252.725 248.252C255.793 248.994 258.852 249.363 261.627 249.149C262.043 249.117 262.449 249.068 262.852 249.009C264.407 248.782 265.855 248.354 267.137 247.675C268.445 246.983 269.45 245.986 270.222 244.802Z" fill="#C6CAD6"/>
<path d="M228.051 210.341C227.005 205.225 225.847 200.002 225.674 194.807C225.55 191.067 225.936 187.341 227.241 183.675C228.024 181.475 229.084 179.327 229.299 177.001C229.35 176.456 229.338 175.892 229.267 175.334C227.146 181.871 223.536 187.92 218.793 192.895C218.291 195.19 217.719 197.471 217.09 199.74C219.509 203.864 221.724 208.107 223.724 212.449C223.793 212.601 223.863 212.753 223.933 212.906C226.161 217.788 228.118 222.794 229.79 227.892C231.182 232.134 231.55 236.537 234.813 239.619C235.048 239.84 235.295 240.056 235.56 240.262C237.798 242.007 240.938 243.85 244.452 245.407C246.925 246.504 249.585 247.455 252.251 248.134C239.471 239.469 231.126 225.374 228.051 210.341Z" fill="#A1A8C3"/>
<path d="M221.511 158.828C222.789 162.065 223.526 165.516 223.683 168.993C223.716 169.75 223.732 170.542 224.102 171.204C224.407 171.749 225.034 172.054 225.777 172.201C227.127 172.468 228.864 172.213 229.762 171.929C229.92 171.878 230.075 171.808 230.231 171.729C230.248 171.645 230.262 171.56 230.277 171.476C230.641 169.492 230.744 167.455 230.34 165.579C230.062 164.294 229.551 163.083 228.723 162.02C227.032 159.851 224.242 158.756 221.474 158.79C221.476 158.823 221.479 158.856 221.48 158.888C221.491 158.868 221.501 158.848 221.511 158.828Z" fill="#383838"/>
<path d="M225.777 172.201C225.034 172.054 224.407 171.749 224.102 171.204C223.732 170.542 223.716 169.75 223.683 168.993C223.526 165.516 222.789 162.065 221.511 158.828C221.501 158.848 221.491 158.868 221.48 158.887C221.532 159.775 221.583 160.663 221.616 161.551C221.745 165.061 221.721 168.575 221.551 172.083C221.409 175.022 221.172 177.957 220.822 180.881C220.341 184.909 219.661 188.919 218.793 192.895C223.536 187.92 227.147 181.871 229.267 175.334C229.388 174.961 229.508 174.589 229.619 174.214C229.858 173.408 230.067 172.574 230.231 171.729C230.075 171.808 229.92 171.878 229.762 171.928C228.864 172.212 227.127 172.468 225.777 172.201Z" fill="#272727"/>
<path d="M77.3334 240.262C75.0951 242.007 71.9559 243.85 68.4419 245.407C68.8252 246.365 69.2991 247.296 69.7843 248.202C70.7899 250.077 71.4698 251.89 72.1798 253.874C72.6477 255.182 73.6487 256.943 75.2732 256.979C76.9043 257.016 78.3648 254.466 78.7537 253.112C79.6048 250.149 77.8466 247.974 77.921 245.12C77.9551 243.835 78.189 242.559 78.2108 241.273C78.2198 240.722 78.1817 240.162 78.0804 239.618C77.8459 239.84 77.5991 240.055 77.3334 240.262Z" fill="#272727"/>
<path d="M40.5642 233.637C40.6129 232.978 40.6778 232.321 40.7444 231.666C38.4228 234.014 36.3216 236.62 34.9003 239.618C34.3155 240.851 33.8421 242.197 33.9871 243.553C34.1315 244.909 35.0452 246.261 36.3821 246.535C37.9969 246.866 39.4698 245.617 40.6164 244.433C41.0188 244.019 41.4025 243.585 41.797 243.162C40.5704 240.313 40.332 236.796 40.5642 233.637Z" fill="#272727"/>
<path d="M42.672 244.802C41.4908 247.155 40.5462 249.629 40.0851 252.229C39.8467 253.572 39.7454 254.995 40.2434 256.265C40.7409 257.534 41.9791 258.597 43.3411 258.509C44.9856 258.402 46.0769 256.81 46.8704 255.366C48.0108 253.29 49.0617 251.165 50.0431 249.01C48.4875 248.782 47.0387 248.354 45.7573 247.676C44.4486 246.983 43.4441 245.986 42.672 244.802Z" fill="#272727"/>
<path d="M51.2671 249.149C50.8855 251.004 50.6672 252.888 50.7108 254.788C50.7428 256.152 50.924 257.567 51.6626 258.713C52.4012 259.861 53.8254 260.659 55.1426 260.304C56.7339 259.875 57.4894 258.099 57.9818 256.528C58.7708 254.012 59.4539 251.464 60.0298 248.892C60.0774 248.679 60.1232 248.466 60.1692 248.252C57.1016 248.995 54.042 249.364 51.2671 249.149Z" fill="#272727"/>
<path d="M43.3547 233.521C45.5533 235.158 48.2314 236.299 50.9699 236.168C53.5612 236.044 55.968 234.808 58.1396 233.39C66.7564 227.749 72.8697 218.959 77.4257 209.79C78.0513 208.53 78.6478 207.264 79.2169 205.997C81.3797 201.186 84.3398 195.258 84.5031 189.916C84.5965 186.87 83.8881 183.869 83.3292 180.896C82.834 178.259 82.7069 175.558 82.9173 172.884C82.3282 170.473 82.0546 167.903 82.5542 165.579C81.8955 166.032 81.2829 166.481 80.7424 166.883C60.3182 182.086 43.727 205.2 40.8284 230.857C41.8344 231.991 42.7297 233.056 43.3547 233.521Z" fill="#EBF2E5"/>
<path d="M85.2792 210.361C86.3256 205.244 87.484 200.023 87.6569 194.826C87.7811 191.087 87.395 187.36 86.0896 183.695C85.3056 181.494 84.247 179.346 84.0309 177.021C84.013 176.825 84.003 176.628 83.9996 176.43C83.741 175.697 83.4955 174.959 83.2743 174.214C83.1578 173.82 83.0504 173.417 82.9492 173.011C82.9387 172.969 82.928 172.927 82.9173 172.884C82.7069 175.558 82.8339 178.259 83.3291 180.896C83.8881 183.869 84.5966 186.87 84.5031 189.916C84.3396 195.258 81.3795 201.186 79.2169 205.997C78.6478 207.264 78.0513 208.53 77.4257 209.79C72.8696 218.959 66.7565 227.749 58.1396 233.39C55.9679 234.808 53.5612 236.044 50.9698 236.168C48.2313 236.299 45.5531 235.158 43.3547 233.521C42.7297 233.056 41.8344 231.991 40.8282 230.857C40.7974 231.126 40.7716 231.396 40.7442 231.666C40.6776 232.321 40.6127 232.978 40.564 233.637C40.3318 236.796 40.5702 240.313 41.7967 243.162C42.0457 243.741 42.3368 244.288 42.6718 244.802C43.4441 245.986 44.4484 246.983 45.7573 247.676C47.0386 248.354 48.4875 248.782 50.043 249.01C50.4442 249.068 50.8511 249.117 51.2668 249.149C54.0417 249.364 57.1013 248.995 60.169 248.252C60.5791 248.152 60.9888 248.046 61.3984 247.934C73.9977 239.251 82.2313 225.267 85.2792 210.361Z" fill="#C6CAD6"/>
<path d="M83.9997 176.43C84.003 176.628 84.0132 176.825 84.0311 177.021C84.2471 179.346 85.3057 181.494 86.0897 183.695C87.3952 187.36 87.7814 191.087 87.657 194.826C87.4841 200.023 86.3258 205.244 85.2794 210.361C82.2314 225.267 73.9979 239.251 61.3987 247.934C63.8099 247.273 66.202 246.399 68.442 245.407C71.956 243.85 75.0952 242.007 77.3335 240.262C77.5992 240.056 77.846 239.84 78.0805 239.619C81.3439 236.537 81.7132 232.134 83.1037 227.892C84.7751 222.794 86.7331 217.788 88.9607 212.906C89.0301 212.753 89.1007 212.601 89.1706 212.449C91.0452 208.378 93.1194 204.4 95.3628 200.52C94.5615 197.697 93.8676 194.85 93.2645 191.986C89.1919 187.477 86.0214 182.158 83.9997 176.43Z" fill="#A1A8C3"/>
<path d="M82.9175 172.884C82.9281 172.927 82.9387 172.969 82.9494 173.011C83.2315 173.122 83.5436 173.172 83.8474 173.156C84.7662 173.105 86.0499 172.622 86.9939 171.937C87.441 171.613 87.8114 171.242 88.0313 170.853C88.3419 170.3 88.4152 169.651 88.5002 169.024C88.8723 166.278 89.5986 163.582 90.6428 161.015C90.673 160.277 90.725 159.54 90.7692 158.803C88.2216 158.935 85.7292 160.021 84.1713 162.02C83.3426 163.083 82.8312 164.293 82.5542 165.579C82.0547 167.903 82.3283 170.474 82.9175 172.884Z" fill="#383838"/>
<path d="M90.617 162.015C90.6276 161.682 90.6288 161.348 90.6428 161.014C89.5987 163.582 88.8724 166.278 88.5002 169.024C88.4151 169.651 88.3418 170.3 88.0314 170.853C87.8115 171.242 87.441 171.613 86.994 171.937C86.0499 172.622 84.7663 173.105 83.8475 173.156C83.5437 173.172 83.2314 173.122 82.9495 173.011C83.0507 173.417 83.1582 173.82 83.2745 174.214C83.4955 174.959 83.7412 175.697 83.9998 176.43C86.0214 182.157 89.192 187.477 93.2646 191.986C92.8142 189.852 92.4191 187.709 92.08 185.558C91.8344 184.002 91.6089 182.443 91.4219 180.881C90.673 174.62 90.4083 168.311 90.617 162.015Z" fill="#272727"/>
<path d="M120.798 244.398C121.106 244.981 121.424 245.559 121.766 246.125C129.513 253.527 139.345 258.733 149.834 260.955C156.203 262.306 162.798 262.553 169.254 261.727C173.248 260.623 177.058 258.939 180.514 256.615C185.081 253.546 188.891 249.266 191.452 244.395C175.621 250.291 136.637 250.292 120.798 244.398Z" fill="#272727"/>
<path d="M221.616 161.551C213.373 165.258 204.68 168.042 195.8 169.956C190.08 171.189 184.277 172.07 178.441 172.616C164.763 173.893 150.779 173.203 137.147 171.625C120.968 169.751 105.485 167.524 90.617 162.015C90.4083 168.311 90.673 174.62 91.4216 180.881C91.6086 182.443 91.834 184.002 92.0797 185.558C98.484 190.589 105.039 195.429 112.168 199.344C130.763 209.556 156.285 214.261 177.211 208.87C177.474 208.802 177.738 208.732 178 208.661C187.701 206.029 198.243 195.955 205.511 189.356C211.334 184.066 216.701 178.277 221.552 172.083C221.722 168.575 221.745 165.061 221.616 161.551Z" fill="#EBF2E5"/>
<path d="M143.021 238.953C131.217 237.764 119.551 235.084 108.431 230.946C110.373 234.23 112.458 237.443 114.702 240.564C115.763 242.04 117.896 243.317 120.798 244.398C136.637 250.292 175.621 250.291 191.452 244.395C194.352 243.314 196.482 242.039 197.543 240.564C199.613 237.685 201.541 234.725 203.353 231.707C201.587 232.331 199.812 232.932 198.021 233.483C180.289 238.939 161.481 240.815 143.021 238.953Z" fill="#C6CAD6"/>
<path d="M220.822 180.881C221.173 177.957 221.409 175.023 221.551 172.083C216.701 178.277 211.334 184.066 205.511 189.356C198.243 195.955 187.701 206.029 178 208.661C177.738 208.732 177.474 208.802 177.211 208.87C156.284 214.261 130.763 209.556 112.168 199.344C105.039 195.429 98.4838 190.588 92.0796 185.558C92.4187 187.71 92.8137 189.852 93.2641 191.986C93.8673 194.85 94.5612 197.697 95.3624 200.52C98.2677 210.757 102.465 220.688 107.886 230.029C111.683 231.467 115.543 232.742 119.457 233.836C137.161 238.784 155.811 240.189 174.056 237.929C184.215 236.671 194.253 234.295 203.889 230.821C209.674 221.014 214.097 210.542 217.09 199.74C217.719 197.471 218.291 195.19 218.793 192.895C219.661 188.92 220.341 184.909 220.822 180.881Z" fill="#C6CAD6"/>
<path d="M174.056 237.929C155.811 240.189 137.161 238.784 119.457 233.836C115.544 232.742 111.683 231.467 107.886 230.029C108.064 230.336 108.25 230.64 108.432 230.946C119.551 235.084 131.217 237.763 143.021 238.953C161.481 240.815 180.289 238.939 198.021 233.483C199.812 232.931 201.587 232.331 203.353 231.707C203.532 231.411 203.714 231.118 203.889 230.82C194.253 234.295 184.216 236.671 174.056 237.929Z" fill="#383838"/>
<path d="M90.6169 162.015C105.485 167.524 120.968 169.751 137.147 171.625C150.779 173.203 164.763 173.893 178.441 172.616C184.277 172.07 190.08 171.189 195.8 169.956C204.68 168.042 213.373 165.258 221.616 161.551C221.583 160.663 221.532 159.775 221.48 158.888C221.479 158.856 221.477 158.823 221.474 158.79C221.426 157.982 221.378 157.173 221.314 156.365C200.304 158.417 111.939 158.417 90.9309 156.365C90.8661 157.177 90.8174 157.99 90.7692 158.803C90.725 159.54 90.673 160.276 90.6427 161.014C90.6287 161.348 90.6275 161.682 90.6169 162.015Z" fill="#A1A8C3"/>
<path d="M63.0438 92.5347C63.77 89.3667 64.8925 83.9785 65.112 83.2181C66.1981 79.4502 67.4924 75.737 69.0077 72.1196C69.2724 71.4883 69.6042 70.5909 70.0093 69.6332C71.3769 64.9265 73.0225 60.325 74.9256 55.89C75.1387 55.394 75.3542 54.8986 75.5719 54.4038C72.018 55.1749 68.9857 56.1365 67.7643 57.1569C65.8522 58.7542 64.5864 60.8516 63.4398 62.9444C58.542 71.8885 55.8711 81.1738 55.1543 90.5183C56.8604 91.7121 58.6421 92.7979 60.5009 93.7366C61.5351 94.2584 62.7852 93.6624 63.0438 92.5347Z" fill="#383838"/>
<path d="M248.804 62.9445C247.658 60.8517 246.393 58.7545 244.48 57.157C243.257 56.1355 240.221 55.1733 236.664 54.4022C236.886 54.8953 237.104 55.3907 237.318 55.8901C240.164 62.5201 242.442 69.5198 244.055 76.6938C244.749 77.7075 245.425 78.4282 245.858 79.6427C246.92 82.6268 247.812 85.637 248.905 88.5986C249.239 89.5044 249.591 90.4051 249.973 91.2991C252.625 90.1898 254.858 88.6511 256.688 86.7027C255.603 78.6501 253.035 70.6697 248.804 62.9445Z" fill="#383838"/>
<path d="M257.296 95.6238C257.293 92.6459 257.088 89.6697 256.688 86.7025C254.858 88.651 252.625 90.1897 249.974 91.299C249.591 90.405 249.239 89.5042 248.905 88.5985C247.813 85.6369 246.92 82.6265 245.858 79.6426C245.425 78.4282 244.749 77.7074 244.055 76.6937C245.416 82.7461 246.301 88.9228 246.648 95.1071C247.228 105.441 246.31 115.796 243.597 125.63C242.467 129.725 240.91 134.117 238.887 138.366C242.675 137.308 245.949 136.058 247.172 134.883C248.97 133.158 250.088 130.978 251.086 128.811C256.129 117.865 258.048 106.657 257.296 95.6238Z" fill="#272727"/>
<path d="M65.4668 98.3418C65.7142 88.6529 67.3078 78.9347 70.0093 69.6333C69.6042 70.591 69.2723 71.4885 69.0077 72.1197C67.4924 75.7371 66.1982 79.4503 65.1121 83.2182C64.8928 83.9787 63.7703 89.3668 63.0438 92.5348C62.7853 93.6626 61.5353 94.2586 60.5012 93.7368C58.6422 92.798 56.8606 91.7122 55.1545 90.5186C55.0242 92.2195 54.9508 93.9213 54.9485 95.6239C54.1959 106.657 56.1153 117.865 61.1587 128.811C62.157 130.978 63.2749 133.158 65.0717 134.884C66.2949 136.058 69.5694 137.308 73.3578 138.366C71.3344 134.117 69.7777 129.725 68.6479 125.63C66.2182 116.822 65.2311 107.596 65.4668 98.3418Z" fill="#272727"/>
<path d="M244.055 76.6937C242.442 69.5197 240.164 62.5201 237.318 55.89C237.105 55.3907 236.886 54.8953 236.664 54.4021C233.733 47.881 230.078 41.8823 224.189 37.3831C213.774 29.4286 99.7593 29.6879 88.0565 37.3831C81.8604 41.4574 78.4661 47.8264 75.572 54.4038C75.3543 54.8986 75.139 55.394 74.9257 55.89C73.0226 60.3248 71.3768 64.9265 70.0094 69.6332C67.3078 78.9346 65.7142 88.6527 65.4668 98.3416C67.2888 100.452 69.2769 102.42 71.401 104.225C74.449 106.816 78.1802 110.883 82.2639 108.065C85.4641 105.857 84.8345 101.865 85.139 98.453C85.4601 94.8517 85.8233 91.2051 86.6671 87.6821C87.1674 85.5916 87.7661 83.5212 88.4572 81.4825C90.0905 73.0628 93.49 65.0673 99.465 58.7728C101.01 57.1453 128.887 56.5593 156.122 56.698C183.358 56.5593 211.235 57.1453 212.78 58.7728C217.819 64.0811 221.022 70.601 222.885 77.5625C223.337 78.4727 223.764 79.3948 224.157 80.3319C225.603 83.7862 226.518 87.1856 227.018 90.8786L228.633 102.86C228.911 104.917 231.089 106.149 232.985 105.302C236.764 103.613 240.301 101.502 243.353 98.699C244.611 97.5428 245.697 96.3429 246.649 95.1072C246.301 88.9228 245.416 82.7463 244.055 76.6937Z" fill="#EBF2E5"/>
<path d="M246.649 95.1072C245.697 96.3429 244.611 97.5428 243.352 98.699C240.301 101.502 236.763 103.613 232.985 105.302C231.089 106.149 228.911 104.917 228.633 102.86L227.017 90.8786C226.518 87.1856 225.603 83.7862 224.157 80.3319C223.764 79.3948 223.336 78.4729 222.884 77.5625C224.12 82.1871 224.767 87.0055 224.956 91.7977C225.438 94.3841 225.734 97.0271 225.837 99.6795C226.242 110.136 223.27 134.694 216.771 137.8C209.481 141.284 108.802 137.95 101.568 137.357C95.5574 136.865 93.5552 133.68 91.763 127.949C90.2186 123.007 89.2908 117.761 89.0301 112.489C87.1315 103.143 86.4191 91.9843 88.4571 81.4824C87.7661 83.5209 87.1673 85.5914 86.6671 87.682C85.8232 91.205 85.4601 94.8516 85.1389 98.4529C84.8345 101.865 85.4641 105.857 82.2639 108.065C78.1801 110.883 74.4489 106.815 71.401 104.225C69.2769 102.42 67.2887 100.452 65.4667 98.3415C65.2311 107.595 66.2182 116.822 68.6479 125.63C69.7777 129.725 71.3344 134.117 73.3578 138.366C76.526 145.021 80.8481 151.324 86.5361 155.561C86.9339 155.857 88.4723 156.125 90.931 156.365C111.939 158.417 200.304 158.417 221.314 156.365C223.773 156.125 225.311 155.857 225.709 155.561C231.397 151.324 235.718 145.021 238.888 138.366C240.91 134.117 242.467 129.725 243.597 125.63C246.31 115.796 247.228 105.441 246.649 95.1072Z" fill="#C6CAD6"/>
<path d="M214.001 133.999C212.275 135.017 183.877 135.514 156.122 135.489C128.367 135.514 99.969 135.017 98.2433 133.999C95.2574 132.237 91.2984 123.658 89.03 112.49C89.2907 117.761 90.2186 123.007 91.7629 127.949C93.5553 133.68 95.5573 136.865 101.568 137.358C108.802 137.95 209.481 141.284 216.771 137.801C223.27 134.695 226.242 110.136 225.837 99.6798C225.734 97.0274 225.438 94.3844 224.956 91.798C225.746 111.765 218.678 131.239 214.001 133.999Z" fill="#A1A8C3"/>
<path d="M224.956 91.7978C224.767 87.0057 224.121 82.1872 222.884 77.5627C221.022 70.601 217.819 64.0811 212.78 58.773C211.235 57.1454 183.358 56.5594 156.122 56.6981C128.887 56.5594 101.01 57.1454 99.4649 58.773C93.4898 65.0676 90.0905 73.0629 88.457 81.4827C86.419 91.9846 87.1314 103.143 89.03 112.49C91.2985 123.658 95.2575 132.237 98.2433 133.999C99.969 135.017 128.367 135.514 156.122 135.489C183.877 135.514 212.275 135.017 214.001 133.999C218.678 131.239 225.746 111.764 224.956 91.7978Z" fill="#272727"/>
<path d="M98.249 89.9829C97.3693 94.3971 96.653 99.0819 98.1958 103.311C100.671 110.093 108.096 110.664 114.319 110.406C114.563 110.396 114.809 110.382 115.053 110.372C114.061 108.47 113.544 106.279 113.413 104.186C113.091 99.0227 113.654 79.0962 116.257 76.2699C120.053 72.148 128.24 72.1044 132.075 76.2699C134.678 79.0974 135.241 99.0227 134.918 104.186C134.813 105.869 134.457 107.614 133.807 109.223C143.268 108.457 152.744 107.389 162.087 105.898C167.175 105.086 172.239 104.135 177.278 103.06C177.082 96.6127 177.729 78.9206 180.17 76.2698C183.966 72.1479 192.152 72.1043 195.988 76.2698C197.848 78.2904 198.666 89.0416 198.865 96.8984C201.287 95.7203 203.586 94.2331 205.742 92.241C210.159 88.1566 213.807 81.5226 210.899 75.5496C209.25 72.1614 206.07 69.7102 202.612 68.2084C199.154 66.7072 195.397 66.053 191.677 65.4446C167.082 61.4218 141.766 58.8493 117.352 63.8561C114.311 64.4795 110.945 65.1661 108.224 66.7323C105.827 68.1128 104.614 70.7177 103.405 73.1766C100.809 78.46 99.3939 84.2379 98.249 89.9829Z" fill="#383838"/>
<path d="M132.075 76.27C128.24 72.1045 120.052 72.1482 116.256 76.27C113.654 79.0964 113.091 99.0228 113.413 104.186C113.543 106.279 114.061 108.47 115.053 110.372C115.84 111.884 116.928 113.215 118.364 114.168C121.479 116.235 126.751 116.302 129.967 114.168C131.756 112.98 133.005 111.206 133.807 109.223C134.457 107.614 134.813 105.869 134.918 104.186C135.24 99.0227 134.677 79.0974 132.075 76.27Z" fill="url(#paint0_linear_4_4702)"/>
<path d="M180.17 76.27C177.729 78.9207 177.082 96.613 177.277 103.06C177.29 103.487 177.307 103.865 177.327 104.186C177.561 107.944 179.036 112.016 182.278 114.168C185.392 116.235 190.665 116.302 193.88 114.168C197.122 112.016 198.597 107.944 198.831 104.186C198.923 102.713 198.943 100.035 198.864 96.8987C198.666 89.0419 197.848 78.2907 195.988 76.27C192.152 72.1045 183.966 72.1482 180.17 76.27Z" fill="url(#paint1_linear_4_4702)"/>
<path d="M149.834 260.955C139.345 258.733 129.513 253.527 121.766 246.125C124.278 250.278 127.711 253.914 131.731 256.615C138.856 261.404 147.489 263.48 156.121 263.367C160.568 263.425 165.014 262.902 169.254 261.727C162.798 262.553 156.203 262.306 149.834 260.955Z" fill="#383838"/>
<defs>
<linearGradient id="paint0_linear_4_4702" x1="124.166" y1="73.1623" x2="124.166" y2="115.743" gradientUnits="userSpaceOnUse">
<stop stop-color="#FFE388"/>
<stop offset="1" stop-color="#997600"/>
</linearGradient>
<linearGradient id="paint1_linear_4_4702" x1="188.079" y1="73.1623" x2="188.079" y2="115.743" gradientUnits="userSpaceOnUse">
<stop stop-color="#FFE388"/>
<stop offset="1" stop-color="#997600"/>
</linearGradient>
</defs>
</svg>
