<?xml version="1.0" encoding="UTF-8"?>
<svg version="1.1" xmlns="http://www.w3.org/2000/svg" width="512" height="512">
<path d="M0 0 C3.58598889 2.54054385 6.15992797 5.04327701 8.4921875 8.765625 C8.90210938 9.38695312 9.31203125 10.00828125 9.734375 10.6484375 C13.58244889 17.62804738 13.74273274 26.02607545 12.4921875 33.765625 C9.7343608 42.46788382 5.20176412 48.77936618 -2.8828125 53.0078125 C-8.81686422 55.765625 -8.81686422 55.765625 -11.5078125 55.765625 C-11.5078125 91.075625 -11.5078125 126.385625 -11.5078125 162.765625 C-7.5478125 161.115625 -3.5878125 159.465625 0.4921875 157.765625 C6.98529556 155.92298623 12.76258414 155.51273803 19.4921875 155.765625 C19.729375 154.9509375 19.9665625 154.13625 20.2109375 153.296875 C21.75861369 149.03132843 23.78127111 145.21906478 25.9921875 141.265625 C26.43288574 140.47607422 26.87358398 139.68652344 27.32763672 138.87304688 C31.55112946 131.44257829 36.31671057 124.55790381 41.4921875 117.765625 C42.15863281 116.88648437 42.82507813 116.00734375 43.51171875 115.1015625 C48.79628404 108.32095937 54.5702635 101.98932682 60.4921875 95.765625 C61.03149902 95.19763184 61.57081055 94.62963867 62.12646484 94.04443359 C70.33739955 85.45865702 78.87876533 77.74890933 88.4921875 70.765625 C89.04358398 70.35924805 89.59498047 69.95287109 90.16308594 69.53417969 C119.03692154 48.48422212 155.81186861 33.78102389 191.8828125 33.5625 C193.05006866 33.55191055 193.05006866 33.55191055 194.24090576 33.54110718 C226.82102994 33.31267546 226.82102994 33.31267546 241.4921875 36.765625 C242.36117676 36.96430176 243.23016602 37.16297852 244.12548828 37.36767578 C277.78918036 45.27008987 307.73301139 61.89761296 333.4921875 84.765625 C334.4821875 85.63316406 335.4721875 86.50070313 336.4921875 87.39453125 C341.92361427 92.22820589 346.8357748 97.19368084 351.4921875 102.765625 C352.27722656 103.63960938 353.06226563 104.51359375 353.87109375 105.4140625 C359.64641497 111.89934975 364.71481239 118.74370043 369.5546875 125.953125 C370.45622559 127.28935913 370.45622559 127.28935913 371.37597656 128.65258789 C374.23930101 132.99331582 376.83041228 137.28540607 379.0078125 142.01171875 C382.30246042 150.03752157 382.30246042 150.03752157 388.39550781 155.75585938 C392.68988176 157.08303016 397.00636606 157.35163261 401.47265625 157.57617188 C406.7042062 158.0669459 411.82179674 160.43042962 416.4921875 162.765625 C416.4921875 127.455625 416.4921875 92.145625 416.4921875 55.765625 C413.5221875 54.775625 410.5521875 53.785625 407.4921875 52.765625 C399.85591365 48.80561869 395.1753004 41.8149637 392.4921875 33.765625 C391.52129744 23.15957288 392.11715864 14.76400644 398.4921875 5.765625 C400.6052655 3.28024278 402.73271306 1.49459031 405.4921875 -0.234375 C406.11351562 -0.64429688 406.73484375 -1.05421875 407.375 -1.4765625 C414.35460988 -5.32463639 422.75263795 -5.48492024 430.4921875 -4.234375 C438.06843013 -1.83339329 444.23979042 1.97868661 448.4921875 8.765625 C448.90210938 9.38695312 449.31203125 10.00828125 449.734375 10.6484375 C453.58244889 17.62804738 453.74273274 26.02607545 452.4921875 33.765625 C449.7343608 42.46788382 445.20176412 48.77936618 437.1171875 53.0078125 C431.18313578 55.765625 431.18313578 55.765625 428.4921875 55.765625 C428.43582588 70.75212781 428.42530475 85.73814617 428.46884155 100.7246933 C428.48799819 107.68385469 428.4923487 114.64242855 428.46142578 121.6015625 C428.43161767 128.31928607 428.44362324 135.03575335 428.48098755 141.75349426 C428.48842687 144.31467974 428.48191764 146.87594541 428.46115112 149.4370575 C428.43442345 153.02890802 428.4575517 156.61727308 428.4921875 160.20898438 C428.47277603 161.26490784 428.45336456 162.3208313 428.43336487 163.40875244 C428.54663068 169.16812054 429.2632996 172.15557086 433.41894531 176.28503418 C434.12722473 176.8855938 434.83550415 177.48615341 435.56524658 178.1049118 C446.52898488 187.55389111 448.33253154 207.1919866 449.47460938 220.58154297 C450.47967402 234.41952238 450.71723916 248.27094012 450.8046875 262.140625 C450.81431519 263.00131592 450.82394287 263.86200684 450.8338623 264.7487793 C451.02121306 284.25003558 449.36458554 302.81140038 435.3046875 317.703125 C428.25095482 324.2647368 421.06077898 329.09148554 411.5546875 330.890625 C408.71112715 331.64885958 408.71112715 331.64885958 406.4921875 333.765625 C403.93895936 339.47930429 403.16378698 345.91218085 402.03710938 352.02636719 C397.84143268 373.11753768 386.9921799 394.43407525 374.4921875 411.765625 C374.10353516 412.30541992 373.71488281 412.84521484 373.31445312 413.40136719 C367.27207361 421.71572032 360.5955993 429.34829059 353.4921875 436.765625 C352.78473389 437.51392578 352.78473389 437.51392578 352.06298828 438.27734375 C324.28605117 467.54988973 286.17842504 486.94125128 246.4921875 493.765625 C245.54230957 493.94222656 244.59243164 494.11882812 243.61376953 494.30078125 C231.45618336 496.26366095 219.23913067 496.1377993 206.95361328 496.13623047 C203.16001527 496.14057594 199.36760991 496.17691476 195.57421875 496.21484375 C175.37106276 496.30889566 155.43998414 494.55671679 136.0546875 488.515625 C134.5840686 488.07065674 134.5840686 488.07065674 133.08374023 487.61669922 C123.85879742 484.73329418 115.14295913 481.05298105 106.4921875 476.765625 C105.78545898 476.42305664 105.07873047 476.08048828 104.35058594 475.72753906 C76.42268503 462.10014585 51.70508092 440.91610149 33.4921875 415.765625 C33.07517578 415.19295898 32.65816406 414.62029297 32.22851562 414.03027344 C16.62636501 392.33087051 -1.46823114 360.28370676 -0.5078125 332.765625 C-2.3640625 332.45625 -2.3640625 332.45625 -4.2578125 332.140625 C-17.12047618 329.21729235 -29.1408838 321.33139207 -36.4453125 310.328125 C-43.28984346 298.55487678 -45.83384559 286.91166736 -45.7734375 273.359375 C-45.77625732 272.40414444 -45.77907715 271.44891388 -45.78198242 270.46473694 C-45.78621158 267.39821001 -45.77375116 264.33210924 -45.7578125 261.265625 C-45.75471069 260.21849335 -45.75160889 259.17136169 -45.74841309 258.09249878 C-45.51750855 191.77532105 -45.51750855 191.77532105 -26.5078125 172.765625 C-25.8478125 172.435625 -25.1878125 172.105625 -24.5078125 171.765625 C-24.1778125 133.485625 -23.8478125 95.205625 -23.5078125 55.765625 C-26.4778125 54.775625 -29.4478125 53.785625 -32.5078125 52.765625 C-40.14408635 48.80561869 -44.8246996 41.8149637 -47.5078125 33.765625 C-48.47870256 23.15957288 -47.88284136 14.76400644 -41.5078125 5.765625 C-39.3947345 3.28024278 -37.26728694 1.49459031 -34.5078125 -0.234375 C-33.88648438 -0.64429688 -33.26515625 -1.05421875 -32.625 -1.4765625 C-22.455808 -7.08315125 -9.72162164 -5.63801363 0 0 Z " fill="#FEC007" transform="translate(53.5078125,10.234375)"/>
<path d="M0 0 C14.26669504 7.69742241 26.86310908 10.21152647 42.97631836 10.2824707 C44.71558594 10.3134082 44.71558594 10.3134082 46.48999023 10.3449707 C60.69674933 10.4088572 73.34116135 5.9953951 85.41381836 -1.4050293 C98.03269408 -9.02302957 110.59220707 -12.15157274 125.22631836 -12.2175293 C126.34329102 -12.2381543 127.46026367 -12.2587793 128.61108398 -12.2800293 C148.69987692 -12.37319471 164.9420094 -4.41528447 179.35131836 9.2199707 C194.76403678 25.16037135 200.04974905 44.16240401 199.86962891 65.70898438 C199.85138201 67.9621114 199.84911992 70.21482426 199.84936523 72.46801758 C199.75560869 112.53708439 184.96109003 148.65806848 156.66381836 177.0324707 C141.45515148 192.05308606 122.66959732 202.80172025 102.66381836 210.0324707 C101.45081055 210.48493164 100.23780273 210.93739258 98.98803711 211.40356445 C90.34055312 214.4808634 81.83336533 216.40146464 72.76831055 217.72387695 C70.7850711 218.01469072 68.8062409 218.33513098 66.82788086 218.6574707 C46.60884652 221.56320019 25.64594654 221.28133137 5.66381836 217.0324707 C4.26544563 216.7626036 2.86700836 216.49307074 1.46850586 216.22387695 C-36.15240429 208.56442478 -71.05124215 186.14856018 -92.54516602 154.23754883 C-109.5518628 128.12313344 -116.49369598 99.70451649 -116.77368164 68.8449707 C-116.78598816 68.0841922 -116.79829468 67.3234137 -116.81097412 66.5395813 C-116.997508 52.72471864 -115.29458459 39.20348389 -108.77368164 26.7824707 C-108.43852539 26.12899658 -108.10336914 25.47552246 -107.75805664 24.80224609 C-104.00970485 17.87303891 -98.98424711 12.45594446 -93.33618164 7.0324707 C-92.6568457 6.35700195 -91.97750977 5.6815332 -91.27758789 4.9855957 C-82.40900041 -3.34829524 -72.00162819 -7.9539556 -60.33618164 -10.9675293 C-59.73644531 -11.141875 -59.13670898 -11.3162207 -58.51879883 -11.49584961 C-37.24518724 -16.09323413 -18.37047157 -9.94371046 0 0 Z " fill="#424242" transform="translate(214.336181640625,243.967529296875)"/>
<path d="M0 0 C0.77817078 -0.00705963 1.55634155 -0.01411926 2.35809326 -0.02139282 C34.93821744 -0.24982454 34.93821744 -0.24982454 49.609375 3.203125 C50.47836426 3.40180176 51.34735352 3.60047852 52.24267578 3.80517578 C85.08047043 11.51371382 114.89607182 27.53544785 140.09082031 49.86083984 C141.65628911 51.24459346 143.2375271 52.6087667 144.8203125 53.97265625 C145.83429214 54.86088581 146.8473532 55.75016538 147.859375 56.640625 C148.75140625 57.42308594 149.6434375 58.20554688 150.5625 59.01171875 C152.70324516 61.3036234 153.26484776 62.16079206 153.609375 65.203125 C152.81176758 67.22338867 152.81176758 67.22338867 151.50390625 69.37109375 C151.02123291 70.17321289 150.53855957 70.97533203 150.04125977 71.80175781 C149.50686279 72.65608398 148.97246582 73.51041016 148.421875 74.390625 C147.6019104 75.72432129 147.6019104 75.72432129 146.76538086 77.08496094 C108.53771974 138.57805882 108.53771974 138.57805882 79.07697105 145.77412796 C74.02266092 146.65283097 68.90620461 146.49756499 63.7902832 146.49365234 C62.52252548 146.50036957 61.25476776 146.50708679 59.94859314 146.51400757 C56.48960705 146.53158159 53.03072009 146.53635938 49.57169366 146.53763914 C47.40396312 146.53906658 45.23625731 146.5433474 43.06853294 146.54863358 C35.48683464 146.56710782 27.90520639 146.57530776 20.32348633 146.57373047 C13.28774045 146.57253087 6.25230221 146.59360403 -0.78336591 146.6252178 C-6.84908747 146.65148909 -12.91470925 146.6620932 -18.98048717 146.66081965 C-22.59203325 146.66031304 -26.2033058 146.66582676 -29.81479454 146.68717575 C-33.85159215 146.7103896 -37.88771387 146.70097145 -41.92456055 146.68896484 C-43.09955109 146.70020386 -44.27454163 146.71144287 -45.48513794 146.72302246 C-61.93964205 146.59944214 -74.50813474 140.38399859 -86.015625 128.953125 C-91.51830191 123.3332161 -96.56438474 117.41451364 -101.390625 111.203125 C-102.16664063 110.23246094 -102.94265625 109.26179688 -103.7421875 108.26171875 C-110.83532083 99.26582426 -117.18240523 89.82555242 -123.390625 80.203125 C-123.86580566 79.47609375 -124.34098633 78.7490625 -124.83056641 78 C-126.16111565 75.95400636 -127.46730101 73.89467742 -128.765625 71.828125 C-129.16531494 71.21598145 -129.56500488 70.60383789 -129.97680664 69.97314453 C-132.51846729 65.83148192 -132.51846729 65.83148192 -131.9765625 63.16796875 C-129.68505454 60.32898228 -127.23047851 57.70426849 -124.640625 55.140625 C-124.06425293 54.56916748 -123.48788086 53.99770996 -122.89404297 53.40893555 C-116.79024643 47.46585199 -110.26925527 42.21700903 -103.390625 37.203125 C-102.83777832 36.79529785 -102.28493164 36.3874707 -101.71533203 35.96728516 C-72.84222353 14.92015267 -36.06852538 0.21850924 0 0 Z " fill="#434241" transform="translate(245.390625,43.796875)"/>
<path d="M0 0 C3.58598889 2.54054385 6.15992797 5.04327701 8.4921875 8.765625 C8.90210938 9.38695312 9.31203125 10.00828125 9.734375 10.6484375 C13.58244889 17.62804738 13.74273274 26.02607545 12.4921875 33.765625 C9.7343608 42.46788382 5.20176412 48.77936618 -2.8828125 53.0078125 C-8.81686422 55.765625 -8.81686422 55.765625 -11.5078125 55.765625 C-11.56417412 70.75212781 -11.57469525 85.73814617 -11.53115845 100.7246933 C-11.51200181 107.68385469 -11.5076513 114.64242855 -11.53857422 121.6015625 C-11.56838233 128.31928607 -11.55637676 135.03575335 -11.51901245 141.75349426 C-11.51157313 144.31467974 -11.51808236 146.87594541 -11.53884888 149.4370575 C-11.56557655 153.02890802 -11.5424483 156.61727308 -11.5078125 160.20898438 C-11.52722397 161.26490784 -11.54663544 162.3208313 -11.56663513 163.40875244 C-11.45336932 169.16812054 -10.7367004 172.15557086 -6.58105469 176.28503418 C-5.87277527 176.8855938 -5.16449585 177.48615341 -4.43475342 178.1049118 C6.52898488 187.55389111 8.33253154 207.1919866 9.47460938 220.58154297 C10.47967402 234.41952238 10.71723916 248.27094012 10.8046875 262.140625 C10.81912903 263.43166138 10.81912903 263.43166138 10.8338623 264.7487793 C11.02121306 284.25003558 9.36458554 302.81140038 -4.6953125 317.703125 C-12.49598247 324.9687696 -23.36340232 332.765625 -34.5078125 332.765625 C-34.44919037 332.0840181 -34.39056824 331.40241119 -34.33016968 330.70014954 C-32.82805986 312.79032857 -32.13129399 294.98360914 -32.13720703 277.01245117 C-32.13736942 274.31133203 -32.12344684 271.61089247 -32.09619141 268.90991211 C-31.71972171 230.90704662 -37.59950941 196.15544747 -52.58740234 160.98852539 C-53.29702349 159.27470561 -53.92123425 157.52535974 -54.5078125 155.765625 C-48.43790972 155.33206052 -43.18083831 156.12107332 -37.3203125 157.578125 C-36.64355469 157.74344727 -35.96679688 157.90876953 -35.26953125 158.07910156 C-30.89812791 159.21695214 -27.64735237 160.69585506 -23.5078125 162.765625 C-23.5078125 127.455625 -23.5078125 92.145625 -23.5078125 55.765625 C-26.4778125 54.775625 -29.4478125 53.785625 -32.5078125 52.765625 C-40.14408635 48.80561869 -44.8246996 41.8149637 -47.5078125 33.765625 C-48.47870256 23.15957288 -47.88284136 14.76400644 -41.5078125 5.765625 C-39.3947345 3.28024278 -37.26728694 1.49459031 -34.5078125 -0.234375 C-33.88648438 -0.64429688 -33.26515625 -1.05421875 -32.625 -1.4765625 C-22.455808 -7.08315125 -9.72162164 -5.63801363 0 0 Z " fill="#FEA000" transform="translate(493.5078125,10.234375)"/>
<path d="M0 0 C3.58598889 2.54054385 6.15992797 5.04327701 8.4921875 8.765625 C8.90210938 9.38695312 9.31203125 10.00828125 9.734375 10.6484375 C13.58244889 17.62804738 13.74273274 26.02607545 12.4921875 33.765625 C9.7343608 42.46788382 5.20176412 48.77936618 -2.8828125 53.0078125 C-8.81686422 55.765625 -8.81686422 55.765625 -11.5078125 55.765625 C-11.5078125 91.075625 -11.5078125 126.385625 -11.5078125 162.765625 C-7.5478125 161.115625 -3.5878125 159.465625 0.4921875 157.765625 C5.48279456 156.34937165 9.60212438 155.67571534 14.765625 155.72265625 C16.09859619 155.73196167 16.09859619 155.73196167 17.45849609 155.74145508 C18.12961426 155.74943115 18.80073242 155.75740723 19.4921875 155.765625 C19.22591553 156.39726562 18.95964355 157.02890625 18.68530273 157.6796875 C5.41423046 189.39089613 -2.87838189 220.66568086 -2.7734375 255.12890625 C-2.77479171 256.73821572 -2.77673844 258.34752478 -2.77923584 259.95683289 C-2.78215423 263.30223551 -2.77799881 266.64753005 -2.76855469 269.99291992 C-2.75718858 274.21847166 -2.76389126 278.44377051 -2.77545929 282.66931343 C-2.81421425 299.45719362 -2.84988172 316.10305619 -0.5078125 332.765625 C-1.94351416 332.46011921 -3.37842229 332.15088278 -4.81298828 331.84008789 C-5.61213654 331.66828506 -6.41128479 331.49648224 -7.23464966 331.31947327 C-18.88275448 328.4814528 -29.88453951 320.21116176 -36.4453125 310.328125 C-43.28984346 298.55487678 -45.83384559 286.91166736 -45.7734375 273.359375 C-45.77625732 272.40414444 -45.77907715 271.44891388 -45.78198242 270.46473694 C-45.78621158 267.39821001 -45.77375116 264.33210924 -45.7578125 261.265625 C-45.75471069 260.21849335 -45.75160889 259.17136169 -45.74841309 258.09249878 C-45.51750855 191.77532105 -45.51750855 191.77532105 -26.5078125 172.765625 C-25.8478125 172.435625 -25.1878125 172.105625 -24.5078125 171.765625 C-24.1778125 133.485625 -23.8478125 95.205625 -23.5078125 55.765625 C-26.4778125 54.775625 -29.4478125 53.785625 -32.5078125 52.765625 C-40.14408635 48.80561869 -44.8246996 41.8149637 -47.5078125 33.765625 C-48.47870256 23.15957288 -47.88284136 14.76400644 -41.5078125 5.765625 C-39.3947345 3.28024278 -37.26728694 1.49459031 -34.5078125 -0.234375 C-33.88648438 -0.64429688 -33.26515625 -1.05421875 -32.625 -1.4765625 C-22.455808 -7.08315125 -9.72162164 -5.63801363 0 0 Z " fill="#FEA000" transform="translate(53.5078125,10.234375)"/>
<path d="M0 0 C3.58598889 2.54054385 6.15992797 5.04327701 8.4921875 8.765625 C8.90210938 9.38695312 9.31203125 10.00828125 9.734375 10.6484375 C13.58244889 17.62804738 13.74273274 26.02607545 12.4921875 33.765625 C9.7343608 42.46788382 5.20176412 48.77936618 -2.8828125 53.0078125 C-8.81686422 55.765625 -8.81686422 55.765625 -11.5078125 55.765625 C-11.5078125 94.045625 -11.5078125 132.325625 -11.5078125 171.765625 C-22.5078125 164.765625 -22.5078125 164.765625 -23.5078125 163.765625 C-23.6032818 162.36151183 -23.62969779 160.95262691 -23.62806702 159.54527283 C-23.62944168 158.63516953 -23.63081635 157.72506622 -23.63223267 156.78738403 C-23.62863739 155.78109955 -23.62504211 154.77481506 -23.62133789 153.73803711 C-23.62148392 152.68450546 -23.62162994 151.63097382 -23.6217804 150.54551697 C-23.62108076 147.044647 -23.61328598 143.54382948 -23.60546875 140.04296875 C-23.60360475 137.62301157 -23.60218076 135.20305401 -23.60118103 132.78309631 C-23.59735442 126.39947476 -23.58752291 120.01587579 -23.57647705 113.63226318 C-23.56626601 107.12398586 -23.56168407 100.6157049 -23.55664062 94.10742188 C-23.54590077 81.32681325 -23.52901362 68.54622033 -23.5078125 55.765625 C-24.44026543 55.46260216 -24.44026543 55.46260216 -25.39155579 55.15345764 C-26.61179695 54.75277321 -26.61179695 54.75277321 -27.85668945 54.34399414 C-29.06757988 53.9481588 -29.06757988 53.9481588 -30.30293274 53.54432678 C-38.4923166 50.65206575 -42.77043542 44.27917547 -46.5078125 36.765625 C-49.21855664 28.63339258 -48.57368991 18.83162711 -44.9453125 11.140625 C-42.14465102 6.31144702 -39.24478728 2.73360505 -34.5078125 -0.234375 C-33.88648438 -0.64429688 -33.26515625 -1.05421875 -32.625 -1.4765625 C-22.455808 -7.08315125 -9.72162164 -5.63801363 0 0 Z " fill="#424242" transform="translate(493.5078125,10.234375)"/>
<path d="M0 0 C3.58598889 2.54054385 6.15992797 5.04327701 8.4921875 8.765625 C8.90210938 9.38695312 9.31203125 10.00828125 9.734375 10.6484375 C13.58244889 17.62804738 13.74273274 26.02607545 12.4921875 33.765625 C9.7343608 42.46788382 5.20176412 48.77936618 -2.8828125 53.0078125 C-8.81686422 55.765625 -8.81686422 55.765625 -11.5078125 55.765625 C-11.49767278 56.31485374 -11.48753305 56.86408249 -11.47708607 57.42995453 C-11.23374527 70.81801323 -11.05263843 84.20568266 -10.93787861 97.59548187 C-10.8805105 104.0710042 -10.80272588 110.54492864 -10.67797852 117.01953125 C-10.55830252 123.27016344 -10.49265491 129.51926076 -10.46416283 135.77095032 C-10.44386419 138.15375434 -10.40422224 140.53647587 -10.34478188 142.91862488 C-9.87297066 162.61349118 -9.87297066 162.61349118 -13.99472046 167.05004883 C-20.34480965 171.765625 -20.34480965 171.765625 -23.5078125 171.765625 C-23.5078125 133.485625 -23.5078125 95.205625 -23.5078125 55.765625 C-26.4778125 54.775625 -29.4478125 53.785625 -32.5078125 52.765625 C-40.14408635 48.80561869 -44.8246996 41.8149637 -47.5078125 33.765625 C-48.47870256 23.15957288 -47.88284136 14.76400644 -41.5078125 5.765625 C-39.3947345 3.28024278 -37.26728694 1.49459031 -34.5078125 -0.234375 C-33.88648438 -0.64429688 -33.26515625 -1.05421875 -32.625 -1.4765625 C-22.455808 -7.08315125 -9.72162164 -5.63801363 0 0 Z " fill="#424242" transform="translate(53.5078125,10.234375)"/>
<path d="M0 0 C4.36037068 2.53325179 7.35129389 6.38591291 8.9296875 11.12109375 C9.42092876 16.250941 9.62585828 20.67305853 7.3671875 25.37109375 C-2.51120931 36.51595168 -13.9045509 44.40358058 -29.24609375 45.5390625 C-44.076733 46.08460135 -56.27956147 41.31683627 -67.5703125 31.68359375 C-72.56994684 26.94584502 -74.62791882 23.5970441 -75.5078125 16.68359375 C-74.77461489 10.71327032 -72.55977699 6.10815056 -67.9453125 2.18359375 C-62.53093784 -1.70063155 -57.62189947 -1.61966357 -51.0703125 -0.87890625 C-48.03850658 0.37598031 -45.62734399 2.08354947 -43.0703125 4.12109375 C-38.45372106 7.60709137 -35.90144082 8.83719723 -30.0703125 8.12109375 C-24.94717952 6.47437243 -21.50461295 4.04770305 -17.6484375 0.42578125 C-12.63755507 -3.71687898 -5.56208725 -2.26162692 0 0 Z " fill="#FCFCFC" transform="translate(289.0703125,348.87890625)"/>
<path d="M0 0 C4.92265695 2.2855193 7.81049249 5.71694706 11 10 C12.22028608 13.66085825 12.20054862 17.07165934 12.23828125 20.88671875 C12.246353 21.66255814 12.25442474 22.43839752 12.26274109 23.23774719 C12.2765663 24.88105039 12.28729545 26.52438211 12.29516602 28.16772461 C12.30666102 29.83870936 12.32707356 31.5096581 12.35668945 33.18041992 C12.39963076 35.60360491 12.41557297 38.02569917 12.42578125 40.44921875 C12.44328934 41.18597336 12.46079742 41.92272797 12.47883606 42.68180847 C12.45377157 48.76859585 10.76948389 54.07184792 6.51704407 58.56791687 C1.44156505 62.9687377 -2.80140689 63.34955639 -9.2734375 63.28125 C-14.3428469 62.75833098 -16.96344034 60.15173296 -20.25 56.5 C-23.76331213 51.48098267 -24.3293748 47.68859931 -24.37109375 41.578125 C-24.38012222 40.75930847 -24.3891507 39.94049194 -24.39845276 39.09686279 C-24.41294174 37.36539353 -24.42183864 35.63386968 -24.42553711 33.90234375 C-24.43739861 31.27248013 -24.48656361 28.64499126 -24.53710938 26.015625 C-24.54657873 24.32813637 -24.55381131 22.64063342 -24.55859375 20.953125 C-24.57812607 20.17575989 -24.59765839 19.39839478 -24.61778259 18.59747314 C-24.55881401 11.3471219 -21.55439475 6.55439475 -16.5 1.5 C-11.05477761 -0.83366674 -5.83089007 -0.72886126 0 0 Z " fill="#FDFDFD" transform="translate(330,278)"/>
<path d="M0 0 C4.89630748 2.45898628 7.56967768 6.57072854 9.828125 11.38671875 C10.48190007 14.34771018 10.53221088 17.17480506 10.4921875 20.19921875 C10.49697113 21.01237549 10.50175476 21.82553223 10.50668335 22.66333008 C10.51006368 24.37095084 10.50099281 26.07863799 10.47998047 27.78613281 C10.45318361 30.38104279 10.47978756 32.97162875 10.51171875 35.56640625 C10.50841432 37.23568651 10.50200737 38.9049641 10.4921875 40.57421875 C10.50230865 41.33903564 10.51242981 42.10385254 10.52285767 42.8918457 C10.39587926 48.80830904 8.48379934 52.76261654 4.828125 57.38671875 C-0.35959622 62.20388846 -4.57318771 62.74049777 -11.4453125 62.66796875 C-16.49251211 62.14734071 -19.10541295 59.54205264 -22.421875 55.94921875 C-25.87520046 50.89256361 -26.48031615 46.52114698 -26.47265625 40.48828125 C-26.47694138 39.73509613 -26.4812265 38.98191101 -26.48564148 38.2059021 C-26.49136638 36.61742148 -26.49189863 35.02891466 -26.48754883 33.44042969 C-26.48439396 31.02623121 -26.5078517 28.61326553 -26.53320312 26.19921875 C-26.53547703 24.64974112 -26.53617919 23.10026022 -26.53515625 21.55078125 C-26.544366 20.83701324 -26.55357574 20.12324524 -26.56306458 19.3878479 C-26.51044092 13.60860495 -25.33983865 8.81058902 -21.41796875 4.42578125 C-20.82113281 3.95914062 -20.22429687 3.4925 -19.609375 3.01171875 C-19.00996094 2.52960938 -18.41054687 2.0475 -17.79296875 1.55078125 C-12.87152473 -1.98317132 -5.67595613 -1.60274301 0 0 Z " fill="#FDFDFD" transform="translate(196.171875,278.61328125)"/>
<path d="M0 0 C5.66786803 2.97088994 9.84980113 8.07083467 12.44140625 13.87109375 C14.49481967 20.80895803 13.69269366 27.63497939 10.42578125 34.03125 C6.9182402 39.51501624 2.63878883 43.70968999 -3.6640625 45.6640625 C-10.38254824 46.9795702 -16.93973278 47.06629657 -22.98046875 43.56640625 C-28.40718546 39.42176517 -33.7906579 34.02518499 -34.8984375 27.1015625 C-35.58355116 19.94101969 -35.38139459 13.95563678 -30.8984375 8.1015625 C-21.88974004 -1.36093128 -12.629034 -4.77493512 0 0 Z " fill="#FCFCFC" transform="translate(266.8984375,103.8984375)"/>
<path d="M0 0 C3.96 0 7.92 0 12 0 C12 38.28 12 76.56 12 116 C1 109 1 109 0 108 C-0.0954693 106.59588683 -0.12188529 105.18700191 -0.12025452 103.77964783 C-0.12162918 102.86954453 -0.12300385 101.95944122 -0.12442017 101.02175903 C-0.12082489 100.01547455 -0.11722961 99.00919006 -0.11352539 97.97241211 C-0.11367142 96.91888046 -0.11381744 95.86534882 -0.1139679 94.77989197 C-0.11326826 91.279022 -0.10547348 87.77820448 -0.09765625 84.27734375 C-0.09579225 81.85738657 -0.09436826 79.43742901 -0.09336853 77.01747131 C-0.08954192 70.63384976 -0.07971041 64.25025079 -0.06866455 57.86663818 C-0.05845351 51.35836086 -0.05387157 44.8500799 -0.04882812 38.34179688 C-0.03808827 25.56118797 -0.02101014 12.78059586 0 0 Z " fill="#212120" transform="translate(470,66)"/>
<path d="M0 0 C3.96 0 7.92 0 12 0 C12.2550637 13.94285132 12.4504181 27.88514628 12.56993389 41.82985687 C12.627302 48.3053792 12.70508662 54.77930364 12.82983398 61.25390625 C12.94950998 67.50453844 13.01515759 73.75363576 13.04364967 80.00532532 C13.06394831 82.38812934 13.10359026 84.77085087 13.16303062 87.15299988 C13.63484184 106.84786618 13.63484184 106.84786618 9.51309204 111.28442383 C3.16300285 116 3.16300285 116 0 116 C0 77.72 0 39.44 0 0 Z " fill="#212120" transform="translate(30,66)"/>
</svg>
