<svg width="30" height="30" viewBox="0 0 30 30" fill="none" xmlns="http://www.w3.org/2000/svg">
<path d="M15 0C23.2843 0 30 6.71573 30 15C30 23.2843 23.2843 30 15 30C6.71573 30 0 23.2843 0 15C0 6.71573 6.71573 0 15 0ZM24.5967 8.13184C23.8156 7.35079 22.5486 7.35079 21.7676 8.13184L11.9316 17.9668L8.23242 14.2676C7.45145 13.4869 6.18527 13.4869 5.4043 14.2676C4.62338 15.0486 4.62329 16.3157 5.4043 17.0967L10.5176 22.21C11.2986 22.9907 12.5657 22.9908 13.3467 22.21L24.5967 10.96C25.3772 10.1791 25.377 8.91283 24.5967 8.13184Z" fill="#3EC775"/>
</svg>
