<svg width="30" height="30" viewBox="0 0 30 30" fill="none" xmlns="http://www.w3.org/2000/svg">
<path fill-rule="evenodd" clip-rule="evenodd" d="M13.439 0.764464C4.73846 1.93852 -0.851391 10.4309 1.50723 18.8919C2.86442 23.7603 6.80965 27.5587 11.7753 28.7776C12.8797 29.0487 14.8122 29.2836 14.737 29.1375C14.3795 28.4437 14.3038 28.0733 14.3034 27.0163L14.3029 26.2797L13.7322 26.2041C11.7522 25.9419 9.6998 25.0424 8.07665 23.7255L7.64171 23.3727L8.38062 22.6285C9.20751 21.7955 9.30982 21.5549 8.97145 21.2387C8.63463 20.9239 8.41478 21.0184 7.5833 21.8353L6.83521 22.5704L6.48209 22.1377C5.05455 20.3884 4.12117 18.1378 3.96038 16.0572L3.91812 15.5093L4.98861 15.4877L6.05919 15.4662L6.21351 15.2876C6.41517 15.0542 6.41411 14.7743 6.21072 14.5721C6.05632 14.4184 6.03535 14.4158 4.96895 14.4158H3.88429L3.90927 14.177C4.18834 11.5099 4.96289 9.56882 6.48774 7.7155L6.84127 7.28574L7.58642 8.01781C8.4079 8.82502 8.67329 8.93926 8.99152 8.6226C9.3099 8.30595 9.19506 8.04201 8.38275 7.22389L7.64596 6.48179L8.04675 6.1596C9.93726 4.64004 11.9646 3.81857 14.4469 3.56605L14.8149 3.52865V4.63865V5.74866L14.9835 5.88059C15.1983 6.04869 15.4553 6.04869 15.6702 5.88059L15.8388 5.74866V4.63914C15.8388 4.02897 15.8604 3.52995 15.8868 3.53028C17.9753 3.55301 20.9268 4.70841 22.6742 6.18722L23.0143 6.47511L22.2743 7.22055C21.4584 8.04234 21.3434 8.30554 21.6621 8.6226C21.9811 8.93991 22.2453 8.82559 23.074 8.01121L23.8258 7.27254L24.2265 7.77254C25.7128 9.627 26.7578 12.2999 26.7803 14.3044C26.7814 14.4062 26.6879 14.4158 25.7008 14.4158C24.481 14.4158 24.3763 14.4497 24.3093 14.8662C24.2799 15.0495 24.304 15.13 24.4336 15.28L24.5944 15.4662L25.6929 15.4864L26.7913 15.5066L26.7577 15.741C26.7392 15.87 26.7058 16.1474 26.6834 16.3575C26.6454 16.7142 26.4983 17.5017 26.4266 17.7329C26.3999 17.819 26.4756 17.8407 26.9081 17.8701C27.7312 17.9262 28.552 18.4044 28.8676 19.0115C29.0163 19.2974 29.0548 19.2363 29.2667 18.3787C31.6791 8.61462 23.4155 -0.581772 13.439 0.764464ZM14.972 7.63295L14.8149 7.78924V10.3867V12.9842L14.503 13.1265C14.1047 13.3083 13.7016 13.7093 13.5189 14.1055L13.3758 14.4158H11.0283H8.68083L8.54821 14.5835C8.37923 14.7972 8.37923 15.0529 8.54821 15.2667L8.68083 15.4344H11.0283H13.3758L13.5253 15.7585C14.0942 16.9922 15.7923 17.284 16.7414 16.3113C17.6925 15.3362 17.3882 13.6892 16.1545 13.1345L15.8388 12.9926V10.3909V7.78924L15.6817 7.63295C15.5827 7.53452 15.4515 7.47674 15.3268 7.47674C15.2022 7.47674 15.0709 7.53452 14.972 7.63295ZM19.9343 15.9177C19.2404 16.2162 19.0194 16.6712 18.9864 17.8694C18.9721 18.3859 18.9348 18.8084 18.9035 18.8084C18.871 18.8084 18.8465 19.9296 18.8465 21.4084V24.0083L19.7028 24.2413C20.1738 24.3694 20.577 24.4743 20.5987 24.4743C20.6205 24.4743 20.6383 24.3005 20.6383 24.0881C20.6383 23.4426 20.6153 23.4557 21.7476 23.4557C22.8948 23.4557 22.878 23.447 22.878 24.0414C22.878 24.2795 22.8996 24.475 22.926 24.476C22.9524 24.4769 23.3556 24.3715 23.8219 24.2416L24.6698 24.0054V21.4069C24.6698 19.7171 24.6474 18.8084 24.6058 18.8084C24.5662 18.8084 24.5418 18.4682 24.5418 17.9151C24.5418 16.7089 24.3523 16.2782 23.6854 15.9693C23.2689 15.7764 20.3559 15.7363 19.9343 15.9177ZM23.3213 17.0663C23.4392 17.2155 23.4539 17.3213 23.4539 18.0212V18.8084H21.7531H20.0521L20.0732 17.975C20.1022 16.8297 19.9922 16.8986 21.7926 16.8986H23.1886L23.3213 17.0663ZM16.1981 18.9021C15.4168 19.1792 15.2629 19.6143 15.2629 21.5454V22.986L16.4627 23.3254C17.1226 23.5121 17.713 23.6784 17.7746 23.695C17.8798 23.7233 17.8865 23.5771 17.8865 21.2668V18.8084L17.1666 18.8113C16.7228 18.813 16.3514 18.8478 16.1981 18.9021ZM25.6297 21.2593C25.6297 22.6074 25.6491 23.7104 25.6728 23.7104C25.7069 23.7104 27.6461 23.1792 28.1414 23.0343C28.2789 22.994 28.3128 20.15 28.1805 19.7569C27.9478 19.0653 27.4631 18.8099 26.3816 18.8091L25.6297 18.8084V21.2593ZM15.2749 26.1136L15.2948 28.1985L15.4645 28.4849C15.6525 28.8022 15.8875 28.9978 16.2163 29.1106C16.6327 29.2535 27.1351 29.2106 27.458 29.0647C27.7666 28.9253 28.1033 28.5417 28.1904 28.2303C28.2906 27.872 28.2727 24.0287 28.1708 24.0287C28.0972 24.0287 23.6005 25.2738 23.0894 25.4357C22.9079 25.4931 22.8828 25.5301 22.8655 25.7651C22.846 26.03 22.113 26.6218 21.7885 26.6348C21.7125 26.6379 20.8414 26.1469 20.7064 26.0249C20.6911 26.0111 20.6623 25.8809 20.6424 25.7357L20.6062 25.4716L18.0465 24.7515C16.6387 24.3555 15.4346 24.0309 15.3709 24.03C15.2608 24.0287 15.2559 24.1355 15.2749 26.1136Z" fill="#FFC400"/>
</svg>
