<svg width="136" height="195" viewBox="0 0 136 195" fill="none" xmlns="http://www.w3.org/2000/svg">
<path opacity="0.58" d="M68 194.112C105.555 194.112 136 186.925 136 178.059C136 169.194 105.555 162.007 68 162.007C30.4446 162.007 0 169.194 0 178.059C0 186.925 30.4446 194.112 68 194.112Z" fill="#B2B2B2" fill-opacity="0.1"/>
<path d="M25.8243 168.444C25.8243 168.444 24.4235 175.528 25.4076 176.342C26.3901 177.156 43.2989 178.485 43.3323 177.22C43.4388 173.18 41.3627 174.263 36.713 172.492C35.3791 171.984 34.0696 170.433 32.5897 170.212C31.671 170.074 32.033 168.517 31.1904 168.453C28.661 168.266 25.8243 168.444 25.8243 168.444Z" fill="#262335"/>
<path d="M15.9336 23.9124H17.5778L17.2949 24.8934L15.9336 23.9124Z" fill="#D2D2D2"/>
<path d="M16.4401 168.997C16.4401 168.997 14.7898 177.344 15.9488 178.304C17.1063 179.264 37.0311 180.829 37.0691 179.338C37.1939 174.578 34.7481 175.854 29.2696 173.767C27.6984 173.168 26.1546 171.341 24.41 171.079C23.3256 170.917 23.7545 169.081 22.7613 169.006C19.7832 168.787 16.4401 168.997 16.4401 168.997Z" fill="#2E2C3E"/>
<path d="M14.8291 82.6846L21.456 128.267L17.2049 170.305H34.1957L35.0749 127.906V86.773L14.8291 82.6846Z" fill="#423A3E"/>
<path d="M25.8898 93.0104C25.8898 93.0104 27.8017 93.0104 29.636 96.2729C29.8078 99.3057 27.1218 100.926 27.1218 100.926L24.5894 93.8469L25.8898 93.0104Z" fill="#EFC7B1"/>
<path d="M11.6836 84.8398L18.3105 130.421L14.0594 172.46H28.7688L33.4397 130.062L33.1233 84.8398H11.6836Z" fill="#554B50"/>
<path opacity="0.12" d="M21.0589 129.566L14.7377 84.8398H11.6836L18.3105 130.421L14.0594 172.46H16.8002L21.0589 129.566Z" fill="#7A665A"/>
<path d="M16.4536 27.1323L18.3959 19.6415L26.4099 23.8881V29.0016L16.4536 27.1323Z" fill="#E6B59E"/>
<path d="M14.9599 27.5232C11.4084 35.6331 11.6837 91.8561 11.6837 91.8561L36.8513 94.7916L33.0884 47.915L27.5323 32.4725C27.5323 32.4725 18.3714 29.0792 14.9599 27.5232Z" fill="#35405E"/>
<path d="M25.3897 30.5652L24.9639 33.9859L27.8689 36.0073V42.2296L32.333 61.435L33.089 47.9165L27.5328 32.474L25.3897 30.5652Z" fill="#28314C"/>
<path d="M15.9334 23.9124L27.5324 28.708V32.474L14.96 27.5232L15.9334 23.9124Z" fill="#E4E4E4"/>
<path opacity="0.12" d="M15.1865 38.7968C15.1865 38.7968 21.888 51.6475 24.8022 54.9146C27.7164 58.1817 33.7699 67.3912 33.7699 67.3912L34.1973 71.1906L26.8905 66.0725C23.4713 63.6785 20.9008 60.2608 19.5487 56.3124L15.1865 38.7968Z" fill="#7A665A"/>
<path opacity="0.12" d="M18.3956 19.6415C18.3956 19.6415 17.6412 25.2782 26.4112 26.7764C26.4112 24.8934 26.4112 24.8934 26.4112 24.8934L18.3956 19.6415Z" fill="#7A665A"/>
<path d="M30.7693 14.3514C30.7693 14.3514 32.9291 17.6048 33.4417 18.2376C33.9542 18.8703 30.8834 19.9912 30.8834 19.9912C30.8834 19.9912 29.9556 21.8484 29.6681 24.8934C29.5114 26.568 21.613 24.7169 20.1894 23.056C17.7604 20.2224 18.4052 18.4687 17.2584 17.69C16.1116 16.9113 8.91433 12.6997 14.5541 6.97469C20.1939 1.2482 26.1333 2.41784 28.5852 5.47501C30.4757 7.83405 31.361 9.06604 31.1921 10.8304C31.0233 12.5962 30.7693 14.3514 30.7693 14.3514Z" fill="#EFC7B1"/>
<path d="M17.9808 21.1533C18.7687 18.6178 21.0258 14.677 20.2577 12.4624C19.4364 10.0942 18.3793 6.32221 25.4291 9.76723C28.5273 11.2821 32.0727 9.7003 31.9221 8.1124C31.2042 0.530313 17.4394 -3.14894 12.6756 6.90778C10.1417 12.2525 11.1638 19.1182 17.9808 21.1533Z" fill="#554B50"/>
<path d="M19.6399 15.9638C19.6399 15.9638 17.8771 14.4261 17.0862 14.8885C16.4337 15.2702 16.0139 17.4528 16.8292 18.6803C17.6824 19.964 18.4612 20.691 19.0285 20.5648C19.5958 20.437 19.6399 15.9638 19.6399 15.9638Z" fill="#EFC7B1"/>
<path d="M30.074 22.4218C30.074 22.4218 30.4253 26.3155 29.4169 26.8935C28.41 27.4714 17.9867 23.637 18.3898 21.0194C19.0088 17.0117 19.9138 14.2419 19.9138 14.2419C19.9138 14.2419 19.0514 19.5851 19.964 21.0194C21.1139 22.8294 27.1841 24.8888 28.4891 24.1025C29.7941 23.3146 30.074 22.4218 30.074 22.4218Z" fill="#554B50"/>
<path d="M61.4551 78.8165C61.4551 78.8165 63.0673 77.7078 64.891 78.1777C66.7146 78.6477 67.9542 80.0029 67.9542 80.0029L63.2848 83.1012L61.4551 78.8165Z" fill="#EFC7B1"/>
<path d="M66.7158 78.6478C67.7516 77.7352 56.5952 80.7802 59.4364 86.233C59.8517 87.03 62.7613 89.5304 63.7515 89.7236C64.7416 89.9168 74.7877 84.2907 74.7877 84.2907L69.0338 78.6478H66.7158Z" fill="#E6B59E"/>
<path d="M55.6187 83.9863C55.6187 83.9863 58.583 87.547 62.5893 89.7235C64.705 90.8733 67.7257 90.3501 70.7037 87.2778C71.6087 86.3454 63.7148 81.425 63.7148 81.425L60.8493 77.9465L55.6187 83.9863Z" fill="#EFC7B1"/>
<path d="M52.0127 84.2875L53.9763 86.1598L63.2862 77.0203L61.3226 75.1479L52.0127 84.2875Z" fill="#E4E4E4"/>
<path d="M15.8663 33.2252C15.8663 33.2252 7.71085 39.3365 29.5993 62.9969C35.0307 68.8663 51.7128 85.7401 51.7128 85.7401L63.0913 74.57C63.0913 74.57 42.4561 57.2141 40.088 53.652C33.7531 44.1185 26.2014 35.569 23.2446 33.7682C19.0635 31.2175 15.8663 33.2252 15.8663 33.2252Z" fill="#28314C"/>
<path opacity="0.12" d="M31.5948 61.4485C14.7317 43.2211 16.274 35.1264 17.2231 32.6929C16.3668 32.9149 15.8663 33.2237 15.8663 33.2237C15.8663 33.2237 7.71085 39.335 29.5993 62.9954C35.0307 68.8663 51.7128 85.7401 51.7128 85.7401L53.5015 83.9849C51.5866 82.0457 36.6734 66.9377 31.5948 61.4485Z" fill="#7A665A"/>
<path d="M68.01 76.2979C67.6784 76.2979 61.9245 80.2813 60.7078 80.3908C59.491 80.5018 60.218 83.1453 62.6485 81.7992C65.0791 80.4532 71.2375 82.2114 70.6656 79.7672C70.0937 77.3245 68.01 76.2979 68.01 76.2979Z" fill="#E6B59E"/>
<path d="M57.2874 85.7401C57.2874 85.7401 56.8357 86.3652 58.6061 87.8588C60.3765 89.3524 61.4275 90.2361 62.5333 90.3472C63.6405 90.4582 64.2398 90.2453 64.2398 90.2453L57.2874 85.7401Z" fill="#E6B59E"/>
<path d="M109.744 38.9062C109.744 38.9062 118.373 47.2107 97.272 68.3204C92.0368 73.5572 76.1897 86.9372 76.1897 86.9372L65.3604 75.3489C65.3604 75.3489 84.2433 59.3071 86.5309 56.0598C92.6543 47.3689 98.717 34.9136 101.558 33.4018C105.577 31.2633 109.744 38.9062 109.744 38.9062Z" fill="#F1F2F2"/>
<path opacity="0.36" d="M109.744 38.9062C109.744 38.9062 105.578 31.2633 101.557 33.4018C101.478 33.4443 101.388 33.5234 101.304 33.5827C103.975 35.0398 106.092 38.9062 106.092 38.9062C106.092 38.9062 114.721 47.2107 93.6204 68.3204C89.5412 72.4012 79.0236 81.4222 74.5747 85.2094L76.19 86.9372C76.19 86.9372 92.0371 73.5587 97.2723 68.3204C118.371 47.2107 109.744 38.9062 109.744 38.9062Z" fill="#D8D8D8"/>
<path d="M106.709 168.571C106.709 168.571 108.102 175.619 107.124 176.429C106.146 177.239 89.3258 178.559 89.2924 177.302C89.1874 173.283 91.2529 174.36 95.8767 172.599C97.203 172.094 98.5065 170.55 99.9788 170.329C100.893 170.193 100.532 168.641 101.37 168.579C103.886 168.393 106.709 168.571 106.709 168.571Z" fill="#423A3E"/>
<path d="M116.045 169.122C116.045 169.122 117.686 177.426 116.533 178.382C115.382 179.337 95.5602 180.893 95.5221 179.41C95.3974 174.675 97.8325 175.943 103.281 173.867C104.844 173.271 106.38 171.454 108.114 171.193C109.193 171.032 108.767 169.206 109.754 169.131C112.718 168.912 116.045 169.122 116.045 169.122Z" fill="#554B50"/>
<path d="M118.621 79.3155C118.621 79.3155 123.294 31.581 112.206 25.7252C108.811 27.2751 99.6987 30.6502 99.6987 30.6502L95.6741 46.0121L93.0687 92.6453L90.2549 172.567L126.396 173.158L118.621 79.3155Z" fill="#FCFCFC"/>
<path opacity="0.36" d="M118.621 79.3155C118.621 79.3155 123.294 31.581 112.206 25.7252C111.441 26.075 110.377 26.5192 109.2 26.9952C112.886 42.7435 110.157 70.6869 110.157 70.6869C110.157 70.6869 126.32 154.333 116.944 164.457C112.644 169.1 90.553 164.081 90.553 164.081L90.2549 172.568L126.396 173.16L118.621 79.3155Z" fill="#D8D8D8"/>
<path d="M111.237 22.1328H109.602L109.883 23.1093L111.237 22.1328Z" fill="#D2D2D2"/>
<path d="M103.974 90.8734C103.974 90.8734 102.073 90.8734 100.248 94.1192C100.078 97.1368 102.749 98.7491 102.749 98.7491L105.267 91.7069L103.974 90.8734Z" fill="#EFC7B1"/>
<path d="M110.72 25.3358L108.788 17.8845L100.815 22.1083V27.196L110.72 25.3358Z" fill="#E6B59E"/>
<path opacity="0.36" d="M105.267 42.7694C105.267 42.7694 104.271 59.0713 103.276 63.3102C102.281 67.5492 98.748 93.8683 98.748 93.8683L109.6 68.334L105.267 42.7694Z" fill="#D8D8D8"/>
<path opacity="0.12" d="M108.788 17.8845C108.788 17.8845 109.538 23.4909 100.815 24.9829C100.815 23.1091 100.815 23.1091 100.815 23.1091L108.788 17.8845Z" fill="#7A665A"/>
<path d="M96.4792 12.6219C96.4792 12.6219 94.33 15.8585 93.8205 16.4882C93.311 17.1179 96.3666 18.2328 96.3666 18.2328C96.3666 18.2328 97.2899 20.0808 97.5758 23.109C97.7325 24.7745 105.588 22.9326 107.006 21.2808C109.421 18.4624 109.602 17.5818 110.743 16.8091C111.884 16.0349 118.222 10.9807 112.611 5.28313C107 -0.412941 101.091 0.749089 98.6527 3.79105C96.7727 6.13792 95.8921 7.36383 96.0594 9.11904C96.2267 10.8743 96.4792 12.6219 96.4792 12.6219Z" fill="#EFC7B1"/>
<path d="M107.55 14.225C107.55 14.225 109.304 12.6949 110.09 13.1557C110.74 13.536 111.158 15.7064 110.346 16.9278C109.497 18.2054 108.721 18.9279 108.157 18.8016C107.594 18.6754 107.55 14.225 107.55 14.225Z" fill="#EFC7B1"/>
<path d="M111.237 22.1328L99.6989 26.9041L99.6016 31.0184L112.206 25.7254L111.237 22.1328Z" fill="#E5E5E5"/>
<path d="M82.638 127.991L125.732 129.108C126.73 129.134 127.568 128.435 127.598 127.556L128.423 106.357C128.451 105.478 127.886 102.538 124.964 102.538C114.81 102.538 96.7451 101.675 86.0617 101.675C81.6493 101.675 81.7315 105.076 81.7026 105.955L80.8782 126.347C80.8493 127.225 81.6417 127.965 82.638 127.991Z" fill="#5F5459"/>
<path d="M82.638 131.547L125.732 132.664C126.73 132.69 127.568 131.991 127.598 131.112L128.423 106.357C128.451 105.478 127.661 104.739 126.663 104.711L83.5688 103.596C82.5726 103.57 81.733 104.269 81.7026 105.148L80.8782 129.903C80.8493 130.781 81.6417 131.521 82.638 131.547Z" fill="#423A3E"/>
<path d="M85.3759 101.707L83.5689 103.596C83.5689 103.596 82.337 116.572 82.5134 119.028C82.6214 120.532 126.756 121.39 126.839 120.256C127.133 116.289 126.663 104.617 126.663 104.617L124.477 102.538L85.3759 101.707Z" fill="#2D282B"/>
<path d="M100.296 118.308L100.213 122.274L107.643 122.43L107.726 118.464L100.296 118.308Z" fill="#5F5459"/>
<path opacity="0.12" d="M121.205 127.459C124.85 122.931 125.145 104.577 125.145 104.577L126.664 104.617C127.66 104.643 128.453 105.384 128.424 106.261L127.6 131.017C127.571 131.896 126.731 132.594 125.733 132.568L82.6394 131.453C81.6417 131.427 80.8508 130.687 80.8797 129.809L80.9299 128.288C80.9299 128.285 118.413 130.928 121.205 127.459Z" fill="#7A665A"/>
<path opacity="0.35" d="M83.5688 103.596L126.664 104.617L124.964 102.538L85.3758 101.707L83.5688 103.596Z" fill="#5F5459"/>
<path d="M105.317 97.1489C101.902 97.0668 98.1167 100.183 98.0437 103.195L95.7622 103.14C95.8732 98.5604 100.173 94.9511 105.367 95.0773C110.56 95.2036 114.68 99.0166 114.569 103.596L112.339 103.543C112.412 100.53 108.732 97.231 105.317 97.1489Z" fill="#2D282B"/>
<path opacity="0.46" d="M85.4578 104.647C84.6714 104.629 84.0083 105.23 83.9474 106.013L83.0166 118.128L83.5687 118.31C83.5687 118.31 84.1497 105.993 85.2829 105.52C87.0807 104.772 123.911 106.182 123.911 106.182V105.52L85.4578 104.647Z" fill="#5F5459"/>
<path d="M110.317 93.5884C110.317 93.5884 111.026 95.6904 110.814 99.2829C110.732 100.687 108.674 102.013 104.45 101.598C100.227 101.183 100.239 99.6875 100.239 99.6875L102.254 92.6454L110.317 93.5884Z" fill="#EFC7B1"/>
<path d="M112.206 28.752C112.206 28.752 120.802 28.8873 118.02 60.831C117.33 68.7568 114.502 95.7146 114.502 95.7146L98.748 93.8712C98.748 93.8712 105.576 63.2022 105.265 58.9601C104.433 47.6045 105.509 36.8983 106.735 33.6799C108.469 29.1231 112.206 28.752 112.206 28.752Z" fill="#F1F2F2"/>
<path opacity="0.36" d="M112.16 28.752C112.16 28.752 110.959 28.8736 109.602 29.8075C110.537 29.9398 117.928 31.9338 115.321 61.8759C114.723 68.7446 112.521 89.8969 111.944 95.4196L114.46 95.7131C114.46 95.7131 117.288 68.7553 117.978 60.8294C120.758 28.8858 112.16 28.752 112.16 28.752Z" fill="#D8D8D8"/>
<path d="M103.854 22.9099C103.854 22.9099 100.114 24.84 97.9752 24.2149C97.7212 24.1403 97.5372 23.897 97.4794 23.6384C97.1204 22.0292 97.3364 21.433 97.3364 21.433L103.854 22.9099Z" fill="#554B50"/>
<path opacity="0.36" d="M96.0576 9.11921L96.1534 10.0455C96.1534 10.0455 98.4288 10.2645 100.297 11.4265C102.164 12.5886 104.809 16.1157 104.809 16.1157L105.068 12.5125C105.068 12.5125 98.0151 8.43933 97.8904 8.43933C97.7657 8.43933 96.0576 9.11921 96.0576 9.11921Z" fill="#D8D8D8"/>
<path d="M121.889 53.0938C122.077 63.8167 120.027 70.182 119.111 72.5927C118.156 64.492 121.279 32.4723 113.175 31.0182C103.045 29.1992 106.048 69.6846 98.8109 77.1663C93.0692 83.1012 106.498 17.9439 104.06 13.708C101.622 9.47052 95.1621 8.84995 95.1621 8.84995C95.1621 8.84995 95.4039 -1.2311 108.749 0.12561C119.896 1.25874 121.264 17.4055 121.889 53.0938Z" fill="#E6D9D5"/>
<path d="M96.187 4.91514C101.477 6.72663 111.129 8.87121 118.116 7.9206C119.491 7.73352 119.564 9.50698 118.944 9.6606C113.792 10.9337 100.45 8.81798 95.5284 6.58214C94.4865 6.10911 95.5451 4.6946 96.187 4.91514Z" fill="#423A3E"/>
<path d="M97.4264 3.00942C102.596 4.55626 110.727 6.26736 117.408 5.97077C118.69 5.91297 118.737 7.43243 118.163 7.57996C113.932 8.66442 101.957 6.54874 96.8545 4.77071C95.8248 4.41024 96.6918 2.78888 97.4264 3.00942Z" fill="#423A3E"/>
<path d="M96.3652 18.2328C96.3652 18.2328 100.267 18.3073 100.96 19.9606C101.654 21.6139 102.098 22.6223 102.098 22.6223L100.978 22.4672C100.978 22.4672 100.641 20.6359 99.8407 19.9424C99.0406 19.2488 96.7333 19.1469 96.7333 19.1469L96.3652 18.2328Z" fill="#554B50"/>
<path d="M100.815 30.2334L98.7498 48.6662H97.2729L99.6989 30.6501L100.815 30.2334Z" fill="#E5E5E5"/>
</svg>
