<svg width="27" height="27" viewBox="0 0 27 27" fill="none" xmlns="http://www.w3.org/2000/svg">
<g clip-path="url(#clip0_20_36908)">
<path fill-rule="evenodd" clip-rule="evenodd" d="M9.81887 0.650772C9.46813 0.881976 9.48224 0.758151 9.48224 3.60125C9.48224 6.02822 9.48737 6.1735 9.57798 6.31084C9.88387 6.77494 10.6027 6.77494 10.9087 6.31084C11.0569 6.08594 11.0569 1.11656 10.9087 0.891661C10.6869 0.555287 10.1452 0.435557 9.81887 0.650772ZM3.50724 3.25045C3.13986 3.35692 2.91184 3.8244 3.03034 4.22824C3.12296 4.54362 6.45883 7.88014 6.77258 7.9712C7.39184 8.1508 7.93816 7.60421 7.7572 6.986C7.70527 6.80855 7.42804 6.50675 6.01137 5.0852C4.08821 3.15548 4.01652 3.10296 3.50724 3.25045ZM16.3624 3.29218C16.0216 3.45156 12.8074 6.71943 12.7294 6.986C12.5484 7.60441 13.0956 8.15164 13.714 7.97062C13.9847 7.89138 17.2354 4.68337 17.4104 4.32295C17.736 3.65169 17.0458 2.97277 16.3624 3.29218ZM0.678249 9.7914C0.341874 10.0131 0.222144 10.5548 0.437359 10.8812C0.668564 11.2319 0.544739 11.2178 3.38784 11.2178C5.81481 11.2178 5.96008 11.2126 6.09743 11.1221C6.56153 10.8161 6.56153 10.0973 6.09743 9.7914C5.87253 9.64313 0.903149 9.64313 0.678249 9.7914ZM9.99301 9.88552C9.75706 10.0058 9.62784 10.1968 9.59696 10.471C9.57421 10.6728 9.83213 11.4829 11.7678 17.2899C14.2242 24.659 14.0443 24.2082 14.5474 24.2566C14.9942 24.2995 15.0214 24.2804 16.2363 23.0729L17.3806 21.9354L19.6137 24.1721C21.9841 26.5461 21.9936 26.5544 22.3546 26.5544C22.7116 26.5544 22.7474 26.5243 24.5456 24.7169C26.3616 22.8916 26.341 22.9162 26.341 22.5688C26.341 22.2068 26.3335 22.1983 23.9587 19.8271L21.722 17.5941L22.8595 16.4497C24.067 15.2348 24.0861 15.2076 24.0431 14.7608C23.9948 14.2577 24.4437 14.4369 17.0945 11.9872C10.4179 9.76163 10.3027 9.72757 9.99301 9.88552ZM6.66325 12.9914C6.32233 13.1508 3.10827 16.4186 3.03021 16.6852C2.83527 17.3509 3.49301 17.9228 4.10953 17.6238C4.46996 17.4488 7.67797 14.1981 7.7572 13.9274C7.95604 13.2483 7.30506 12.6914 6.66325 12.9914Z" fill="white"/>
</g>
<defs>
<clipPath id="clip0_20_36908">
<rect width="26" height="26" fill="white" transform="translate(0.341064 0.554377)"/>
</clipPath>
</defs>
</svg>
