<svg width="98" height="90" viewBox="0 0 98 90" fill="none" xmlns="http://www.w3.org/2000/svg">
<path d="M3.74512 38.6611C4.2872 44.9286 6.91368 51.1274 11.7744 56.207L13.1475 57.6416L14.1855 58.7275L15.2695 57.6875L16.124 56.8662L16.125 56.8672C16.8096 56.2108 17.1123 56.0112 17.3994 55.9053C17.7187 55.7876 18.1769 55.7266 19.3115 55.7266C20.8366 55.7266 21.4269 55.8965 21.9873 56.3477C22.6994 56.9209 23.4836 58.0467 24.9189 60.5361C25.4215 61.4079 25.8296 62.1477 26.1787 62.6846C26.5359 63.2338 26.956 63.7768 27.5781 64.1533C28.2111 64.5364 28.8826 64.6446 29.5244 64.6875C30.1385 64.7285 30.9479 64.7165 31.8867 64.7227C32.1119 64.7241 32.3365 64.7222 32.5605 64.7188L29.9219 64.8164L27.4287 64.9082L28.6787 67.0674L32.6396 73.9043C33.725 75.7782 34.7517 77.586 35.5312 78.9873C35.9213 79.6884 36.2472 80.2837 36.4863 80.7324C36.6061 80.9572 36.7019 81.1401 36.7715 81.2783L36.8682 81.4785C37.5335 83.1829 36.9976 85.3872 35.5947 86.6221C35.0888 87.0674 34.9889 87.1638 34.7852 87.2588C34.5849 87.3521 34.1941 87.4704 33.1768 87.5518C31.1205 87.7161 27.2278 87.691 18.9141 87.6602L4.64062 87.6074L3.92285 87.21C2.49851 86.4208 1.74084 85.3165 1.55859 83.7549L1.53027 83.4365L1.50879 83.0918C1.49344 82.7984 1.49618 82.6415 1.52832 82.4561C1.57227 82.2026 1.6895 81.8172 2.05664 81.0498C2.80571 79.4842 4.37019 76.7737 7.62695 71.1279C10.8478 65.5443 13.6261 60.7101 13.7744 60.4297L13.7754 60.4307C13.8738 60.2446 14.0655 59.8457 14.0215 59.3145C13.9807 58.8227 13.7566 58.4447 13.5898 58.2061C13.2795 57.762 12.7042 57.1752 11.8984 56.3604C6.81968 51.2234 4.22935 44.9607 3.74512 38.6611ZM58.6719 46.8848C58.445 47.4616 58.2014 48.0337 57.9365 48.5977L57.0234 50.541L56.5752 51.4941L57.3193 52.2393L61.0527 55.9766C62.8627 57.7884 63.8747 58.8028 64.4834 59.2979C64.7466 59.512 65.2019 59.8656 65.7881 59.9443C66.5214 60.0426 67.0488 59.6607 67.1406 59.5986C67.1051 59.6211 67.1252 59.6002 67.2354 59.5781C67.3415 59.5569 67.4856 59.5449 67.6523 59.5518C68.0159 59.5667 68.294 59.662 68.4053 59.7314C68.3831 59.7176 68.4362 59.7521 68.6055 59.8965C68.7541 60.0233 68.9484 60.1975 69.1855 60.416C69.6587 60.852 70.2741 61.4399 70.9863 62.1348C72.4091 63.523 74.1948 65.3131 75.959 67.1143C77.7233 68.9156 79.4596 70.721 80.7842 72.1377C81.4472 72.8469 81.9998 73.4514 82.3994 73.9062C82.6001 74.1347 82.7533 74.3161 82.8594 74.4482C82.9098 74.5111 82.9394 74.5503 82.9541 74.5703C84.2921 77.3245 83.6907 80.6329 81.7158 83.3213C79.7311 86.023 76.5281 87.848 73.0957 87.668C72.3034 87.6264 71.8706 87.5898 71.4727 87.4775C71.1103 87.3753 70.7014 87.186 70.0752 86.7236C68.7351 85.734 66.755 83.7736 62.6445 79.6621C58.5791 75.5958 56.6238 73.6065 55.7578 72.4102C55.3863 71.8968 55.347 71.6997 55.3438 71.6768C55.3498 71.6479 55.3829 71.5361 55.543 71.2266L55.8604 70.6133L56.3643 69.6387L51.8535 65.1279L48.1172 61.3926L47.3613 60.6367L46.3994 61.1045L44.6162 61.9736C41.4422 63.5194 38.4002 64.3378 34.6465 64.6152C45.2115 63.7224 54.1842 57.3138 58.4561 47.4053C58.5306 47.2324 58.6011 47.0582 58.6719 46.8848ZM81.7783 32.8291C91.9116 31.2474 99.727 41.9147 95.167 51.1865C89.6748 62.3531 72.99 59.8271 71.0215 47.4902C69.9145 40.5511 74.7579 33.925 81.7783 32.8291ZM24.6318 52.3057C28.8178 54.2831 33.7423 54.4996 38.0938 52.9482C33.5818 54.5707 28.4424 54.4022 23.9287 51.9736L24.6318 52.3057ZM38.5469 52.7783C38.4169 52.829 38.2864 52.8781 38.1553 52.9258C38.2864 52.8785 38.4168 52.8289 38.5469 52.7783ZM39.085 52.5586C39.21 52.505 39.3351 52.4511 39.459 52.3945L39.6299 52.3164C39.4497 52.4005 39.2677 52.4805 39.085 52.5586ZM87.8389 38.7422C87.1426 38.6226 86.5434 38.8502 86.084 39.1328C85.6476 39.4013 85.2154 39.7932 84.7773 40.2373C84.4584 40.5606 84.1013 40.9517 83.6943 41.4082L83.2744 40.9463V40.9453C82.847 40.4758 82.4572 40.0736 82.0986 39.7529C81.7507 39.4419 81.3616 39.1427 80.9316 38.9492C80.4672 38.7404 79.9012 38.633 79.2979 38.8076C78.878 38.9292 78.5511 39.1569 78.3027 39.3857L78.0801 39.6113C77.8315 39.886 77.5535 40.2718 77.4297 40.7871C77.3002 41.3262 77.3805 41.8323 77.5469 42.2695C77.833 43.0208 78.4764 43.8032 79.2246 44.6436C79.5883 45.0521 79.8307 45.3153 80.0078 45.5205C79.8317 45.7264 79.5903 45.9904 79.2285 46.4004C78.7736 46.916 78.3879 47.4011 78.0898 47.8545C77.8004 48.2948 77.542 48.7829 77.4209 49.2988C77.2922 49.8474 77.3056 50.5052 77.6826 51.1133C77.9921 51.6124 78.4437 51.9095 78.8564 52.0918L79.0303 52.1631C79.3159 52.2717 79.7019 52.3829 80.1562 52.3594C80.6285 52.3348 81.0344 52.1725 81.3818 51.957C81.9777 51.5875 82.5826 50.932 83.2666 50.1533C83.444 49.9514 83.5794 49.795 83.707 49.6494C83.8397 49.8012 83.9797 49.9632 84.1641 50.1738C84.5588 50.6247 84.9057 51.0065 85.2129 51.3086C85.5082 51.599 85.8439 51.8942 86.2236 52.0977C86.6509 52.3266 87.1655 52.4562 87.7344 52.3447C88.2321 52.2472 88.6132 51.9911 88.8496 51.8154C89.1572 51.5868 89.5303 51.2598 89.7793 50.7939C90.0611 50.2667 90.114 49.6967 89.9844 49.1465C89.8691 48.6572 89.6187 48.2214 89.3643 47.8535C89.1672 47.5687 88.9274 47.2675 88.6543 46.9492L88.3701 46.625C88.0241 46.2363 87.6858 45.8511 87.4111 45.5361C87.4947 45.4353 87.5903 45.3236 87.6982 45.1982L88.123 44.7109C88.9224 43.8054 89.5917 42.9827 89.8867 42.2207C90.0566 41.7817 90.152 41.2467 89.9941 40.6738C89.8606 40.1891 89.5877 39.8313 89.3291 39.5752L89.2188 39.4707C88.9393 39.2179 88.4796 38.8523 87.8389 38.7422ZM35.1875 26.5996C31.1366 24.2345 26.15 27.162 26.1523 31.833C26.1554 37.4612 33.1838 40.0892 36.8047 35.7188L36.8037 35.7178C39.2231 32.7976 38.4618 28.5115 35.1875 26.5996ZM43.9502 10.2324C49.98 12.9405 55.0037 17.7068 57.9893 23.958C59.0481 26.1752 59.7951 28.5257 60.2354 30.9365C58.5066 22.0547 52.5702 14.1715 43.9502 10.2324ZM74.9248 1.80176C84.576 -0.319056 93.0432 9.15443 89.8496 18.4629C86.7746 27.4246 75.3446 30.0908 68.7295 23.4482C61.5359 16.2243 65.0918 3.96263 74.9248 1.80176ZM83.7109 7.45508C82.8743 7.28844 82.1994 7.67564 81.7725 7.99121C81.3292 8.31897 80.8307 8.81314 80.251 9.43262C79.6554 10.0691 78.901 10.9186 77.9346 12.0127C77.2131 12.8294 76.5273 13.6047 76.0039 14.1943C75.9453 14.2604 75.8883 14.3236 75.834 14.3848C75.6772 14.2359 75.4943 14.0605 75.2822 13.8535C74.8339 13.416 74.44 13.0459 74.0928 12.7578C73.7605 12.4821 73.3803 12.2025 72.959 12.0312C72.4785 11.836 71.9142 11.7709 71.334 11.9863C70.8372 12.1708 70.4879 12.508 70.2744 12.7354C70.052 12.9721 69.6995 13.3728 69.54 13.9297C69.3547 14.577 69.4935 15.1697 69.7314 15.6523C69.9461 16.0876 70.2777 16.51 70.6377 16.9209C71.0113 17.3474 71.499 17.8532 72.0967 18.459C72.7687 19.1401 73.4152 19.847 73.9502 20.2783C74.5589 20.769 75.4411 21.2537 76.5596 20.915C77.4038 20.6593 78.1335 19.9742 78.7861 19.3018C79.494 18.5724 80.4129 17.5185 81.6074 16.1875C83.6315 13.9321 84.8569 12.5485 85.418 11.6182C85.7048 11.1425 86.0074 10.4913 85.8926 9.73535C85.7785 8.98544 85.2987 8.50082 85.0771 8.2793C84.9063 8.10847 84.4263 7.59762 83.7109 7.45508ZM30.0264 7.77637C25.8376 8.11019 21.6817 9.33187 18.168 11.3506C14.5986 13.4011 11.6606 16.0395 9.38281 19.0527C13.7434 13.1347 20.4188 8.82645 28.793 7.88867C29.2049 7.84254 29.6162 7.80515 30.0264 7.77637ZM75.0703 15.2412L75.0684 15.2422C75.0699 15.2406 75.0716 15.239 75.0732 15.2373C75.072 15.2387 75.0712 15.2403 75.0703 15.2412ZM22.1006 64.7842L21.6602 64.3447L21.1738 63.8584C20.9546 63.6393 20.7023 63.443 20.4551 63.293C20.3309 63.2177 20.1844 63.1395 20.0244 63.0762C19.8887 63.0225 19.6292 62.9326 19.3115 62.9326C18.9934 62.9327 18.734 63.0235 18.5986 63.0771C18.4386 63.1406 18.2922 63.2186 18.168 63.2939C17.9208 63.444 17.6684 63.6392 17.4492 63.8584L16.5234 64.7842V70.8301C16.5234 72.309 16.5285 73.4656 16.5557 74.3594C16.5822 75.2325 16.6318 75.9485 16.748 76.5039C16.8606 77.0414 17.0961 77.7429 17.7549 78.2002C18.0129 78.3793 18.2854 78.479 18.5352 78.5371C18.4855 78.5528 18.4368 78.5691 18.3896 78.5869C17.4788 78.931 16.5236 79.8351 16.5234 81.1875C16.5234 81.6513 16.6806 82.0523 16.8115 82.3154C16.9545 82.6028 17.1396 82.8704 17.334 83.0996C17.5265 83.3267 17.7634 83.5574 18.0332 83.7441C18.2617 83.9023 18.7064 84.165 19.2764 84.165C20.5558 84.165 21.4142 83.2791 21.7812 82.4355C22.1521 81.583 22.1916 80.43 21.5195 79.4707H21.5205C21.1594 78.955 20.6924 78.6562 20.2061 78.5107C20.4452 78.443 20.7011 78.3329 20.9434 78.1475C21.56 77.6754 21.7759 76.9835 21.8809 76.458C22.0861 75.4299 22.1006 73.6566 22.1006 70.8018V64.7842ZM41.918 48.5928C41.918 46.4172 41.4829 44.4642 40.542 42.8076C39.5949 41.1403 38.1841 39.8596 36.3799 38.9678C33.1243 37.3587 29.6878 37.6738 27.0371 39.415C24.3986 41.1484 22.6379 44.2236 22.5049 47.9521L22.4229 50.2578L22.3945 51.041C21.6021 50.5028 20.8332 49.8907 20.0996 49.1963C9.56314 39.2228 14.4645 21.8134 28.6387 18.8223C40.1257 16.3983 51.0205 26.2171 49.8154 37.9229C49.2169 43.7362 46.1107 48.2831 41.918 51.0391V48.5928ZM39.0186 52.5879C38.8923 52.6412 38.765 52.6917 38.6377 52.7422C38.765 52.6919 38.8923 52.6413 39.0186 52.5879Z" stroke="#ED4A4A" stroke-width="3"/>
</svg>
