<svg width="235" height="191" viewBox="0 0 235 191" fill="none" xmlns="http://www.w3.org/2000/svg">
<path d="M80.2004 161.36H179.533C186.465 161.36 192.085 155.725 192.085 148.774V12.5861C192.085 5.63491 186.465 0 179.533 0H80.2004C73.2683 0 67.6487 5.63503 67.6487 12.5861V148.774C67.6487 155.725 73.2683 161.36 80.2004 161.36Z" fill="black"/>
<path d="M79.8757 145.027H180.062L180.062 16.911H79.8757L79.8757 145.027Z" fill="#F3F9FF"/>
<path d="M165.854 139.403C162.935 139.403 160.568 137.03 160.568 134.103V60.8188C160.568 57.8914 162.935 55.5183 165.854 55.5183C168.774 55.5183 171.14 57.8914 171.14 60.8188V134.103C171.14 137.03 168.774 139.403 165.854 139.403Z" fill="#FFC400"/>
<path d="M148.534 139.403C145.615 139.403 143.249 137.03 143.249 134.103V37.4367C143.249 34.5093 145.615 32.1362 148.534 32.1362C151.454 32.1362 153.821 34.5093 153.821 37.4367V134.103C153.821 137.03 151.454 139.403 148.534 139.403Z" fill="#FFC400"/>
<path d="M129.636 139.403C126.716 139.403 124.35 137.03 124.35 134.103V81.1047C124.35 78.1773 126.716 75.8042 129.636 75.8042C132.555 75.8042 134.922 78.1773 134.922 81.1047V134.103C134.922 137.03 132.555 139.403 129.636 139.403Z" fill="#FFC400"/>
<path d="M111.246 139.403C108.327 139.403 105.96 137.03 105.96 134.103V51.7576C105.96 48.8303 108.327 46.4572 111.246 46.4572C114.166 46.4572 116.532 48.8303 116.532 51.7576V134.103C116.532 137.03 114.166 139.403 111.246 139.403Z" fill="#FFC400"/>
<path d="M98.047 93.5528V134.103C98.047 137.03 95.6804 139.403 92.7611 139.403C89.8417 139.403 87.4751 137.03 87.4751 134.103V93.5528C87.4751 90.6254 89.8417 88.2523 92.7611 88.2523C95.6804 88.2523 98.047 90.6254 98.047 93.5528Z" fill="#FFC400"/>
<path d="M106.462 39.8925H115.415C115.924 39.8925 116.341 40.3104 116.341 40.8212C116.341 41.3321 115.924 41.7499 115.415 41.7499H106.462C105.952 41.7499 105.536 41.3321 105.536 40.8212C105.536 40.3104 105.952 39.8925 106.462 39.8925Z" fill="#B5D3FF"/>
<path d="M113.376 43.272H115.415C115.924 43.272 116.341 43.6898 116.341 44.2006C116.341 44.7114 115.924 45.1293 115.415 45.1293H113.376C112.866 45.1293 112.45 44.7114 112.45 44.2006C112.45 43.6898 112.866 43.272 113.376 43.272Z" fill="#B5D3FF"/>
<path d="M143.355 25.6378H152.308C152.817 25.6378 153.234 26.0557 153.234 26.5665C153.234 27.0773 152.817 27.4951 152.308 27.4951H143.355C142.845 27.4951 142.429 27.0773 142.429 26.5665C142.429 26.0557 142.845 25.6378 143.355 25.6378Z" fill="#B5D3FF"/>
<path d="M150.269 29.0173H152.308C152.817 29.0173 153.234 29.4352 153.234 29.946C153.234 30.4568 152.817 30.8747 152.308 30.8747H150.269C149.759 30.8747 149.343 30.4568 149.343 29.946C149.343 29.4352 149.759 29.0173 150.269 29.0173Z" fill="#B5D3FF"/>
<path d="M161.261 49.0043H170.214C170.724 49.0043 171.14 49.4222 171.14 49.9331C171.14 50.4439 170.724 50.8617 170.214 50.8617H161.261C160.752 50.8617 160.335 50.4439 160.335 49.9331C160.335 49.4222 160.752 49.0043 161.261 49.0043Z" fill="#B5D3FF"/>
<path d="M168.175 52.3839H170.214C170.724 52.3839 171.14 52.8018 171.14 53.3126C171.14 53.8234 170.724 54.2412 170.214 54.2412H168.175C167.666 54.2412 167.249 53.8234 167.249 53.3126C167.249 52.8019 167.666 52.3839 168.175 52.3839Z" fill="#B5D3FF"/>
<path d="M125.159 69.2997H134.112C134.622 69.2997 135.039 69.7175 135.039 70.2283C135.039 70.7392 134.622 71.1571 134.112 71.1571H125.159C124.65 71.1571 124.233 70.7392 124.233 70.2283C124.233 69.7175 124.65 69.2997 125.159 69.2997Z" fill="#B5D3FF"/>
<path d="M132.073 72.6792H134.112C134.622 72.6792 135.038 73.0972 135.038 73.608C135.038 74.1188 134.622 74.5366 134.112 74.5366H132.073C131.564 74.5366 131.147 74.1188 131.147 73.608C131.147 73.097 131.564 72.6792 132.073 72.6792Z" fill="#B5D3FF"/>
<path d="M88.2843 81.71H97.2375C97.7468 81.71 98.1637 82.1279 98.1637 82.6387C98.1637 83.1496 97.7468 83.5674 97.2375 83.5674H88.2843C87.7749 83.5674 87.3582 83.1494 87.3582 82.6387C87.3582 82.1279 87.7749 81.71 88.2843 81.71Z" fill="#B5D3FF"/>
<path d="M95.1983 85.0896H97.2375C97.7468 85.0896 98.1637 85.5076 98.1637 86.0184C98.1637 86.5292 97.7468 86.9472 97.2375 86.9472H95.1983C94.6889 86.9472 94.2722 86.5292 94.2722 86.0184C94.2722 85.5076 94.6889 85.0896 95.1983 85.0896Z" fill="#B5D3FF"/>
<path d="M92.7611 79.068C90.947 79.068 89.4712 77.588 89.4712 75.769C89.4712 73.9499 90.9471 72.4701 92.7611 72.4701C94.5752 72.4701 96.0511 73.95 96.0511 75.769C96.0511 77.588 94.575 79.068 92.7611 79.068ZM92.7611 73.7471C91.6492 73.7471 90.7447 74.6542 90.7447 75.769C90.7447 76.8839 91.6493 77.791 92.7611 77.791C93.8729 77.791 94.7775 76.8839 94.7775 75.769C94.7775 74.6542 93.8729 73.7471 92.7611 73.7471Z" fill="#777777"/>
<path d="M91.3602 73.7471C91.1973 73.7471 91.0342 73.6848 90.9099 73.5602L81.0229 63.6462H0.700491C0.348739 63.6462 0.0637207 63.3602 0.0637207 63.0077C0.0637207 62.6551 0.348739 62.3691 0.700491 62.3691H81.5505L91.8103 72.6572C92.059 72.9066 92.059 73.3109 91.8103 73.5602C91.6861 73.6847 91.523 73.7471 91.3602 73.7471Z" fill="#777777"/>
<path d="M111.681 148.631C109.867 148.631 108.391 147.151 108.391 145.332C108.391 143.513 109.867 142.033 111.681 142.033C113.495 142.033 114.971 143.513 114.971 145.332C114.971 147.151 113.495 148.631 111.681 148.631ZM111.681 143.31C110.569 143.31 109.664 144.217 109.664 145.332C109.664 146.447 110.569 147.354 111.681 147.354C112.792 147.354 113.697 146.447 113.697 145.332C113.697 144.217 112.793 143.31 111.681 143.31Z" fill="#2B478B"/>
<path d="M202.468 158.732H122.891L112.631 148.444C112.383 148.195 112.383 147.791 112.631 147.541C112.88 147.292 113.283 147.292 113.532 147.541L123.419 157.455H202.468C202.819 157.455 203.104 157.741 203.104 158.094C203.104 158.446 202.82 158.732 202.468 158.732Z" fill="#2B478B"/>
<path d="M148.073 23.0841C146.259 23.0841 144.783 21.6042 144.783 19.7852C144.783 17.966 146.259 16.4862 148.073 16.4862C149.887 16.4862 151.363 17.9662 151.363 19.7852C151.363 21.6042 149.887 23.0841 148.073 23.0841ZM148.073 17.7631C146.961 17.7631 146.057 18.6702 146.057 19.785C146.057 20.8999 146.961 21.807 148.073 21.807C149.185 21.807 150.09 20.8999 150.09 19.785C150.09 18.6702 149.185 17.7631 148.073 17.7631Z" fill="#777777"/>
<path d="M146.672 17.7631C146.51 17.7631 146.346 17.7008 146.222 17.5762L136.335 7.66216H56.0127C55.661 7.66216 55.376 7.37624 55.376 7.02365C55.376 6.67106 55.661 6.38513 56.0127 6.38513H136.863L147.123 16.673C147.371 16.9224 147.371 17.3267 147.123 17.576C146.998 17.7008 146.835 17.7631 146.672 17.7631Z" fill="#777777"/>
<path d="M54.3814 60.8916H1.61319C0.722352 60.8916 0 60.1674 0 59.274C0 58.3806 0.722224 57.6564 1.61319 57.6564H54.3815C55.2723 57.6564 55.9946 58.3806 55.9946 59.274C55.9944 60.1674 55.2722 60.8916 54.3814 60.8916Z" fill="#D0D0D0"/>
<path d="M54.3814 55.7835H21.9899C21.0991 55.7835 20.3767 55.0592 20.3767 54.1658C20.3767 53.2724 21.0989 52.5482 21.9899 52.5482H54.3816C55.2724 52.5482 55.9946 53.2724 55.9946 54.1658C55.9945 55.0592 55.2723 55.7835 54.3814 55.7835Z" fill="#D0D0D0"/>
<path d="M54.3814 50.6753H21.9899C21.0991 50.6753 20.3767 49.9511 20.3767 49.0577C20.3767 48.1643 21.0989 47.4401 21.9899 47.4401H54.3816C55.2724 47.4401 55.9946 48.1643 55.9946 49.0577C55.9945 49.9511 55.2723 50.6753 54.3814 50.6753Z" fill="#D0D0D0"/>
<path d="M109.325 4.57728H56.557C55.6661 4.57728 54.9438 3.85307 54.9438 2.95966C54.9438 2.06625 55.6661 1.34204 56.557 1.34204H109.325C110.216 1.34204 110.938 2.06625 110.938 2.95966C110.938 3.85307 110.216 4.57728 109.325 4.57728Z" fill="#D0D0D0"/>
<path d="M156.502 182.858C160.986 178.361 160.986 171.071 156.502 166.574C152.017 162.077 144.747 162.077 140.262 166.574C135.778 171.071 135.778 178.361 140.262 182.858C144.747 187.355 152.017 187.355 156.502 182.858Z" fill="#82B378"/>
<path d="M148.385 164.982C153.747 164.982 158.092 169.34 158.092 174.716C158.092 177.376 157.029 179.786 155.303 181.543L148.385 174.716L139.314 178.187C138.904 177.109 138.679 175.939 138.679 174.716C138.679 169.34 143.024 164.982 148.385 164.982Z" fill="white"/>
<path d="M149.803 169.774H153.935C154.098 169.774 154.23 169.907 154.23 170.07C154.23 170.233 154.098 170.366 153.935 170.366H149.803C149.641 170.366 149.508 170.233 149.508 170.07C149.508 169.907 149.641 169.774 149.803 169.774Z" fill="#82B378"/>
<path d="M149.803 170.712H153.935C154.098 170.712 154.23 170.845 154.23 171.007C154.23 171.17 154.098 171.303 153.935 171.303H149.803C149.641 171.303 149.508 171.17 149.508 171.007C149.508 170.845 149.641 170.712 149.803 170.712Z" fill="#82B378"/>
<path d="M152.229 171.649H153.935C154.098 171.649 154.23 171.782 154.23 171.944C154.23 172.107 154.098 172.24 153.935 172.24H152.229C152.067 172.24 151.934 172.107 151.934 171.944C151.934 171.782 152.067 171.649 152.229 171.649Z" fill="#82B378"/>
<path d="M138.329 169.312L142.871 164.757H138.329V169.312Z" fill="#82B378"/>
<path d="M198.638 175.275C198.953 168.923 194.074 163.517 187.74 163.2C181.406 162.884 176.015 167.776 175.699 174.128C175.383 180.479 180.262 185.885 186.596 186.202C192.931 186.519 198.322 181.626 198.638 175.275Z" fill="#82B378"/>
<path d="M177.457 174.716C177.457 169.34 181.803 164.982 187.163 164.982C192.525 164.982 196.871 169.34 196.871 174.716C196.871 180.091 192.525 184.449 187.163 184.449C184.949 184.449 182.909 183.707 181.276 182.455L187.163 174.716L178.093 178.187C177.682 177.109 177.457 175.939 177.457 174.716Z" fill="white"/>
<path d="M188.662 169.774H192.794C192.956 169.774 193.089 169.907 193.089 170.07C193.089 170.233 192.956 170.366 192.794 170.366H188.662C188.5 170.366 188.367 170.233 188.367 170.07C188.367 169.907 188.5 169.774 188.662 169.774Z" fill="#82B378"/>
<path d="M188.662 170.712H192.794C192.956 170.712 193.089 170.845 193.089 171.007C193.089 171.17 192.956 171.303 192.794 171.303H188.662C188.5 171.303 188.367 171.17 188.367 171.007C188.367 170.845 188.5 170.712 188.662 170.712Z" fill="#82B378"/>
<path d="M191.087 171.649H192.794C192.956 171.649 193.089 171.782 193.089 171.944C193.089 172.107 192.956 172.24 192.794 172.24H191.087C190.925 172.24 190.792 172.107 190.792 171.944C190.792 171.782 190.925 171.649 191.087 171.649Z" fill="#82B378"/>
<path d="M177.172 169.312L181.714 164.757H177.172V169.312Z" fill="#82B378"/>
</svg>
