<svg width="363" height="77" viewBox="0 0 363 77" fill="none" xmlns="http://www.w3.org/2000/svg">
<g clip-path="url(#clip0_20_37665)">
<rect width="362.625" height="77" rx="38.5" fill="#F2F2F2"/>
<circle cx="38.5002" cy="39.0746" r="1.60417" fill="#5865F2"/>
<circle cx="38.5002" cy="38.4999" r="25.6667" fill="#06B57F"/>
<path d="M35.3086 28.6017C33.7046 27.6582 31.6824 28.8147 31.6824 30.6758V46.324C31.6824 48.185 33.7046 49.3416 35.3086 48.3981L48.6097 40.5739C50.1912 39.6435 50.1912 37.3562 48.6097 36.4259L35.3086 28.6017Z" fill="white"/>
<rect opacity="0.66" x="83.4167" y="36.8959" width="3.20833" height="3.20833" rx="1.60417" fill="black"/>
<rect opacity="0.66" x="93.0417" y="32.0834" width="3.20833" height="12.8333" rx="1.60417" fill="black"/>
<rect opacity="0.66" x="102.667" y="27.2709" width="3.20833" height="22.4583" rx="1.60417" fill="black"/>
<rect opacity="0.66" x="112.292" y="35.2917" width="3.20833" height="6.41667" rx="1.60417" fill="black"/>
<rect opacity="0.66" x="121.917" y="25.6667" width="3.20833" height="25.6667" rx="1.60417" fill="black"/>
<rect opacity="0.66" x="131.542" y="27.2709" width="3.20833" height="22.4583" rx="1.60417" fill="black"/>
<rect opacity="0.66" x="141.167" y="30.4792" width="3.20833" height="16.0417" rx="1.60417" fill="black"/>
<rect opacity="0.66" x="150.792" y="30.4792" width="3.20833" height="16.0417" rx="1.60417" fill="black"/>
<rect opacity="0.66" x="160.417" y="30.4792" width="3.20833" height="16.0417" rx="1.60417" fill="black"/>
<rect opacity="0.66" x="170.042" y="27.2709" width="3.20833" height="22.4583" rx="1.60417" fill="black"/>
<rect opacity="0.66" x="179.667" y="30.4792" width="3.20833" height="16.0417" rx="1.60417" fill="black"/>
<rect opacity="0.66" x="189.292" y="25.6667" width="3.20833" height="25.6667" rx="1.60417" fill="black"/>
<rect opacity="0.66" x="198.917" y="30.4792" width="3.20833" height="16.0417" rx="1.60417" fill="black"/>
<rect opacity="0.66" x="208.542" y="35.2917" width="3.20833" height="6.41667" rx="1.60417" fill="black"/>
<rect opacity="0.66" x="218.167" y="36.8959" width="3.20833" height="3.20833" rx="1.60417" fill="black"/>
<g opacity="0.66">
<path d="M252.371 39.4599C252.371 40.7625 252.273 41.9228 252.079 42.941C251.884 43.9591 251.57 44.8275 251.136 45.5461C250.716 46.2498 250.162 46.7888 249.474 47.1631C248.8 47.5374 247.984 47.7246 247.026 47.7246C245.828 47.7246 244.832 47.3952 244.039 46.7364C243.26 46.0776 242.676 45.1344 242.287 43.9067C241.913 42.664 241.725 41.1817 241.725 39.4599C241.725 37.7231 241.898 36.2409 242.242 35.0132C242.601 33.7854 243.17 32.8497 243.949 32.2059C244.727 31.5471 245.753 31.2177 247.026 31.2177C248.223 31.2177 249.219 31.5471 250.013 32.2059C250.806 32.8497 251.398 33.7854 251.787 35.0132C252.176 36.2409 252.371 37.7231 252.371 39.4599ZM243.702 39.4599C243.702 40.9272 243.807 42.1474 244.016 43.1206C244.241 44.0938 244.593 44.8275 245.072 45.3215C245.566 45.8007 246.217 46.0402 247.026 46.0402C247.834 46.0402 248.478 45.8007 248.957 45.3215C249.451 44.8424 249.81 44.1163 250.035 43.1431C250.26 42.1549 250.372 40.9272 250.372 39.4599C250.372 37.9926 250.26 36.7799 250.035 35.8217C249.81 34.8485 249.451 34.1223 248.957 33.6432C248.478 33.1491 247.834 32.9021 247.026 32.9021C246.217 32.9021 245.566 33.1491 245.072 33.6432C244.593 34.1223 244.241 34.8485 244.016 35.8217C243.807 36.7799 243.702 37.9926 243.702 39.4599ZM255.094 46.2872C255.094 45.7333 255.229 45.344 255.498 45.1194C255.768 44.8948 256.09 44.7825 256.464 44.7825C256.853 44.7825 257.183 44.8948 257.452 45.1194C257.737 45.344 257.879 45.7333 257.879 46.2872C257.879 46.8262 257.737 47.2155 257.452 47.4551C257.183 47.6946 256.853 47.8144 256.464 47.8144C256.09 47.8144 255.768 47.6946 255.498 47.4551C255.229 47.2155 255.094 46.8262 255.094 46.2872ZM255.094 36.6751C255.094 36.1061 255.229 35.7094 255.498 35.4848C255.768 35.2602 256.09 35.1479 256.464 35.1479C256.853 35.1479 257.183 35.2602 257.452 35.4848C257.737 35.7094 257.879 36.1061 257.879 36.6751C257.879 37.2141 257.737 37.6034 257.452 37.8429C257.183 38.0825 256.853 38.2022 256.464 38.2022C256.09 38.2022 255.768 38.0825 255.498 37.8429C255.229 37.6034 255.094 37.2141 255.094 36.6751ZM271.232 39.4599C271.232 40.7625 271.135 41.9228 270.94 42.941C270.746 43.9591 270.431 44.8275 269.997 45.5461C269.578 46.2498 269.024 46.7888 268.335 47.1631C267.661 47.5374 266.845 47.7246 265.887 47.7246C264.689 47.7246 263.694 47.3952 262.9 46.7364C262.122 46.0776 261.538 45.1344 261.148 43.9067C260.774 42.664 260.587 41.1817 260.587 39.4599C260.587 37.7231 260.759 36.2409 261.103 35.0132C261.463 33.7854 262.032 32.8497 262.81 32.2059C263.589 31.5471 264.614 31.2177 265.887 31.2177C267.085 31.2177 268.081 31.5471 268.874 32.2059C269.668 32.8497 270.259 33.7854 270.648 35.0132C271.038 36.2409 271.232 37.7231 271.232 39.4599ZM262.563 39.4599C262.563 40.9272 262.668 42.1474 262.878 43.1206C263.102 44.0938 263.454 44.8275 263.933 45.3215C264.427 45.8007 265.079 46.0402 265.887 46.0402C266.696 46.0402 267.339 45.8007 267.819 45.3215C268.313 44.8424 268.672 44.1163 268.897 43.1431C269.121 42.1549 269.233 40.9272 269.233 39.4599C269.233 37.9926 269.121 36.7799 268.897 35.8217C268.672 34.8485 268.313 34.1223 267.819 33.6432C267.339 33.1491 266.696 32.9021 265.887 32.9021C265.079 32.9021 264.427 33.1491 263.933 33.6432C263.454 34.1223 263.102 34.8485 262.878 35.8217C262.668 36.7799 262.563 37.9926 262.563 39.4599ZM278.515 37.6632C279.608 37.6632 280.558 37.8504 281.367 38.2247C282.175 38.599 282.797 39.138 283.231 39.8417C283.68 40.5304 283.905 41.3764 283.905 42.3795C283.905 43.4874 283.665 44.4457 283.186 45.2542C282.707 46.0477 282.018 46.6616 281.12 47.0957C280.236 47.515 279.166 47.7246 277.908 47.7246C277.085 47.7246 276.306 47.6497 275.573 47.5C274.854 47.3503 274.248 47.1332 273.754 46.8487V44.9847C274.293 45.3141 274.944 45.5761 275.707 45.7707C276.486 45.9504 277.227 46.0402 277.931 46.0402C278.724 46.0402 279.413 45.9204 279.997 45.6809C280.596 45.4263 281.06 45.0446 281.389 44.5355C281.719 44.0115 281.883 43.3602 281.883 42.5816C281.883 41.5336 281.562 40.7326 280.918 40.1786C280.274 39.6096 279.256 39.3252 277.863 39.3252C277.444 39.3252 276.965 39.3626 276.426 39.4375C275.887 39.5123 275.453 39.5872 275.123 39.662L274.135 39.0332L274.742 31.4647H282.782V33.2614H276.426L276.044 37.9103C276.299 37.8654 276.643 37.813 277.077 37.7531C277.512 37.6932 277.991 37.6632 278.515 37.6632Z" fill="#FF0000" style="mix-blend-mode:saturation"/>
<path d="M252.371 39.4599C252.371 40.7625 252.273 41.9228 252.079 42.941C251.884 43.9591 251.57 44.8275 251.136 45.5461C250.716 46.2498 250.162 46.7888 249.474 47.1631C248.8 47.5374 247.984 47.7246 247.026 47.7246C245.828 47.7246 244.832 47.3952 244.039 46.7364C243.26 46.0776 242.676 45.1344 242.287 43.9067C241.913 42.664 241.725 41.1817 241.725 39.4599C241.725 37.7231 241.898 36.2409 242.242 35.0132C242.601 33.7854 243.17 32.8497 243.949 32.2059C244.727 31.5471 245.753 31.2177 247.026 31.2177C248.223 31.2177 249.219 31.5471 250.013 32.2059C250.806 32.8497 251.398 33.7854 251.787 35.0132C252.176 36.2409 252.371 37.7231 252.371 39.4599ZM243.702 39.4599C243.702 40.9272 243.807 42.1474 244.016 43.1206C244.241 44.0938 244.593 44.8275 245.072 45.3215C245.566 45.8007 246.217 46.0402 247.026 46.0402C247.834 46.0402 248.478 45.8007 248.957 45.3215C249.451 44.8424 249.81 44.1163 250.035 43.1431C250.26 42.1549 250.372 40.9272 250.372 39.4599C250.372 37.9926 250.26 36.7799 250.035 35.8217C249.81 34.8485 249.451 34.1223 248.957 33.6432C248.478 33.1491 247.834 32.9021 247.026 32.9021C246.217 32.9021 245.566 33.1491 245.072 33.6432C244.593 34.1223 244.241 34.8485 244.016 35.8217C243.807 36.7799 243.702 37.9926 243.702 39.4599ZM255.094 46.2872C255.094 45.7333 255.229 45.344 255.498 45.1194C255.768 44.8948 256.09 44.7825 256.464 44.7825C256.853 44.7825 257.183 44.8948 257.452 45.1194C257.737 45.344 257.879 45.7333 257.879 46.2872C257.879 46.8262 257.737 47.2155 257.452 47.4551C257.183 47.6946 256.853 47.8144 256.464 47.8144C256.09 47.8144 255.768 47.6946 255.498 47.4551C255.229 47.2155 255.094 46.8262 255.094 46.2872ZM255.094 36.6751C255.094 36.1061 255.229 35.7094 255.498 35.4848C255.768 35.2602 256.09 35.1479 256.464 35.1479C256.853 35.1479 257.183 35.2602 257.452 35.4848C257.737 35.7094 257.879 36.1061 257.879 36.6751C257.879 37.2141 257.737 37.6034 257.452 37.8429C257.183 38.0825 256.853 38.2022 256.464 38.2022C256.09 38.2022 255.768 38.0825 255.498 37.8429C255.229 37.6034 255.094 37.2141 255.094 36.6751ZM271.232 39.4599C271.232 40.7625 271.135 41.9228 270.94 42.941C270.746 43.9591 270.431 44.8275 269.997 45.5461C269.578 46.2498 269.024 46.7888 268.335 47.1631C267.661 47.5374 266.845 47.7246 265.887 47.7246C264.689 47.7246 263.694 47.3952 262.9 46.7364C262.122 46.0776 261.538 45.1344 261.148 43.9067C260.774 42.664 260.587 41.1817 260.587 39.4599C260.587 37.7231 260.759 36.2409 261.103 35.0132C261.463 33.7854 262.032 32.8497 262.81 32.2059C263.589 31.5471 264.614 31.2177 265.887 31.2177C267.085 31.2177 268.081 31.5471 268.874 32.2059C269.668 32.8497 270.259 33.7854 270.648 35.0132C271.038 36.2409 271.232 37.7231 271.232 39.4599ZM262.563 39.4599C262.563 40.9272 262.668 42.1474 262.878 43.1206C263.102 44.0938 263.454 44.8275 263.933 45.3215C264.427 45.8007 265.079 46.0402 265.887 46.0402C266.696 46.0402 267.339 45.8007 267.819 45.3215C268.313 44.8424 268.672 44.1163 268.897 43.1431C269.121 42.1549 269.233 40.9272 269.233 39.4599C269.233 37.9926 269.121 36.7799 268.897 35.8217C268.672 34.8485 268.313 34.1223 267.819 33.6432C267.339 33.1491 266.696 32.9021 265.887 32.9021C265.079 32.9021 264.427 33.1491 263.933 33.6432C263.454 34.1223 263.102 34.8485 262.878 35.8217C262.668 36.7799 262.563 37.9926 262.563 39.4599ZM278.515 37.6632C279.608 37.6632 280.558 37.8504 281.367 38.2247C282.175 38.599 282.797 39.138 283.231 39.8417C283.68 40.5304 283.905 41.3764 283.905 42.3795C283.905 43.4874 283.665 44.4457 283.186 45.2542C282.707 46.0477 282.018 46.6616 281.12 47.0957C280.236 47.515 279.166 47.7246 277.908 47.7246C277.085 47.7246 276.306 47.6497 275.573 47.5C274.854 47.3503 274.248 47.1332 273.754 46.8487V44.9847C274.293 45.3141 274.944 45.5761 275.707 45.7707C276.486 45.9504 277.227 46.0402 277.931 46.0402C278.724 46.0402 279.413 45.9204 279.997 45.6809C280.596 45.4263 281.06 45.0446 281.389 44.5355C281.719 44.0115 281.883 43.3602 281.883 42.5816C281.883 41.5336 281.562 40.7326 280.918 40.1786C280.274 39.6096 279.256 39.3252 277.863 39.3252C277.444 39.3252 276.965 39.3626 276.426 39.4375C275.887 39.5123 275.453 39.5872 275.123 39.662L274.135 39.0332L274.742 31.4647H282.782V33.2614H276.426L276.044 37.9103C276.299 37.8654 276.643 37.813 277.077 37.7531C277.512 37.6932 277.991 37.6632 278.515 37.6632Z" fill="white" style="mix-blend-mode:difference"/>
<path d="M252.371 39.4599C252.371 40.7625 252.273 41.9228 252.079 42.941C251.884 43.9591 251.57 44.8275 251.136 45.5461C250.716 46.2498 250.162 46.7888 249.474 47.1631C248.8 47.5374 247.984 47.7246 247.026 47.7246C245.828 47.7246 244.832 47.3952 244.039 46.7364C243.26 46.0776 242.676 45.1344 242.287 43.9067C241.913 42.664 241.725 41.1817 241.725 39.4599C241.725 37.7231 241.898 36.2409 242.242 35.0132C242.601 33.7854 243.17 32.8497 243.949 32.2059C244.727 31.5471 245.753 31.2177 247.026 31.2177C248.223 31.2177 249.219 31.5471 250.013 32.2059C250.806 32.8497 251.398 33.7854 251.787 35.0132C252.176 36.2409 252.371 37.7231 252.371 39.4599ZM243.702 39.4599C243.702 40.9272 243.807 42.1474 244.016 43.1206C244.241 44.0938 244.593 44.8275 245.072 45.3215C245.566 45.8007 246.217 46.0402 247.026 46.0402C247.834 46.0402 248.478 45.8007 248.957 45.3215C249.451 44.8424 249.81 44.1163 250.035 43.1431C250.26 42.1549 250.372 40.9272 250.372 39.4599C250.372 37.9926 250.26 36.7799 250.035 35.8217C249.81 34.8485 249.451 34.1223 248.957 33.6432C248.478 33.1491 247.834 32.9021 247.026 32.9021C246.217 32.9021 245.566 33.1491 245.072 33.6432C244.593 34.1223 244.241 34.8485 244.016 35.8217C243.807 36.7799 243.702 37.9926 243.702 39.4599ZM255.094 46.2872C255.094 45.7333 255.229 45.344 255.498 45.1194C255.768 44.8948 256.09 44.7825 256.464 44.7825C256.853 44.7825 257.183 44.8948 257.452 45.1194C257.737 45.344 257.879 45.7333 257.879 46.2872C257.879 46.8262 257.737 47.2155 257.452 47.4551C257.183 47.6946 256.853 47.8144 256.464 47.8144C256.09 47.8144 255.768 47.6946 255.498 47.4551C255.229 47.2155 255.094 46.8262 255.094 46.2872ZM255.094 36.6751C255.094 36.1061 255.229 35.7094 255.498 35.4848C255.768 35.2602 256.09 35.1479 256.464 35.1479C256.853 35.1479 257.183 35.2602 257.452 35.4848C257.737 35.7094 257.879 36.1061 257.879 36.6751C257.879 37.2141 257.737 37.6034 257.452 37.8429C257.183 38.0825 256.853 38.2022 256.464 38.2022C256.09 38.2022 255.768 38.0825 255.498 37.8429C255.229 37.6034 255.094 37.2141 255.094 36.6751ZM271.232 39.4599C271.232 40.7625 271.135 41.9228 270.94 42.941C270.746 43.9591 270.431 44.8275 269.997 45.5461C269.578 46.2498 269.024 46.7888 268.335 47.1631C267.661 47.5374 266.845 47.7246 265.887 47.7246C264.689 47.7246 263.694 47.3952 262.9 46.7364C262.122 46.0776 261.538 45.1344 261.148 43.9067C260.774 42.664 260.587 41.1817 260.587 39.4599C260.587 37.7231 260.759 36.2409 261.103 35.0132C261.463 33.7854 262.032 32.8497 262.81 32.2059C263.589 31.5471 264.614 31.2177 265.887 31.2177C267.085 31.2177 268.081 31.5471 268.874 32.2059C269.668 32.8497 270.259 33.7854 270.648 35.0132C271.038 36.2409 271.232 37.7231 271.232 39.4599ZM262.563 39.4599C262.563 40.9272 262.668 42.1474 262.878 43.1206C263.102 44.0938 263.454 44.8275 263.933 45.3215C264.427 45.8007 265.079 46.0402 265.887 46.0402C266.696 46.0402 267.339 45.8007 267.819 45.3215C268.313 44.8424 268.672 44.1163 268.897 43.1431C269.121 42.1549 269.233 40.9272 269.233 39.4599C269.233 37.9926 269.121 36.7799 268.897 35.8217C268.672 34.8485 268.313 34.1223 267.819 33.6432C267.339 33.1491 266.696 32.9021 265.887 32.9021C265.079 32.9021 264.427 33.1491 263.933 33.6432C263.454 34.1223 263.102 34.8485 262.878 35.8217C262.668 36.7799 262.563 37.9926 262.563 39.4599ZM278.515 37.6632C279.608 37.6632 280.558 37.8504 281.367 38.2247C282.175 38.599 282.797 39.138 283.231 39.8417C283.68 40.5304 283.905 41.3764 283.905 42.3795C283.905 43.4874 283.665 44.4457 283.186 45.2542C282.707 46.0477 282.018 46.6616 281.12 47.0957C280.236 47.515 279.166 47.7246 277.908 47.7246C277.085 47.7246 276.306 47.6497 275.573 47.5C274.854 47.3503 274.248 47.1332 273.754 46.8487V44.9847C274.293 45.3141 274.944 45.5761 275.707 45.7707C276.486 45.9504 277.227 46.0402 277.931 46.0402C278.724 46.0402 279.413 45.9204 279.997 45.6809C280.596 45.4263 281.06 45.0446 281.389 44.5355C281.719 44.0115 281.883 43.3602 281.883 42.5816C281.883 41.5336 281.562 40.7326 280.918 40.1786C280.274 39.6096 279.256 39.3252 277.863 39.3252C277.444 39.3252 276.965 39.3626 276.426 39.4375C275.887 39.5123 275.453 39.5872 275.123 39.662L274.135 39.0332L274.742 31.4647H282.782V33.2614H276.426L276.044 37.9103C276.299 37.8654 276.643 37.813 277.077 37.7531C277.512 37.6932 277.991 37.6632 278.515 37.6632Z" fill="white" style="mix-blend-mode:saturation"/>
<path d="M252.371 39.4599C252.371 40.7625 252.273 41.9228 252.079 42.941C251.884 43.9591 251.57 44.8275 251.136 45.5461C250.716 46.2498 250.162 46.7888 249.474 47.1631C248.8 47.5374 247.984 47.7246 247.026 47.7246C245.828 47.7246 244.832 47.3952 244.039 46.7364C243.26 46.0776 242.676 45.1344 242.287 43.9067C241.913 42.664 241.725 41.1817 241.725 39.4599C241.725 37.7231 241.898 36.2409 242.242 35.0132C242.601 33.7854 243.17 32.8497 243.949 32.2059C244.727 31.5471 245.753 31.2177 247.026 31.2177C248.223 31.2177 249.219 31.5471 250.013 32.2059C250.806 32.8497 251.398 33.7854 251.787 35.0132C252.176 36.2409 252.371 37.7231 252.371 39.4599ZM243.702 39.4599C243.702 40.9272 243.807 42.1474 244.016 43.1206C244.241 44.0938 244.593 44.8275 245.072 45.3215C245.566 45.8007 246.217 46.0402 247.026 46.0402C247.834 46.0402 248.478 45.8007 248.957 45.3215C249.451 44.8424 249.81 44.1163 250.035 43.1431C250.26 42.1549 250.372 40.9272 250.372 39.4599C250.372 37.9926 250.26 36.7799 250.035 35.8217C249.81 34.8485 249.451 34.1223 248.957 33.6432C248.478 33.1491 247.834 32.9021 247.026 32.9021C246.217 32.9021 245.566 33.1491 245.072 33.6432C244.593 34.1223 244.241 34.8485 244.016 35.8217C243.807 36.7799 243.702 37.9926 243.702 39.4599ZM255.094 46.2872C255.094 45.7333 255.229 45.344 255.498 45.1194C255.768 44.8948 256.09 44.7825 256.464 44.7825C256.853 44.7825 257.183 44.8948 257.452 45.1194C257.737 45.344 257.879 45.7333 257.879 46.2872C257.879 46.8262 257.737 47.2155 257.452 47.4551C257.183 47.6946 256.853 47.8144 256.464 47.8144C256.09 47.8144 255.768 47.6946 255.498 47.4551C255.229 47.2155 255.094 46.8262 255.094 46.2872ZM255.094 36.6751C255.094 36.1061 255.229 35.7094 255.498 35.4848C255.768 35.2602 256.09 35.1479 256.464 35.1479C256.853 35.1479 257.183 35.2602 257.452 35.4848C257.737 35.7094 257.879 36.1061 257.879 36.6751C257.879 37.2141 257.737 37.6034 257.452 37.8429C257.183 38.0825 256.853 38.2022 256.464 38.2022C256.09 38.2022 255.768 38.0825 255.498 37.8429C255.229 37.6034 255.094 37.2141 255.094 36.6751ZM271.232 39.4599C271.232 40.7625 271.135 41.9228 270.94 42.941C270.746 43.9591 270.431 44.8275 269.997 45.5461C269.578 46.2498 269.024 46.7888 268.335 47.1631C267.661 47.5374 266.845 47.7246 265.887 47.7246C264.689 47.7246 263.694 47.3952 262.9 46.7364C262.122 46.0776 261.538 45.1344 261.148 43.9067C260.774 42.664 260.587 41.1817 260.587 39.4599C260.587 37.7231 260.759 36.2409 261.103 35.0132C261.463 33.7854 262.032 32.8497 262.81 32.2059C263.589 31.5471 264.614 31.2177 265.887 31.2177C267.085 31.2177 268.081 31.5471 268.874 32.2059C269.668 32.8497 270.259 33.7854 270.648 35.0132C271.038 36.2409 271.232 37.7231 271.232 39.4599ZM262.563 39.4599C262.563 40.9272 262.668 42.1474 262.878 43.1206C263.102 44.0938 263.454 44.8275 263.933 45.3215C264.427 45.8007 265.079 46.0402 265.887 46.0402C266.696 46.0402 267.339 45.8007 267.819 45.3215C268.313 44.8424 268.672 44.1163 268.897 43.1431C269.121 42.1549 269.233 40.9272 269.233 39.4599C269.233 37.9926 269.121 36.7799 268.897 35.8217C268.672 34.8485 268.313 34.1223 267.819 33.6432C267.339 33.1491 266.696 32.9021 265.887 32.9021C265.079 32.9021 264.427 33.1491 263.933 33.6432C263.454 34.1223 263.102 34.8485 262.878 35.8217C262.668 36.7799 262.563 37.9926 262.563 39.4599ZM278.515 37.6632C279.608 37.6632 280.558 37.8504 281.367 38.2247C282.175 38.599 282.797 39.138 283.231 39.8417C283.68 40.5304 283.905 41.3764 283.905 42.3795C283.905 43.4874 283.665 44.4457 283.186 45.2542C282.707 46.0477 282.018 46.6616 281.12 47.0957C280.236 47.515 279.166 47.7246 277.908 47.7246C277.085 47.7246 276.306 47.6497 275.573 47.5C274.854 47.3503 274.248 47.1332 273.754 46.8487V44.9847C274.293 45.3141 274.944 45.5761 275.707 45.7707C276.486 45.9504 277.227 46.0402 277.931 46.0402C278.724 46.0402 279.413 45.9204 279.997 45.6809C280.596 45.4263 281.06 45.0446 281.389 44.5355C281.719 44.0115 281.883 43.3602 281.883 42.5816C281.883 41.5336 281.562 40.7326 280.918 40.1786C280.274 39.6096 279.256 39.3252 277.863 39.3252C277.444 39.3252 276.965 39.3626 276.426 39.4375C275.887 39.5123 275.453 39.5872 275.123 39.662L274.135 39.0332L274.742 31.4647H282.782V33.2614H276.426L276.044 37.9103C276.299 37.8654 276.643 37.813 277.077 37.7531C277.512 37.6932 277.991 37.6632 278.515 37.6632Z" fill="white" style="mix-blend-mode:overlay"/>
<path d="M252.371 39.4599C252.371 40.7625 252.273 41.9228 252.079 42.941C251.884 43.9591 251.57 44.8275 251.136 45.5461C250.716 46.2498 250.162 46.7888 249.474 47.1631C248.8 47.5374 247.984 47.7246 247.026 47.7246C245.828 47.7246 244.832 47.3952 244.039 46.7364C243.26 46.0776 242.676 45.1344 242.287 43.9067C241.913 42.664 241.725 41.1817 241.725 39.4599C241.725 37.7231 241.898 36.2409 242.242 35.0132C242.601 33.7854 243.17 32.8497 243.949 32.2059C244.727 31.5471 245.753 31.2177 247.026 31.2177C248.223 31.2177 249.219 31.5471 250.013 32.2059C250.806 32.8497 251.398 33.7854 251.787 35.0132C252.176 36.2409 252.371 37.7231 252.371 39.4599ZM243.702 39.4599C243.702 40.9272 243.807 42.1474 244.016 43.1206C244.241 44.0938 244.593 44.8275 245.072 45.3215C245.566 45.8007 246.217 46.0402 247.026 46.0402C247.834 46.0402 248.478 45.8007 248.957 45.3215C249.451 44.8424 249.81 44.1163 250.035 43.1431C250.26 42.1549 250.372 40.9272 250.372 39.4599C250.372 37.9926 250.26 36.7799 250.035 35.8217C249.81 34.8485 249.451 34.1223 248.957 33.6432C248.478 33.1491 247.834 32.9021 247.026 32.9021C246.217 32.9021 245.566 33.1491 245.072 33.6432C244.593 34.1223 244.241 34.8485 244.016 35.8217C243.807 36.7799 243.702 37.9926 243.702 39.4599ZM255.094 46.2872C255.094 45.7333 255.229 45.344 255.498 45.1194C255.768 44.8948 256.09 44.7825 256.464 44.7825C256.853 44.7825 257.183 44.8948 257.452 45.1194C257.737 45.344 257.879 45.7333 257.879 46.2872C257.879 46.8262 257.737 47.2155 257.452 47.4551C257.183 47.6946 256.853 47.8144 256.464 47.8144C256.09 47.8144 255.768 47.6946 255.498 47.4551C255.229 47.2155 255.094 46.8262 255.094 46.2872ZM255.094 36.6751C255.094 36.1061 255.229 35.7094 255.498 35.4848C255.768 35.2602 256.09 35.1479 256.464 35.1479C256.853 35.1479 257.183 35.2602 257.452 35.4848C257.737 35.7094 257.879 36.1061 257.879 36.6751C257.879 37.2141 257.737 37.6034 257.452 37.8429C257.183 38.0825 256.853 38.2022 256.464 38.2022C256.09 38.2022 255.768 38.0825 255.498 37.8429C255.229 37.6034 255.094 37.2141 255.094 36.6751ZM271.232 39.4599C271.232 40.7625 271.135 41.9228 270.94 42.941C270.746 43.9591 270.431 44.8275 269.997 45.5461C269.578 46.2498 269.024 46.7888 268.335 47.1631C267.661 47.5374 266.845 47.7246 265.887 47.7246C264.689 47.7246 263.694 47.3952 262.9 46.7364C262.122 46.0776 261.538 45.1344 261.148 43.9067C260.774 42.664 260.587 41.1817 260.587 39.4599C260.587 37.7231 260.759 36.2409 261.103 35.0132C261.463 33.7854 262.032 32.8497 262.81 32.2059C263.589 31.5471 264.614 31.2177 265.887 31.2177C267.085 31.2177 268.081 31.5471 268.874 32.2059C269.668 32.8497 270.259 33.7854 270.648 35.0132C271.038 36.2409 271.232 37.7231 271.232 39.4599ZM262.563 39.4599C262.563 40.9272 262.668 42.1474 262.878 43.1206C263.102 44.0938 263.454 44.8275 263.933 45.3215C264.427 45.8007 265.079 46.0402 265.887 46.0402C266.696 46.0402 267.339 45.8007 267.819 45.3215C268.313 44.8424 268.672 44.1163 268.897 43.1431C269.121 42.1549 269.233 40.9272 269.233 39.4599C269.233 37.9926 269.121 36.7799 268.897 35.8217C268.672 34.8485 268.313 34.1223 267.819 33.6432C267.339 33.1491 266.696 32.9021 265.887 32.9021C265.079 32.9021 264.427 33.1491 263.933 33.6432C263.454 34.1223 263.102 34.8485 262.878 35.8217C262.668 36.7799 262.563 37.9926 262.563 39.4599ZM278.515 37.6632C279.608 37.6632 280.558 37.8504 281.367 38.2247C282.175 38.599 282.797 39.138 283.231 39.8417C283.68 40.5304 283.905 41.3764 283.905 42.3795C283.905 43.4874 283.665 44.4457 283.186 45.2542C282.707 46.0477 282.018 46.6616 281.12 47.0957C280.236 47.515 279.166 47.7246 277.908 47.7246C277.085 47.7246 276.306 47.6497 275.573 47.5C274.854 47.3503 274.248 47.1332 273.754 46.8487V44.9847C274.293 45.3141 274.944 45.5761 275.707 45.7707C276.486 45.9504 277.227 46.0402 277.931 46.0402C278.724 46.0402 279.413 45.9204 279.997 45.6809C280.596 45.4263 281.06 45.0446 281.389 44.5355C281.719 44.0115 281.883 43.3602 281.883 42.5816C281.883 41.5336 281.562 40.7326 280.918 40.1786C280.274 39.6096 279.256 39.3252 277.863 39.3252C277.444 39.3252 276.965 39.3626 276.426 39.4375C275.887 39.5123 275.453 39.5872 275.123 39.662L274.135 39.0332L274.742 31.4647H282.782V33.2614H276.426L276.044 37.9103C276.299 37.8654 276.643 37.813 277.077 37.7531C277.512 37.6932 277.991 37.6632 278.515 37.6632Z" fill="black" style="mix-blend-mode:overlay"/>
<path d="M252.371 39.4599C252.371 40.7625 252.273 41.9228 252.079 42.941C251.884 43.9591 251.57 44.8275 251.136 45.5461C250.716 46.2498 250.162 46.7888 249.474 47.1631C248.8 47.5374 247.984 47.7246 247.026 47.7246C245.828 47.7246 244.832 47.3952 244.039 46.7364C243.26 46.0776 242.676 45.1344 242.287 43.9067C241.913 42.664 241.725 41.1817 241.725 39.4599C241.725 37.7231 241.898 36.2409 242.242 35.0132C242.601 33.7854 243.17 32.8497 243.949 32.2059C244.727 31.5471 245.753 31.2177 247.026 31.2177C248.223 31.2177 249.219 31.5471 250.013 32.2059C250.806 32.8497 251.398 33.7854 251.787 35.0132C252.176 36.2409 252.371 37.7231 252.371 39.4599ZM243.702 39.4599C243.702 40.9272 243.807 42.1474 244.016 43.1206C244.241 44.0938 244.593 44.8275 245.072 45.3215C245.566 45.8007 246.217 46.0402 247.026 46.0402C247.834 46.0402 248.478 45.8007 248.957 45.3215C249.451 44.8424 249.81 44.1163 250.035 43.1431C250.26 42.1549 250.372 40.9272 250.372 39.4599C250.372 37.9926 250.26 36.7799 250.035 35.8217C249.81 34.8485 249.451 34.1223 248.957 33.6432C248.478 33.1491 247.834 32.9021 247.026 32.9021C246.217 32.9021 245.566 33.1491 245.072 33.6432C244.593 34.1223 244.241 34.8485 244.016 35.8217C243.807 36.7799 243.702 37.9926 243.702 39.4599ZM255.094 46.2872C255.094 45.7333 255.229 45.344 255.498 45.1194C255.768 44.8948 256.09 44.7825 256.464 44.7825C256.853 44.7825 257.183 44.8948 257.452 45.1194C257.737 45.344 257.879 45.7333 257.879 46.2872C257.879 46.8262 257.737 47.2155 257.452 47.4551C257.183 47.6946 256.853 47.8144 256.464 47.8144C256.09 47.8144 255.768 47.6946 255.498 47.4551C255.229 47.2155 255.094 46.8262 255.094 46.2872ZM255.094 36.6751C255.094 36.1061 255.229 35.7094 255.498 35.4848C255.768 35.2602 256.09 35.1479 256.464 35.1479C256.853 35.1479 257.183 35.2602 257.452 35.4848C257.737 35.7094 257.879 36.1061 257.879 36.6751C257.879 37.2141 257.737 37.6034 257.452 37.8429C257.183 38.0825 256.853 38.2022 256.464 38.2022C256.09 38.2022 255.768 38.0825 255.498 37.8429C255.229 37.6034 255.094 37.2141 255.094 36.6751ZM271.232 39.4599C271.232 40.7625 271.135 41.9228 270.94 42.941C270.746 43.9591 270.431 44.8275 269.997 45.5461C269.578 46.2498 269.024 46.7888 268.335 47.1631C267.661 47.5374 266.845 47.7246 265.887 47.7246C264.689 47.7246 263.694 47.3952 262.9 46.7364C262.122 46.0776 261.538 45.1344 261.148 43.9067C260.774 42.664 260.587 41.1817 260.587 39.4599C260.587 37.7231 260.759 36.2409 261.103 35.0132C261.463 33.7854 262.032 32.8497 262.81 32.2059C263.589 31.5471 264.614 31.2177 265.887 31.2177C267.085 31.2177 268.081 31.5471 268.874 32.2059C269.668 32.8497 270.259 33.7854 270.648 35.0132C271.038 36.2409 271.232 37.7231 271.232 39.4599ZM262.563 39.4599C262.563 40.9272 262.668 42.1474 262.878 43.1206C263.102 44.0938 263.454 44.8275 263.933 45.3215C264.427 45.8007 265.079 46.0402 265.887 46.0402C266.696 46.0402 267.339 45.8007 267.819 45.3215C268.313 44.8424 268.672 44.1163 268.897 43.1431C269.121 42.1549 269.233 40.9272 269.233 39.4599C269.233 37.9926 269.121 36.7799 268.897 35.8217C268.672 34.8485 268.313 34.1223 267.819 33.6432C267.339 33.1491 266.696 32.9021 265.887 32.9021C265.079 32.9021 264.427 33.1491 263.933 33.6432C263.454 34.1223 263.102 34.8485 262.878 35.8217C262.668 36.7799 262.563 37.9926 262.563 39.4599ZM278.515 37.6632C279.608 37.6632 280.558 37.8504 281.367 38.2247C282.175 38.599 282.797 39.138 283.231 39.8417C283.68 40.5304 283.905 41.3764 283.905 42.3795C283.905 43.4874 283.665 44.4457 283.186 45.2542C282.707 46.0477 282.018 46.6616 281.12 47.0957C280.236 47.515 279.166 47.7246 277.908 47.7246C277.085 47.7246 276.306 47.6497 275.573 47.5C274.854 47.3503 274.248 47.1332 273.754 46.8487V44.9847C274.293 45.3141 274.944 45.5761 275.707 45.7707C276.486 45.9504 277.227 46.0402 277.931 46.0402C278.724 46.0402 279.413 45.9204 279.997 45.6809C280.596 45.4263 281.06 45.0446 281.389 44.5355C281.719 44.0115 281.883 43.3602 281.883 42.5816C281.883 41.5336 281.562 40.7326 280.918 40.1786C280.274 39.6096 279.256 39.3252 277.863 39.3252C277.444 39.3252 276.965 39.3626 276.426 39.4375C275.887 39.5123 275.453 39.5872 275.123 39.662L274.135 39.0332L274.742 31.4647H282.782V33.2614H276.426L276.044 37.9103C276.299 37.8654 276.643 37.813 277.077 37.7531C277.512 37.6932 277.991 37.6632 278.515 37.6632Z" fill="white" style="mix-blend-mode:overlay"/>
<path d="M252.371 39.4599C252.371 40.7625 252.273 41.9228 252.079 42.941C251.884 43.9591 251.57 44.8275 251.136 45.5461C250.716 46.2498 250.162 46.7888 249.474 47.1631C248.8 47.5374 247.984 47.7246 247.026 47.7246C245.828 47.7246 244.832 47.3952 244.039 46.7364C243.26 46.0776 242.676 45.1344 242.287 43.9067C241.913 42.664 241.725 41.1817 241.725 39.4599C241.725 37.7231 241.898 36.2409 242.242 35.0132C242.601 33.7854 243.17 32.8497 243.949 32.2059C244.727 31.5471 245.753 31.2177 247.026 31.2177C248.223 31.2177 249.219 31.5471 250.013 32.2059C250.806 32.8497 251.398 33.7854 251.787 35.0132C252.176 36.2409 252.371 37.7231 252.371 39.4599ZM243.702 39.4599C243.702 40.9272 243.807 42.1474 244.016 43.1206C244.241 44.0938 244.593 44.8275 245.072 45.3215C245.566 45.8007 246.217 46.0402 247.026 46.0402C247.834 46.0402 248.478 45.8007 248.957 45.3215C249.451 44.8424 249.81 44.1163 250.035 43.1431C250.26 42.1549 250.372 40.9272 250.372 39.4599C250.372 37.9926 250.26 36.7799 250.035 35.8217C249.81 34.8485 249.451 34.1223 248.957 33.6432C248.478 33.1491 247.834 32.9021 247.026 32.9021C246.217 32.9021 245.566 33.1491 245.072 33.6432C244.593 34.1223 244.241 34.8485 244.016 35.8217C243.807 36.7799 243.702 37.9926 243.702 39.4599ZM255.094 46.2872C255.094 45.7333 255.229 45.344 255.498 45.1194C255.768 44.8948 256.09 44.7825 256.464 44.7825C256.853 44.7825 257.183 44.8948 257.452 45.1194C257.737 45.344 257.879 45.7333 257.879 46.2872C257.879 46.8262 257.737 47.2155 257.452 47.4551C257.183 47.6946 256.853 47.8144 256.464 47.8144C256.09 47.8144 255.768 47.6946 255.498 47.4551C255.229 47.2155 255.094 46.8262 255.094 46.2872ZM255.094 36.6751C255.094 36.1061 255.229 35.7094 255.498 35.4848C255.768 35.2602 256.09 35.1479 256.464 35.1479C256.853 35.1479 257.183 35.2602 257.452 35.4848C257.737 35.7094 257.879 36.1061 257.879 36.6751C257.879 37.2141 257.737 37.6034 257.452 37.8429C257.183 38.0825 256.853 38.2022 256.464 38.2022C256.09 38.2022 255.768 38.0825 255.498 37.8429C255.229 37.6034 255.094 37.2141 255.094 36.6751ZM271.232 39.4599C271.232 40.7625 271.135 41.9228 270.94 42.941C270.746 43.9591 270.431 44.8275 269.997 45.5461C269.578 46.2498 269.024 46.7888 268.335 47.1631C267.661 47.5374 266.845 47.7246 265.887 47.7246C264.689 47.7246 263.694 47.3952 262.9 46.7364C262.122 46.0776 261.538 45.1344 261.148 43.9067C260.774 42.664 260.587 41.1817 260.587 39.4599C260.587 37.7231 260.759 36.2409 261.103 35.0132C261.463 33.7854 262.032 32.8497 262.81 32.2059C263.589 31.5471 264.614 31.2177 265.887 31.2177C267.085 31.2177 268.081 31.5471 268.874 32.2059C269.668 32.8497 270.259 33.7854 270.648 35.0132C271.038 36.2409 271.232 37.7231 271.232 39.4599ZM262.563 39.4599C262.563 40.9272 262.668 42.1474 262.878 43.1206C263.102 44.0938 263.454 44.8275 263.933 45.3215C264.427 45.8007 265.079 46.0402 265.887 46.0402C266.696 46.0402 267.339 45.8007 267.819 45.3215C268.313 44.8424 268.672 44.1163 268.897 43.1431C269.121 42.1549 269.233 40.9272 269.233 39.4599C269.233 37.9926 269.121 36.7799 268.897 35.8217C268.672 34.8485 268.313 34.1223 267.819 33.6432C267.339 33.1491 266.696 32.9021 265.887 32.9021C265.079 32.9021 264.427 33.1491 263.933 33.6432C263.454 34.1223 263.102 34.8485 262.878 35.8217C262.668 36.7799 262.563 37.9926 262.563 39.4599ZM278.515 37.6632C279.608 37.6632 280.558 37.8504 281.367 38.2247C282.175 38.599 282.797 39.138 283.231 39.8417C283.68 40.5304 283.905 41.3764 283.905 42.3795C283.905 43.4874 283.665 44.4457 283.186 45.2542C282.707 46.0477 282.018 46.6616 281.12 47.0957C280.236 47.515 279.166 47.7246 277.908 47.7246C277.085 47.7246 276.306 47.6497 275.573 47.5C274.854 47.3503 274.248 47.1332 273.754 46.8487V44.9847C274.293 45.3141 274.944 45.5761 275.707 45.7707C276.486 45.9504 277.227 46.0402 277.931 46.0402C278.724 46.0402 279.413 45.9204 279.997 45.6809C280.596 45.4263 281.06 45.0446 281.389 44.5355C281.719 44.0115 281.883 43.3602 281.883 42.5816C281.883 41.5336 281.562 40.7326 280.918 40.1786C280.274 39.6096 279.256 39.3252 277.863 39.3252C277.444 39.3252 276.965 39.3626 276.426 39.4375C275.887 39.5123 275.453 39.5872 275.123 39.662L274.135 39.0332L274.742 31.4647H282.782V33.2614H276.426L276.044 37.9103C276.299 37.8654 276.643 37.813 277.077 37.7531C277.512 37.6932 277.991 37.6632 278.515 37.6632Z" fill="black" style="mix-blend-mode:overlay"/>
</g>
<g opacity="0.66">
<path fill-rule="evenodd" clip-rule="evenodd" d="M323.135 24.1893C322.535 23.9422 321.845 24.0786 321.387 24.5374L314.5 32.0866H309.687C308.805 32.0866 308.083 32.81 308.083 33.6907V43.3157C308.083 44.198 308.805 44.9198 309.687 44.9198H314.5L321.387 52.4723C321.845 52.931 322.535 53.069 323.135 52.8204C323.735 52.5717 324.125 51.9862 324.125 51.3365V25.6699C324.125 25.0234 323.735 24.4347 323.135 24.1893ZM327.333 27.2739V30.4823C331.756 30.4823 335.354 34.082 335.354 38.5032C335.354 42.9259 331.756 46.524 327.333 46.524V49.7323C333.525 49.7323 338.562 44.6969 338.562 38.5032C338.562 32.3126 333.525 27.2739 327.333 27.2739ZM327.333 33.6906C329.987 33.6906 332.146 35.8515 332.146 38.5032C332.146 41.1581 329.987 43.3157 327.333 43.3157V40.1073C328.217 40.1073 328.937 39.3871 328.937 38.5032C328.937 37.6193 328.217 36.899 327.333 36.899V33.6906Z" fill="#FF0000" style="mix-blend-mode:saturation"/>
<path fill-rule="evenodd" clip-rule="evenodd" d="M323.135 24.1893C322.535 23.9422 321.845 24.0786 321.387 24.5374L314.5 32.0866H309.687C308.805 32.0866 308.083 32.81 308.083 33.6907V43.3157C308.083 44.198 308.805 44.9198 309.687 44.9198H314.5L321.387 52.4723C321.845 52.931 322.535 53.069 323.135 52.8204C323.735 52.5717 324.125 51.9862 324.125 51.3365V25.6699C324.125 25.0234 323.735 24.4347 323.135 24.1893ZM327.333 27.2739V30.4823C331.756 30.4823 335.354 34.082 335.354 38.5032C335.354 42.9259 331.756 46.524 327.333 46.524V49.7323C333.525 49.7323 338.562 44.6969 338.562 38.5032C338.562 32.3126 333.525 27.2739 327.333 27.2739ZM327.333 33.6906C329.987 33.6906 332.146 35.8515 332.146 38.5032C332.146 41.1581 329.987 43.3157 327.333 43.3157V40.1073C328.217 40.1073 328.937 39.3871 328.937 38.5032C328.937 37.6193 328.217 36.899 327.333 36.899V33.6906Z" fill="white" style="mix-blend-mode:difference"/>
<path fill-rule="evenodd" clip-rule="evenodd" d="M323.135 24.1893C322.535 23.9422 321.845 24.0786 321.387 24.5374L314.5 32.0866H309.687C308.805 32.0866 308.083 32.81 308.083 33.6907V43.3157C308.083 44.198 308.805 44.9198 309.687 44.9198H314.5L321.387 52.4723C321.845 52.931 322.535 53.069 323.135 52.8204C323.735 52.5717 324.125 51.9862 324.125 51.3365V25.6699C324.125 25.0234 323.735 24.4347 323.135 24.1893ZM327.333 27.2739V30.4823C331.756 30.4823 335.354 34.082 335.354 38.5032C335.354 42.9259 331.756 46.524 327.333 46.524V49.7323C333.525 49.7323 338.562 44.6969 338.562 38.5032C338.562 32.3126 333.525 27.2739 327.333 27.2739ZM327.333 33.6906C329.987 33.6906 332.146 35.8515 332.146 38.5032C332.146 41.1581 329.987 43.3157 327.333 43.3157V40.1073C328.217 40.1073 328.937 39.3871 328.937 38.5032C328.937 37.6193 328.217 36.899 327.333 36.899V33.6906Z" fill="white" style="mix-blend-mode:saturation"/>
<path fill-rule="evenodd" clip-rule="evenodd" d="M323.135 24.1893C322.535 23.9422 321.845 24.0786 321.387 24.5374L314.5 32.0866H309.687C308.805 32.0866 308.083 32.81 308.083 33.6907V43.3157C308.083 44.198 308.805 44.9198 309.687 44.9198H314.5L321.387 52.4723C321.845 52.931 322.535 53.069 323.135 52.8204C323.735 52.5717 324.125 51.9862 324.125 51.3365V25.6699C324.125 25.0234 323.735 24.4347 323.135 24.1893ZM327.333 27.2739V30.4823C331.756 30.4823 335.354 34.082 335.354 38.5032C335.354 42.9259 331.756 46.524 327.333 46.524V49.7323C333.525 49.7323 338.562 44.6969 338.562 38.5032C338.562 32.3126 333.525 27.2739 327.333 27.2739ZM327.333 33.6906C329.987 33.6906 332.146 35.8515 332.146 38.5032C332.146 41.1581 329.987 43.3157 327.333 43.3157V40.1073C328.217 40.1073 328.937 39.3871 328.937 38.5032C328.937 37.6193 328.217 36.899 327.333 36.899V33.6906Z" fill="white" style="mix-blend-mode:overlay"/>
<path fill-rule="evenodd" clip-rule="evenodd" d="M323.135 24.1893C322.535 23.9422 321.845 24.0786 321.387 24.5374L314.5 32.0866H309.687C308.805 32.0866 308.083 32.81 308.083 33.6907V43.3157C308.083 44.198 308.805 44.9198 309.687 44.9198H314.5L321.387 52.4723C321.845 52.931 322.535 53.069 323.135 52.8204C323.735 52.5717 324.125 51.9862 324.125 51.3365V25.6699C324.125 25.0234 323.735 24.4347 323.135 24.1893ZM327.333 27.2739V30.4823C331.756 30.4823 335.354 34.082 335.354 38.5032C335.354 42.9259 331.756 46.524 327.333 46.524V49.7323C333.525 49.7323 338.562 44.6969 338.562 38.5032C338.562 32.3126 333.525 27.2739 327.333 27.2739ZM327.333 33.6906C329.987 33.6906 332.146 35.8515 332.146 38.5032C332.146 41.1581 329.987 43.3157 327.333 43.3157V40.1073C328.217 40.1073 328.937 39.3871 328.937 38.5032C328.937 37.6193 328.217 36.899 327.333 36.899V33.6906Z" fill="black" style="mix-blend-mode:overlay"/>
<path fill-rule="evenodd" clip-rule="evenodd" d="M323.135 24.1893C322.535 23.9422 321.845 24.0786 321.387 24.5374L314.5 32.0866H309.687C308.805 32.0866 308.083 32.81 308.083 33.6907V43.3157C308.083 44.198 308.805 44.9198 309.687 44.9198H314.5L321.387 52.4723C321.845 52.931 322.535 53.069 323.135 52.8204C323.735 52.5717 324.125 51.9862 324.125 51.3365V25.6699C324.125 25.0234 323.735 24.4347 323.135 24.1893ZM327.333 27.2739V30.4823C331.756 30.4823 335.354 34.082 335.354 38.5032C335.354 42.9259 331.756 46.524 327.333 46.524V49.7323C333.525 49.7323 338.562 44.6969 338.562 38.5032C338.562 32.3126 333.525 27.2739 327.333 27.2739ZM327.333 33.6906C329.987 33.6906 332.146 35.8515 332.146 38.5032C332.146 41.1581 329.987 43.3157 327.333 43.3157V40.1073C328.217 40.1073 328.937 39.3871 328.937 38.5032C328.937 37.6193 328.217 36.899 327.333 36.899V33.6906Z" fill="white" style="mix-blend-mode:overlay"/>
<path fill-rule="evenodd" clip-rule="evenodd" d="M323.135 24.1893C322.535 23.9422 321.845 24.0786 321.387 24.5374L314.5 32.0866H309.687C308.805 32.0866 308.083 32.81 308.083 33.6907V43.3157C308.083 44.198 308.805 44.9198 309.687 44.9198H314.5L321.387 52.4723C321.845 52.931 322.535 53.069 323.135 52.8204C323.735 52.5717 324.125 51.9862 324.125 51.3365V25.6699C324.125 25.0234 323.735 24.4347 323.135 24.1893ZM327.333 27.2739V30.4823C331.756 30.4823 335.354 34.082 335.354 38.5032C335.354 42.9259 331.756 46.524 327.333 46.524V49.7323C333.525 49.7323 338.562 44.6969 338.562 38.5032C338.562 32.3126 333.525 27.2739 327.333 27.2739ZM327.333 33.6906C329.987 33.6906 332.146 35.8515 332.146 38.5032C332.146 41.1581 329.987 43.3157 327.333 43.3157V40.1073C328.217 40.1073 328.937 39.3871 328.937 38.5032C328.937 37.6193 328.217 36.899 327.333 36.899V33.6906Z" fill="black" style="mix-blend-mode:overlay"/>
</g>
</g>
<defs>
<clipPath id="clip0_20_37665">
<rect width="362.625" height="77" rx="38.5" fill="white"/>
</clipPath>
</defs>
</svg>
